<svg id="basket" xmlns="http://www.w3.org/2000/svg" xmlns:xlink="http://www.w3.org/1999/xlink" viewBox="0 0 793.07 612.16"><defs><style>.cls-1,.cls-12,.cls-13,.cls-14,.cls-20,.cls-23,.cls-29,.cls-3,.cls-33,.cls-34,.cls-35,.cls-36,.cls-37,.cls-38,.cls-4,.cls-5{fill:#fff;}.cls-1,.cls-12,.cls-13,.cls-17,.cls-18,.cls-19,.cls-24,.cls-27,.cls-29,.cls-3,.cls-30,.cls-31,.cls-32,.cls-33,.cls-34,.cls-35,.cls-36,.cls-37,.cls-38,.cls-39,.cls-4,.cls-5{stroke:#000;}.cls-1,.cls-12,.cls-13,.cls-17,.cls-18,.cls-19,.cls-20,.cls-22,.cls-23,.cls-24,.cls-27,.cls-29,.cls-3,.cls-30,.cls-31,.cls-32,.cls-33,.cls-34,.cls-35,.cls-36,.cls-37,.cls-38,.cls-39,.cls-4,.cls-5{stroke-miterlimit:10;}.cls-1{stroke-width:0.12px;}.cls-2{fill:#846b2c;}.cls-3{stroke-width:0.12px;}.cls-4{stroke-width:0.13px;}.cls-5{stroke-width:0.11px;}.cls-6{fill:url(#linear-gradient);}.cls-7{fill:url(#linear-gradient-2);}.cls-8{fill:url(#linear-gradient-3);}.cls-9{fill:url(#linear-gradient-4);}.cls-10{fill:url(#linear-gradient-5);}.cls-11{fill:url(#linear-gradient-6);}.cls-12{stroke-width:0.13px;}.cls-13{stroke-width:0.16px;}.cls-15{fill:#c62c2c;}.cls-16{fill-rule:evenodd;}.cls-17,.cls-24{fill:#121c04;}.cls-17,.cls-18{stroke-width:0.16px;}.cls-18{fill:#1b2307;}.cls-19,.cls-29,.cls-30{stroke-width:0.64px;}.cls-19{fill:url(#linear-gradient-7);}.cls-20,.cls-23{stroke:#889799;}.cls-21{fill:#333275;}.cls-22{fill:#63a70a;stroke:#4e9d2d;stroke-width:1.98px;}.cls-23{stroke-width:1.36px;}.cls-24{stroke-width:0.21px;}.cls-25{fill:#4d4d4d;}.cls-26{fill:#aa495e;}.cls-27{stroke-width:0.09px;fill:url(#linear-gradient-8);}.cls-28{fill:#30343f;}.cls-30{fill:url(#linear-gradient-9);}.cls-31,.cls-32{stroke-width:0.28px;}.cls-31{fill:url(#linear-gradient-10);}.cls-32{fill:url(#linear-gradient-11);}.cls-33{stroke-width:0.84px;}.cls-34{stroke-width:0.84px;}.cls-35{stroke-width:0.31px;}.cls-36{stroke-width:0.31px;}.cls-37{stroke-width:1.22px;}.cls-38{stroke-width:0.78px;}.cls-39{stroke-width:0.19px;fill:url(#linear-gradient-12);}</style><linearGradient id="linear-gradient" x1="287.05" y1="611.94" x2="308.26" y2="611.94" gradientTransform="translate(-18.79 -68.68) rotate(3.34)" gradientUnits="userSpaceOnUse"><stop offset="0.01" stop-color="#fbc926"/><stop offset="0.25" stop-color="#fffbcc"/><stop offset="0.3" stop-color="#f8f0bb"/><stop offset="0.4" stop-color="#e8d390"/><stop offset="0.5" stop-color="#d5b25e"/><stop offset="0.6" stop-color="#c3922e"/><stop offset="0.87" stop-color="#eed688"/><stop offset="1" stop-color="#fffbcc"/></linearGradient><linearGradient id="linear-gradient-2" x1="282.99" y1="613.85" x2="304.2" y2="613.85" xlink:href="#linear-gradient"/><linearGradient id="linear-gradient-3" x1="268.62" y1="615.72" x2="289.83" y2="615.72" xlink:href="#linear-gradient"/><linearGradient id="linear-gradient-4" x1="256.24" y1="618.12" x2="277.45" y2="618.12" gradientTransform="translate(-111.68 -27.12) rotate(-5.34)" xlink:href="#linear-gradient"/><linearGradient id="linear-gradient-5" x1="241.45" y1="615.09" x2="262.66" y2="615.09" gradientTransform="translate(-66.59 -48.56) rotate(-1.04)" xlink:href="#linear-gradient"/><linearGradient id="linear-gradient-6" x1="222.12" y1="613.91" x2="243.33" y2="613.91" gradientTransform="translate(35.64 -80.09) rotate(8.32)" xlink:href="#linear-gradient"/><linearGradient id="linear-gradient-7" x1="192.18" y1="342.47" x2="306.31" y2="342.47" gradientTransform="matrix(1, 0, 0, 1, 0, 0)" xlink:href="#linear-gradient"/><linearGradient id="linear-gradient-8" x1="525.16" y1="137.09" x2="541.3" y2="137.09" gradientTransform="matrix(1, 0, 0, 1, 0, 0)" xlink:href="#linear-gradient"/><linearGradient id="linear-gradient-9" x1="629.49" y1="195.98" x2="743.61" y2="195.98" gradientTransform="matrix(1, 0, 0, 1, 0, 0)" xlink:href="#linear-gradient"/><linearGradient id="linear-gradient-10" x1="524.11" y1="396.32" x2="573.32" y2="396.32" gradientTransform="matrix(1, 0, 0, 1, 0, 0)" xlink:href="#linear-gradient"/><linearGradient id="linear-gradient-11" x1="652.11" y1="230.32" x2="701.32" y2="230.32" gradientTransform="matrix(1, 0, 0, 1, 0, 0)" xlink:href="#linear-gradient"/><linearGradient id="linear-gradient-12" x1="639.24" y1="363.42" x2="725.44" y2="363.42" gradientTransform="matrix(1, 0, 0, 1, 0, 0)" xlink:href="#linear-gradient"/></defs><title>easterecardbotbush</title><g id="basket-2" data-name="basket"><path id="egg_shape" data-name="egg shape" class="cls-1" d="M213.15,564c0,8.12,4.88,11.58,10.91,11.58S235,572.08,235,564s-5-16.48-11-16.48S213.15,555.84,213.15,564Z" transform="translate(0.08 0.08)"/><path id="zigzag" class="cls-1" d="M233.18,557.45H214.92a21.35,21.35,0,0,0-1.61,6.35l3.88-3.64,4,3.43,4-3.23,3,3.23,3-3.14,3.76,4.23A17.46,17.46,0,0,0,233.18,557.45Z" transform="translate(0.08 0.08)"/><path id="circles" class="cls-1" d="M218.86,553.79a1.14,1.14,0,1,1-1.14,1.14A1.14,1.14,0,0,1,218.86,553.79Zm4.29,1.35a1.06,1.06,0,1,0,1.06-1.06A1.06,1.06,0,0,0,223.15,555.14Zm5.31,0a1.14,1.14,0,1,0,1.14-1.14A1.14,1.14,0,0,0,228.46,555.1Z" transform="translate(0.08 0.08)"/><path class="cls-2" d="M250.83,564.83c0-31.27-20.43-56.63-45.62-56.63s-45.62,25.35-45.62,56.63h5c0-28.47,18.22-51.62,40.63-51.62s40.63,23.16,40.63,51.63h5Z" transform="translate(0.08 0.08)"/><path id="egg_shape2" data-name="egg shape2" class="cls-3" d="M180.59,561.37c0,7.67,4.61,10.94,10.3,10.94s10.3-3.27,10.3-10.94-4.73-15.57-10.42-15.57S180.59,553.7,180.59,561.37Z" transform="translate(0.08 0.08)"/><path id="zigzag2" class="cls-3" d="M200.43,556l-2.74-2.68L195,556l-3-2.68L188.3,556l-3.91-2.68-3.06,2.7s-0.4,1.7-.59,3.3l3.67-3.43,3.74,3.24,3.74-3,2.82,3,2.82-3,3.55,4A18.62,18.62,0,0,0,200.43,556Z" transform="translate(0.08 0.08)"/><path id="circles2" class="cls-3" d="M186.18,560a1.08,1.08,0,1,1-1.08,1.08A1.08,1.08,0,0,1,186.18,560Zm4.05,1.27a1,1,0,1,0,1-1A1,1,0,0,0,190.24,561.29Zm5,0a1.08,1.08,0,1,0,1.08-1.08A1.08,1.08,0,0,0,195.25,561.25Z" transform="translate(0.08 0.08)"/><path id="bottom_line2" data-name="bottom line2" class="cls-3" d="M199.23,552.78c-0.56,0-3.11-.12-8.71-0.12s-6.93,0-8-.06a15.9,15.9,0,0,1,1.58-2.66c1.53,0.17,1.7-.47,6.42-0.47a36.52,36.52,0,0,1,7.29.71C197.87,550.23,199.27,552.78,199.23,552.78Z" transform="translate(0.08 0.08)"/><path id="egg_shape2-2" data-name="egg shape2" class="cls-4" d="M196.5,565.19c0,8.52,5.12,12.14,11.44,12.14s11.44-3.63,11.44-12.14-5.25-17.28-11.57-17.28S196.5,556.67,196.5,565.19Z" transform="translate(0.08 0.08)"/><path id="zigzag2-2" data-name="zigzag2" class="cls-4" d="M218.52,559.23l-3-3-3,3-3.36-3-4.09,3-4.34-3-3.39,3s-0.44,1.88-.66,3.66l4.07-3.81,4.15,3.6,4.15-3.38,3.13,3.38,3.13-3.3,3.94,4.43A20.67,20.67,0,0,0,218.52,559.23Z" transform="translate(0.08 0.08)"/><path id="bottom_line2-2" data-name="bottom line2" class="cls-4" d="M217.19,555.65c-0.63,0-3.45-.13-9.67-0.13s-7.7,0-8.89-.06a17.65,17.65,0,0,1,1.76-3c1.7,0.18,1.89-.52,7.13-0.52,5.55,0,6.65.72,8.1,0.79C215.68,552.82,217.24,555.65,217.19,555.65Z" transform="translate(0.08 0.08)"/><path id="egg_shape2-3" data-name="egg shape2" class="cls-5" d="M161.22,561c1.39,7.34,6.4,9.63,11.85,8.6s9.27-5,7.87-12.34-7.36-14-12.8-13S159.82,553.61,161.22,561Z" transform="translate(0.08 0.08)"/><path id="zigzag2-3" data-name="zigzag2" class="cls-5" d="M179.23,552.21l-3.11-2.07L174,553.2l-3.38-2-3,3.23-4.23-1.85L161,555.7s-0.07,1.7,0,3.27l2.88-4,4.17,2.42,3-3.6,3.25,2.41,2.16-3.36,4.12,3.18A18.14,18.14,0,0,0,179.23,552.21Z" transform="translate(0.08 0.08)"/><path id="bottom_line2-3" data-name="bottom line2" class="cls-5" d="M177.49,549.34c-0.54.1-3,.45-8.36,1.47s-6.64,1.23-7.67,1.4a15.49,15.49,0,0,1,1-2.83c1.5-.12,1.54-0.76,6.06-1.61a35.58,35.58,0,0,1,7.11-.64C175.73,547.15,177.53,549.33,177.49,549.34Z" transform="translate(0.08 0.08)"/><path id="egg5" class="cls-6" d="M228.8,561.14c-0.46,7.86,4.07,11.49,9.91,11.83s10.76-2.73,11.22-10.6-3.92-16.24-9.75-16.58S229.26,553.28,228.8,561.14Z" transform="translate(0.08 0.08)"/><g id="hardgame"><path id="hardegg5" class="cls-7" d="M224.63,562.81c-0.46,7.86,4.07,11.49,9.91,11.83s10.76-2.73,11.22-10.6-3.92-16.24-9.75-16.58S225.09,554.95,224.63,562.81Z" transform="translate(0.08 0.08)"/><path id="hardegg4" class="cls-8" d="M210.18,563.84c-0.46,7.86,4.07,11.49,9.91,11.83s10.76-2.73,11.22-10.6-3.92-16.24-9.75-16.58S210.64,556,210.18,563.84Z" transform="translate(0.08 0.08)"/><path id="hardegg3" class="cls-9" d="M198.07,567.11c0.73,7.84,5.76,10.74,11.58,10.2s10.22-4.33,9.49-12.17-6.32-15.47-12.14-14.92S197.34,559.26,198.07,567.11Z" transform="translate(0.08 0.08)"/><path id="hardegg2" class="cls-10" d="M182.85,564.49c0.14,7.88,4.94,11.15,10.78,11S204.15,572,204,564.11s-5.14-15.9-11-15.79S182.7,556.61,182.85,564.49Z" transform="translate(0.08 0.08)"/><path id="hardegg1" class="cls-11" d="M163.07,561.41c-1.14,7.8,3.06,11.8,8.84,12.65s11-1.79,12.09-9.58-2.49-16.52-8.27-17.37S164.21,553.61,163.07,561.41Z" transform="translate(0.08 0.08)"/></g><path id="mooneggbask" class="cls-12" d="M173.58,566.1c0,8.64,5.19,12.32,11.6,12.32s11.6-3.68,11.6-12.32-5.32-17.53-11.73-17.53S173.58,557.46,173.58,566.1Z" transform="translate(0.08 0.08)"/><path id="moonbask" class="cls-13" d="M185.56,568.88a6.8,6.8,0,0,1,2.26-10.93,6.61,6.61,0,1,0,1.68,13A6.78,6.78,0,0,1,185.56,568.88Z" transform="translate(0.08 0.08)"/><path class="cls-2" d="M160.17,555.67s-11,49.25,44.5,49.25,45.5-47.75,45.5-47.75C219.22,566.21,188.51,566.66,160.17,555.67Z" transform="translate(0.08 0.08)"/><path id="mid_cloud" data-name="mid cloud" class="cls-14" d="M339,75c0,8.28,10.52,15,23.5,15S386,83.28,386,75s-10.52-15-23.5-15S339,66.72,339,75ZM319.67,49.33A26.67,26.67,0,1,0,346.33,76,26.67,26.67,0,0,0,319.67,49.33Zm27.83,47c7.46,0,13.5-4,13.5-9s-6-9-13.5-9-13.5,4-13.5,9S340,96.33,347.5,96.33Zm-86.83-17c0,6.63,9.55,12,21.33,12s21.33-5.37,21.33-12-9.55-12-21.33-12S260.67,72.71,260.67,79.33Zm25.67-11.5c0,4.14,5.22,7.5,11.67,7.5s11.67-3.36,11.67-7.5-5.22-7.5-11.67-7.5S286.33,63.69,286.33,67.83Z" transform="translate(0.08 0.08)"/><path id="leftcloud" class="cls-14" d="M186.87,88.62c1.29,5.8,9.11,9,17.47,7.13s14.08-8.07,12.79-13.86-9.11-9-17.47-7.13S185.58,82.82,186.87,88.62ZM201,74c0,5.25,8.06,9.5,18,9.5s18-4.25,18-9.5-8.06-9.5-18-9.5S201,68.75,201,74Zm22,18.5c11.32,0,20.5-3,20.5-6.75S234.32,79,223,79s-20.5,3-20.5,6.75S211.68,92.5,223,92.5ZM161,81.75c0,2.9,8.28,5.25,18.5,5.25S198,84.65,198,81.75s-8.28-5.25-18.5-5.25S161,78.85,161,81.75Z" transform="translate(0.08 0.08)"/></g><path id="buttonn" class="cls-15" d="M319.13,588.24h0a12,12,0,0,1,12-12h30.19a12,12,0,0,1,12,12h0a12,12,0,0,1-12,12H331.13A12,12,0,0,1,319.13,588.24Z" transform="translate(0.08 0.08)"/><path id="resettext" class="cls-16" d="M338.29,591.78l-0.21-.16a2.6,2.6,0,0,1-.38.41,0.59,0.59,0,0,1-.38.12A0.45,0.45,0,0,1,337,592a0.93,0.93,0,0,1-.22-0.35,4.53,4.53,0,0,1-.18-0.66l-0.34-1.41a3.18,3.18,0,0,0-.35-1,1.58,1.58,0,0,0-.59-0.56,3.07,3.07,0,0,0-1-.31l-0.17,0a3.59,3.59,0,0,0,1.57-.58,2.54,2.54,0,0,0,.85-1,2.59,2.59,0,0,0,.25-1.09,2.1,2.1,0,0,0-.38-1.23,2.5,2.5,0,0,0-1.12-.86,4.74,4.74,0,0,0-1.83-.31h-2.08q-1.1,0-1.68,0V583a2.45,2.45,0,0,1,.72.11,0.52,0.52,0,0,1,.31.32,2.44,2.44,0,0,1,.08.75V591a2.44,2.44,0,0,1-.08.75,0.52,0.52,0,0,1-.31.32,2.45,2.45,0,0,1-.72.11v0.28q0.58,0,1.76,0t1.75,0v-0.28a2.44,2.44,0,0,1-.72-0.11,0.52,0.52,0,0,1-.31-0.32,2.44,2.44,0,0,1-.08-0.75v-3.17h1.31a1.27,1.27,0,0,1,.81.23,1.39,1.39,0,0,1,.44.62,8.88,8.88,0,0,1,.31,1.11l0.3,1.37a2.22,2.22,0,0,0,.55,1.17,1.33,1.33,0,0,0,.93.33,1.49,1.49,0,0,0,.83-0.21A2.51,2.51,0,0,0,338.29,591.78Zm-3.74-4.52a1.59,1.59,0,0,0,.73-0.79,3.18,3.18,0,0,0,.2-1.2,2.43,2.43,0,0,0-.54-1.71,2.3,2.3,0,0,0-1.75-.58,1.63,1.63,0,0,0-.65.1,0.54,0.54,0,0,0-.3.35,2.56,2.56,0,0,0-.08.74v3.39h0.93A3,3,0,0,0,334.55,587.26Zm10,3.55-0.28-.11a2.12,2.12,0,0,1-2,1.38,1.68,1.68,0,0,1-1-.36,2.55,2.55,0,0,1-.78-1,3.92,3.92,0,0,1-.3-1.59,7,7,0,0,1,0-.88h4.31a3.34,3.34,0,0,0-.67-2.28,2.42,2.42,0,0,0-1.91-.75,2.87,2.87,0,0,0-1.65.47,3.06,3.06,0,0,0-1.09,1.36,5.19,5.19,0,0,0-.38,2.08,4.39,4.39,0,0,0,.38,1.87,2.86,2.86,0,0,0,1.09,1.26,3.14,3.14,0,0,0,1.7.45,2.62,2.62,0,0,0,1.18-.26,2.71,2.71,0,0,0,.88-0.68A2.76,2.76,0,0,0,344.51,590.81Zm-1.5-4.13a2.08,2.08,0,0,0-.44-0.91,1,1,0,0,0-.75-0.34,1.26,1.26,0,0,0-.78.27,2.07,2.07,0,0,0-.6.83,4.39,4.39,0,0,0-.31,1.4h3A4.52,4.52,0,0,0,343,586.68Zm3.22,3.13h-0.32q0,2-.05,2.75h0.32c0.05-.35.15-0.52,0.28-0.52a0.17,0.17,0,0,1,.13.05,3.28,3.28,0,0,0,.57.37,2.87,2.87,0,0,0,1.09.2,3,3,0,0,0,1.18-.23,2,2,0,0,0,.86-0.66,1.71,1.71,0,0,0,.32-1,1.86,1.86,0,0,0-.24-0.95,2.7,2.7,0,0,0-.63-0.73,11.31,11.31,0,0,0-1-.73l-0.66-.42a4.68,4.68,0,0,1-.79-0.61,1.07,1.07,0,0,1-.33-0.8,1,1,0,0,1,.32-0.78,1.18,1.18,0,0,1,.81-0.28,1.51,1.51,0,0,1,1.29.59,3.41,3.41,0,0,1,.59,1.5h0.32q0-1.67.05-2.34H350c0,0.4-.15.61-0.31,0.61a0.44,0.44,0,0,1-.24-0.11,2.45,2.45,0,0,0-.63-0.35,2.33,2.33,0,0,0-.87-0.16,2.62,2.62,0,0,0-1,.2,1.66,1.66,0,0,0-.74.6,1.7,1.7,0,0,0-.28,1,1.72,1.72,0,0,0,.25.94,2.52,2.52,0,0,0,.61.67q0.36,0.28,1,.71t0.87,0.59a2.14,2.14,0,0,1,.5.54,1.23,1.23,0,0,1,.19.68,1.41,1.41,0,0,1-.18.76,1.09,1.09,0,0,1-.46.42,1.36,1.36,0,0,1-.58.13,1.64,1.64,0,0,1-1.05-.31,1.81,1.81,0,0,1-.58-0.86A7,7,0,0,1,346.23,589.8Zm11.4,1-0.28-.11a2.12,2.12,0,0,1-2,1.38,1.68,1.68,0,0,1-1-.36,2.55,2.55,0,0,1-.78-1,3.92,3.92,0,0,1-.3-1.59,7,7,0,0,1,0-.88h4.31a3.34,3.34,0,0,0-.67-2.28,2.42,2.42,0,0,0-1.91-.75,2.87,2.87,0,0,0-1.65.47,3.06,3.06,0,0,0-1.09,1.36,5.19,5.19,0,0,0-.38,2.08,4.39,4.39,0,0,0,.38,1.87,2.86,2.86,0,0,0,1.09,1.26,3.14,3.14,0,0,0,1.7.45,2.62,2.62,0,0,0,1.18-.26,2.71,2.71,0,0,0,.88-0.68A2.76,2.76,0,0,0,357.63,590.81Zm-1.5-4.13a2.08,2.08,0,0,0-.44-0.91,1,1,0,0,0-.75-0.34,1.26,1.26,0,0,0-.78.27,2.07,2.07,0,0,0-.6.83,4.39,4.39,0,0,0-.31,1.4h3A4.52,4.52,0,0,0,356.14,586.68Zm4.71-1.31v-2.3a3.88,3.88,0,0,1-1.24.2v2.11h-1.33v0.28h1.33v4.62a4.64,4.64,0,0,0,.12,1.19,1.68,1.68,0,0,0,.42.74,1.47,1.47,0,0,0,.54.35,2.25,2.25,0,0,0,.77.11q1.45,0,1.79-1.91l-0.27-.07a2.84,2.84,0,0,1-.51,1.13,1,1,0,0,1-.73.34,0.8,0.8,0,0,1-.66-0.27,1.43,1.43,0,0,1-.22-0.9v-5.34h2v-0.28h-2Z" transform="translate(0.08 0.08)"/><path id="moonegg" class="cls-12" d="M68.83,395.35c0,8.64,5.19,12.32,11.6,12.32S92,404,92,395.35s-5.32-17.53-11.73-17.53S68.83,386.71,68.83,395.35Z" transform="translate(0.08 0.08)"/><path id="mooninegg" class="cls-13" d="M80.81,398.13a6.8,6.8,0,0,1,2.26-10.93,6.61,6.61,0,1,0,1.68,13A6.78,6.78,0,0,1,80.81,398.13Z" transform="translate(0.08 0.08)"/><path class="cls-17" d="M792,612H0V0H792V612Z" transform="translate(0.08 0.08)"/><path class="cls-18" d="M792,612H0V0H792V612Z" transform="translate(0.08 0.08)"/><path id="egg_shape-2" data-name="egg shape" class="cls-19" d="M175.1,355.26c0,42.39,25.49,60.45,56.93,60.45S289,397.65,289,355.26s-26.13-86-57.57-86S175.1,312.87,175.1,355.26Z" transform="translate(0.08 0.08)"/><path d="M479.5,454.43V92.91H733.93V454.43H479.5Z" transform="translate(0.08 0.08)"/><path class="cls-14" d="M754.38,500.24H460a25.39,25.39,0,0,1-25.37-25.37V72.46A25.39,25.39,0,0,1,460,47.09H756.21a23.56,23.56,0,0,1,23.53,23.53V474.87A25.39,25.39,0,0,1,754.38,500.24Zm-274-45.81H733.93V92.91H480.41V454.43Z" transform="translate(0.08 0.08)"/><path id="onbut" class="cls-20" d="M594.17,481.25v-1a12,12,0,0,1,12-12h1a12,12,0,0,1,12,12v1a12,12,0,0,1-12,12h-1A12,12,0,0,1,594.17,481.25Z" transform="translate(0.08 0.08)"/><path class="cls-21" d="M615,65.25a2.25,2.25,0,1,1-2.25,2.25A2.25,2.25,0,0,1,615,65.25Z" transform="translate(0.08 0.08)"/><polygon class="cls-2" points="730.41 517.75 64.41 516.41 0.08 557.08 0.08 612.08 792.08 612.08 792.08 557.75 730.41 517.75"/><path id="grasses" class="cls-22" d="M189.46,416.44c-0.93.15-4.33,1.28-4.59-10.73,0-13.9-22-25.71-18.36-25.71s24.5,11.54,24.82,25.44C191,416.84,190.73,416.24,189.46,416.44Zm250.63,72.5c-0.32-13.9-13.21-52.69-14.71-52.69-1,.5,3.13,33.81,8.25,48.5,0.26,12,3.65,15.34,4.58,15.19C439.48,499.74,439.77,500.34,440.08,488.94ZM283.33,393.33c-0.26-17.49,15-28.83,14.29-29.58-2.95,0-19.46,12.43-19.46,29.92s2.92,13.68,3.67,13.5C282.85,406.92,283.6,411.13,283.33,393.33Zm494.35,92c-0.35-22.33,15-28.83,14.29-29.58-2.95,0-19.46,12.43-19.46,29.92s2.92,13.68,3.67,13.5C777.2,498.92,777.95,503.13,777.68,485.33Zm-579.31-85c0.17-3.92,3.28-9.58.33-9.58s-4.5,6.5-5.5,9.92c-4.91,16.78,2.92,13.68,3.67,13.5C197.23,414,197.33,414.08,198.37,400.29Zm79.75-4c-1.25-3.29-4.12-8-5.5-8-2.95,0,1.33,5,.33,8.38-4.91,16.78,2.92,13.68,3.67,13.5C277.64,409.87,277.37,414.07,278.12,396.29Zm497.33,93.33c-1.25-3.29-4.12-8-5.5-8-2.95,0,.79,6.17-0.21,9.58,1.88,7.38.79,12.92,4.21,12.29C775,503.21,775.13,501.83,775.46,489.63ZM445.54,491.5c-1.25-3.29-2.87-10.58-4.25-10.58-2.95,0,1.33,5,.33,8.38-4.91,16.78,2.92,13.68,3.67,13.5C446.31,502.54,443.92,495,445.54,491.5Z" transform="translate(0.08 0.08)"/><path id="het" class="cls-23" d="M400.65,598.23l-10-.2a12,12,0,0,1-11.75-12.24l0.2-10A12,12,0,0,1,391.35,564l10,0.2a12,12,0,0,1,11.75,12.24l-0.2,10A12,12,0,0,1,400.65,598.23Z" transform="translate(0.08 0.08)"/><path id="aroow" class="cls-24" d="M386.25,576.61a3.33,3.33,0,0,1,3.06-4.89l6.81,0.24,6.81,0.24a3.33,3.33,0,0,1,2.71,5.1L402,583.07l-3.61,5.78a3.33,3.33,0,0,1-5.77-.2l-3.2-6Z" transform="translate(0.08 0.08)"/><path id="toptext" class="cls-14" d="M482.67,97.33V93.75h0.47v3.58h-0.47Zm1.31,0V93.75h1.35a3.24,3.24,0,0,1,.54,0,1.08,1.08,0,0,1,.44.17,0.88,0.88,0,0,1,.29.35,1.17,1.17,0,0,1-.18,1.26,1.39,1.39,0,0,1-1,.32h-0.92v1.46H484Zm0.47-1.88h0.93a1,1,0,0,0,.65-0.17,0.61,0.61,0,0,0,.19-0.48,0.64,0.64,0,0,0-.11-0.38,0.53,0.53,0,0,0-.3-0.21,2,2,0,0,0-.44,0h-0.92v1.28ZM489,97a1.65,1.65,0,0,1-.47.29,1.36,1.36,0,0,1-.49.09,0.94,0.94,0,0,1-.66-0.21,0.69,0.69,0,0,1-.23-0.53,0.73,0.73,0,0,1,.31-0.6,1.08,1.08,0,0,1,.32-0.14l0.39-.07a4,4,0,0,0,.78-0.15c0-.06,0-0.1,0-0.11a0.49,0.49,0,0,0-.12-0.38,0.74,0.74,0,0,0-.5-0.15,0.77,0.77,0,0,0-.46.11,0.66,0.66,0,0,0-.22.38l-0.43-.06a1.06,1.06,0,0,1,.19-0.45,0.84,0.84,0,0,1,.39-0.26,1.72,1.72,0,0,1,.59-0.09,1.55,1.55,0,0,1,.54.08,0.72,0.72,0,0,1,.31.2,0.69,0.69,0,0,1,.14.3,2.46,2.46,0,0,1,0,.41v0.59a6.3,6.3,0,0,0,0,.77,1,1,0,0,0,.11.31H489A0.92,0.92,0,0,1,489,97Zm0-1a3.22,3.22,0,0,1-.72.17,1.64,1.64,0,0,0-.38.09,0.38,0.38,0,0,0-.17.14,0.39,0.39,0,0,0,.07.5,0.57,0.57,0,0,0,.39.12,0.91,0.91,0,0,0,.45-0.11,0.68,0.68,0,0,0,.29-0.3,1.07,1.07,0,0,0,.07-0.44V96Zm2.81,1.3V97a0.81,0.81,0,0,1-.72.39,1,1,0,0,1-.57-0.17,1.12,1.12,0,0,1-.4-0.48,1.66,1.66,0,0,1-.14-0.7,1.83,1.83,0,0,1,.13-0.7,1,1,0,0,1,.39-0.48,1,1,0,0,1,.58-0.17,0.86,0.86,0,0,1,.71.36V93.75h0.44v3.58h-0.41ZM490.34,96a1.13,1.13,0,0,0,.21.74,0.63,0.63,0,0,0,.5.25,0.62,0.62,0,0,0,.49-0.24,1.08,1.08,0,0,0,.2-0.72,1.22,1.22,0,0,0-.21-0.78A0.63,0.63,0,0,0,491,95a0.61,0.61,0,0,0-.49.24A1.18,1.18,0,0,0,490.34,96Zm3.77,0.8a0.73,0.73,0,1,0,.72-0.65A0.69,0.69,0,0,0,494.1,96.84Zm0.61-1.21a10.06,10.06,0,0,1,1.59.38,2.21,2.21,0,0,0-1.59-.78,2,2,0,0,0-1.5.72A11.83,11.83,0,0,1,494.72,95.63Zm-0.06-.94a21.34,21.34,0,0,1,2.31.56,3.82,3.82,0,0,0-2.09-1.17c-0.81,0-2.42.88-2.34,1.29A10.81,10.81,0,0,1,494.66,94.69Zm210.12,3.23h-0.44v-2.8a2.3,2.3,0,0,1-.42.3,2.92,2.92,0,0,1-.46.23V95.22a2.68,2.68,0,0,0,.64-0.42,1.67,1.67,0,0,0,.39-0.48h0.28v3.59Zm1.12-1.77a3.28,3.28,0,0,1,.13-1,1.27,1.27,0,0,1,.39-0.6,1,1,0,0,1,.65-0.21,1.05,1.05,0,0,1,.5.12,1,1,0,0,1,.36.33,1.79,1.79,0,0,1,.22.53,3.54,3.54,0,0,1,.08.85,3.3,3.3,0,0,1-.13,1,1.27,1.27,0,0,1-.39.6,1.09,1.09,0,0,1-1.46-.16A2.36,2.36,0,0,1,705.9,96.15Zm0.45,0a2.25,2.25,0,0,0,.21,1.17,0.59,0.59,0,0,0,1,0,3.44,3.44,0,0,0,0-2.35,0.61,0.61,0,0,0-.51-0.29,0.56,0.56,0,0,0-.48.26A2.26,2.26,0,0,0,706.36,96.15Zm2.33,0a3.28,3.28,0,0,1,.13-1,1.27,1.27,0,0,1,.39-0.6,1,1,0,0,1,.65-0.21,1.05,1.05,0,0,1,.5.12,1,1,0,0,1,.36.33,1.79,1.79,0,0,1,.22.53,3.54,3.54,0,0,1,.08.85,3.3,3.3,0,0,1-.13,1,1.27,1.27,0,0,1-.39.6,1.09,1.09,0,0,1-1.46-.16A2.36,2.36,0,0,1,708.69,96.15Zm0.45,0a2.25,2.25,0,0,0,.21,1.17,0.59,0.59,0,0,0,1,0,3.44,3.44,0,0,0,0-2.35,0.61,0.61,0,0,0-.51-0.29,0.56,0.56,0,0,0-.48.26A2.26,2.26,0,0,0,709.14,96.15Zm2.41-1a1.09,1.09,0,0,1,.19-0.65,0.65,0.65,0,0,1,.56-0.27,0.72,0.72,0,0,1,.56.24,1.22,1.22,0,0,1,0,1.41,0.72,0.72,0,0,1-.55.25,0.69,0.69,0,0,1-.54-0.24A1.06,1.06,0,0,1,711.55,95.2Zm0.76-.62a0.33,0.33,0,0,0-.27.14,0.9,0.9,0,0,0-.11.52,0.81,0.81,0,0,0,.11.48,0.33,0.33,0,0,0,.55,0,0.89,0.89,0,0,0,.11-0.52,0.81,0.81,0,0,0-.11-0.49A0.33,0.33,0,0,0,712.31,94.58Zm0,3.47,2-3.77h0.36l-2,3.77h-0.36Zm1.55-1a1.09,1.09,0,0,1,.19-0.65,0.65,0.65,0,0,1,.56-0.27,0.72,0.72,0,0,1,.56.24,1.22,1.22,0,0,1,0,1.41,0.72,0.72,0,0,1-.55.25,0.69,0.69,0,0,1-.54-0.24A1.06,1.06,0,0,1,713.87,97.08Zm0.77-.62a0.33,0.33,0,0,0-.27.14,0.9,0.9,0,0,0-.11.52,0.81,0.81,0,0,0,.11.48,0.34,0.34,0,0,0,.55,0,0.89,0.89,0,0,0,.11-0.52,0.81,0.81,0,0,0-.11-0.49A0.33,0.33,0,0,0,714.63,96.46Zm12.59-.33a0.81,0.81,0,0,1,.9-0.65h0v-1h-9.4v3.42h9.4V96.78h0A0.81,0.81,0,0,1,727.22,96.13Zm1.76-.65h-0.81v1.3H729a0.52,0.52,0,0,0,.59-0.63A0.55,0.55,0,0,0,729,95.48ZM606.7,98h-0.44V95.2a2.3,2.3,0,0,1-.42.3,2.92,2.92,0,0,1-.46.23V95.3a2.68,2.68,0,0,0,.64-0.42,1.67,1.67,0,0,0,.39-0.48h0.28V98Zm2.41,0h-0.44V95.2a2.3,2.3,0,0,1-.42.3,2.92,2.92,0,0,1-.46.23V95.3a2.68,2.68,0,0,0,.64-0.42,1.67,1.67,0,0,0,.39-0.48h0.28V98Zm1.37-2.09v-0.5H611v0.5h-0.5Zm0,2.09V97.5H611V98h-0.5Zm1.14-.94,0.46,0a0.83,0.83,0,0,0,.24.51,0.65,0.65,0,0,0,.45.17,0.7,0.7,0,0,0,.54-0.24,0.9,0.9,0,0,0,.22-0.63,0.82,0.82,0,0,0-.21-0.59,0.74,0.74,0,0,0-.55-0.22,0.77,0.77,0,0,0-.38.1,0.75,0.75,0,0,0-.27.25l-0.41-.05L612,94.47h1.78v0.42H612.4l-0.19,1a1.16,1.16,0,0,1,.68-0.22,1.07,1.07,0,0,1,.79.32,1.13,1.13,0,0,1,.32.83,1.3,1.3,0,0,1-.28.84,1.13,1.13,0,0,1-.94.43,1.16,1.16,0,0,1-.8-0.27A1.07,1.07,0,0,1,611.62,97.06Zm2.85,0.11,0.42,0a0.74,0.74,0,0,0,.21.43,0.57,0.57,0,0,0,.39.13,0.67,0.67,0,0,0,.36-0.09,0.77,0.77,0,0,0,.25-0.25,1.48,1.48,0,0,0,.16-0.42,2.26,2.26,0,0,0,.07-0.54s0,0,0-.09a1,1,0,0,1-.36.34,1,1,0,0,1-.49.13,1,1,0,0,1-.75-0.32,1.18,1.18,0,0,1-.31-0.85,1.21,1.21,0,0,1,.32-0.88,1.07,1.07,0,0,1,.8-0.33,1.15,1.15,0,0,1,.64.19,1.18,1.18,0,0,1,.44.54,2.65,2.65,0,0,1,.15,1,3.25,3.25,0,0,1-.15,1.09,1.28,1.28,0,0,1-.44.62,1.15,1.15,0,0,1-.69.21A0.95,0.95,0,0,1,614.47,97.17Zm1.8-1.58a0.86,0.86,0,0,0-.2-0.6,0.63,0.63,0,0,0-.48-0.22,0.67,0.67,0,0,0-.51.24,0.88,0.88,0,0,0-.22.62,0.76,0.76,0,0,0,.21.56,0.68,0.68,0,0,0,.51.21,0.65,0.65,0,0,0,.5-0.21A0.84,0.84,0,0,0,616.27,95.59ZM618.75,98V94.42h1.35a3.24,3.24,0,0,1,.54,0,1.08,1.08,0,0,1,.44.17,0.88,0.88,0,0,1,.29.35,1.17,1.17,0,0,1-.18,1.26,1.39,1.39,0,0,1-1,.32h-0.92V98h-0.47Zm0.47-1.88h0.93A1,1,0,0,0,620.8,96a0.61,0.61,0,0,0,.19-0.48,0.64,0.64,0,0,0-.11-0.38,0.53,0.53,0,0,0-.3-0.21,2,2,0,0,0-.44,0h-0.92v1.28ZM622.07,98V94.42h0.71L623.63,97l0.17,0.53,0.19-.57,0.86-2.49h0.64V98H625V95l-1,3h-0.43l-1-3v3h-0.46Z" transform="translate(0.08 0.08)"/><path id="rekt" class="cls-25" d="M480.41,415H733.67v39.43H480.41V415Z" transform="translate(0.08 0.08)"/><rect id="app2" class="cls-26" x="517.58" y="124.75" width="25.83" height="25.83" rx="9.08" ry="9.08"/><path id="eggmakertext" class="cls-14" d="M516.85,157.21v-4.29H520v0.51h-2.54v1.32h2.38v0.5h-2.38v1.46h2.64v0.51h-3.21Zm3.83,0.26,0.51,0.08a0.49,0.49,0,0,0,.18.35,0.88,0.88,0,0,0,.54.15,0.94,0.94,0,0,0,.57-0.15,0.72,0.72,0,0,0,.27-0.41,3.37,3.37,0,0,0,0-.68,1.08,1.08,0,0,1-.86.41,1.17,1.17,0,0,1-1-.46,1.78,1.78,0,0,1-.35-1.11,2.07,2.07,0,0,1,.16-0.82,1.28,1.28,0,0,1,.47-0.58,1.26,1.26,0,0,1,.72-0.21,1.12,1.12,0,0,1,.91.45V154.1h0.49v2.69a2.55,2.55,0,0,1-.15,1,1.08,1.08,0,0,1-.47.48,1.62,1.62,0,0,1-.79.18,1.49,1.49,0,0,1-.9-0.25A0.85,0.85,0,0,1,520.68,157.47Zm0.44-1.87a1.35,1.35,0,0,0,.24.89,0.8,0.8,0,0,0,1.22,0,1.31,1.31,0,0,0,.25-0.88,1.28,1.28,0,0,0-.25-0.86,0.78,0.78,0,0,0-.61-0.29,0.76,0.76,0,0,0-.6.29A1.27,1.27,0,0,0,521.11,155.6Zm2.9,1.87,0.51,0.08a0.49,0.49,0,0,0,.18.35,0.88,0.88,0,0,0,.54.15,0.94,0.94,0,0,0,.57-0.15,0.72,0.72,0,0,0,.27-0.41,3.37,3.37,0,0,0,0-.68,1.08,1.08,0,0,1-.86.41,1.17,1.17,0,0,1-1-.46,1.78,1.78,0,0,1-.35-1.11,2.07,2.07,0,0,1,.16-0.82,1.28,1.28,0,0,1,.47-0.58,1.26,1.26,0,0,1,.72-0.21,1.12,1.12,0,0,1,.91.45V154.1h0.49v2.69a2.55,2.55,0,0,1-.15,1,1.08,1.08,0,0,1-.47.48,1.62,1.62,0,0,1-.79.18,1.49,1.49,0,0,1-.9-0.25A0.85,0.85,0,0,1,524,157.47Zm0.44-1.87a1.35,1.35,0,0,0,.24.89,0.8,0.8,0,0,0,1.22,0,1.31,1.31,0,0,0,.25-0.88,1.28,1.28,0,0,0-.25-0.86,0.78,0.78,0,0,0-.61-0.29,0.76,0.76,0,0,0-.6.29A1.27,1.27,0,0,0,524.45,155.6Zm4.71,1.61v-4.29H530l1,3,0.21,0.64,0.23-.69,1-3h0.76v4.29h-0.55v-3.59l-1.25,3.59H531l-1.24-3.66v3.66h-0.55Zm7-.38a2,2,0,0,1-.56.35,1.63,1.63,0,0,1-.58.1,1.13,1.13,0,0,1-.79-0.25,0.83,0.83,0,0,1-.28-0.64,0.86,0.86,0,0,1,.38-0.72,1.27,1.27,0,0,1,.38-0.17l0.47-.08a4.82,4.82,0,0,0,.94-0.18q0-.11,0-0.14a0.58,0.58,0,0,0-.15-0.45,0.88,0.88,0,0,0-.6-0.18,0.93,0.93,0,0,0-.55.13,0.79,0.79,0,0,0-.26.46L534,155a1.28,1.28,0,0,1,.23-0.53,1,1,0,0,1,.47-0.31,2.08,2.08,0,0,1,.71-0.11,1.87,1.87,0,0,1,.65.09,0.85,0.85,0,0,1,.37.24,0.83,0.83,0,0,1,.16.36,3,3,0,0,1,0,.49v0.7a7.23,7.23,0,0,0,0,.93,1.15,1.15,0,0,0,.13.37h-0.55A1.12,1.12,0,0,1,536.14,156.82Zm0-1.18a3.87,3.87,0,0,1-.86.2,2,2,0,0,0-.46.11,0.46,0.46,0,0,0-.21.17,0.47,0.47,0,0,0,.09.6,0.68,0.68,0,0,0,.47.14,1.09,1.09,0,0,0,.54-0.13,0.82,0.82,0,0,0,.35-0.36,1.27,1.27,0,0,0,.08-0.53v-0.19Zm1.35,1.56v-4.29H538v2.45l1.25-1.27h0.68l-1.19,1.15,1.31,2h-0.65l-1-1.59L538,156v1.23h-0.53Zm5.13-1,0.54,0.07a1.33,1.33,0,0,1-.48.74,1.62,1.62,0,0,1-2-.16,1.65,1.65,0,0,1-.4-1.18,1.72,1.72,0,0,1,.4-1.22,1.37,1.37,0,0,1,1-.43,1.33,1.33,0,0,1,1,.42,1.69,1.69,0,0,1,.4,1.2s0,0.08,0,.14h-2.32a1.2,1.2,0,0,0,.29.79,0.86,0.86,0,0,0,.65.27,0.81,0.81,0,0,0,.5-0.15A1,1,0,0,0,542.58,156.21Zm-1.73-.85h1.74a1.05,1.05,0,0,0-.2-0.59,0.81,0.81,0,0,0-.65-0.3,0.84,0.84,0,0,0-.61.24A1,1,0,0,0,540.85,155.35Zm2.93,1.85V154.1h0.47v0.47a1.3,1.3,0,0,1,.33-0.44,0.59,0.59,0,0,1,.34-0.11,1,1,0,0,1,.54.17l-0.18.49a0.75,0.75,0,0,0-.39-0.11,0.5,0.5,0,0,0-.31.1,0.56,0.56,0,0,0-.2.29,2.05,2.05,0,0,0-.09.62v1.63h-0.53Z" transform="translate(0.08 0.08)"/><path id="egg_shape-3" data-name="egg shape" class="cls-27" d="M522.74,138.9c0,6,3.6,8.55,8.05,8.55s8.05-2.55,8.05-8.55-3.7-12.17-8.14-12.17S522.74,132.91,522.74,138.9Z" transform="translate(0.08 0.08)"/><path id="homebut" class="cls-20" d="M594.17,481.25v-1a12,12,0,0,1,12-12h1a12,12,0,0,1,12,12v1a12,12,0,0,1-12,12h-1A12,12,0,0,1,594.17,481.25Z" transform="translate(0.08 0.08)"/><path id="backeggmaker" class="cls-28" d="M733.93,454.43H480.5V100.82H733.93V454.43Z" transform="translate(0.08 0.08)"/><path id="toprightbg" class="cls-29" d="M609.11,271V121.67a12,12,0,0,1,12-12h96.46a12,12,0,0,1,12,12V271a12,12,0,0,1-12,12H621.11A12,12,0,0,1,609.11,271Z" transform="translate(0.08 0.08)"/><path id="egginigame" class="cls-30" d="M612.4,208.78c0,42.39,25.49,60.45,56.93,60.45s56.93-18.06,56.93-60.45-26.13-86-57.57-86S612.4,166.38,612.4,208.78Z" transform="translate(0.08 0.08)"/><path id="eggchoice" class="cls-31" d="M516.75,401.83c0,18.28,11,26.06,24.54,26.06s24.54-7.78,24.54-26.06S554.57,364.74,541,364.74,516.75,383.56,516.75,401.83Z" transform="translate(0.08 0.08)"/><path id="egginegg" class="cls-32" d="M644.75,235.83c0,18.28,11,26.06,24.54,26.06s24.54-7.78,24.54-26.06S682.57,198.74,669,198.74,644.75,217.56,644.75,235.83Z" transform="translate(0.08 0.08)"/><path id="yellow" class="cls-29" d="M523.51,149.83H507.35a12,12,0,0,1-12-12V121.67a12,12,0,0,1,12-12h16.16a12,12,0,0,1,12,12v16.16A12,12,0,0,1,523.51,149.83Z" transform="translate(0.08 0.08)"/><path id="blue" class="cls-29" d="M585.39,149.83H569.23a12,12,0,0,1-12-12V121.67a12,12,0,0,1,12-12h16.16a12,12,0,0,1,12,12v16.16A12,12,0,0,1,585.39,149.83Z" transform="translate(0.08 0.08)"/><path id="pink" class="cls-29" d="M585.39,196.33H569.23a12,12,0,0,1-12-12V168.17a12,12,0,0,1,12-12h16.16a12,12,0,0,1,12,12v16.16A12,12,0,0,1,585.39,196.33Z" transform="translate(0.08 0.08)"/><path id="red" class="cls-29" d="M523.51,196.33H507.35a12,12,0,0,1-12-12V168.17a12,12,0,0,1,12-12h16.16a12,12,0,0,1,12,12v16.16A12,12,0,0,1,523.51,196.33Z" transform="translate(0.08 0.08)"/><path id="egg_top_thing" data-name="egg top thing" class="cls-33" d="M623.55,160c0,3.5,11.29,1,20,8.4,8.26-6.87,16.08-8.4,25.54-8.4,8.95,0,16.84-.8,26.76,8.53,8.93-9.36,18.83-4.92,18.83-8.53,0-5.6-20.41-10.14-45.59-10.14S623.55,154.37,623.55,160Z" transform="translate(0.08 0.08)"/><path id="topthing" class="cls-34" d="M496.29,223c0,3.5,11.28,1,20,8.4,8.25-6.87,16.06-8.4,25.52-8.4,8.94,0,16.82-.8,26.73,8.53,8.92-9.36,18.82-4.92,18.82-8.53,0-5.6-20.39-10.14-45.55-10.14S496.29,217.37,496.29,223Z" transform="translate(0.08 0.08)"/><path id="toptri" class="cls-35" d="M510.39,269.72l-10.4-18h20.8Zm31.27-18h-20.8l10.4,18Zm20.63,0H541.5l10.4,18Zm20.92,0h-20.8l10.4,18Z" transform="translate(0.08 0.08)"/><path id="toptriegg" class="cls-36" d="M637.7,170.55l-10.45-18.1h20.9Zm31.43-18.1h-20.9l10.45,18.1Zm20.73,0H669l10.45,18.1Zm21,0H690l10.45,18.1Z" transform="translate(0.08 0.08)"/><path id="clove" class="cls-37" d="M542.17,316.83c0,77.19,77.19,0,0,0s0,77.19,0,0-77.19,0,0,0S542.17,239.64,542.17,316.83Z" transform="translate(0.08 0.08)"/><path id="cloveonegg" class="cls-38" d="M669.33,230.17c0,49.44,49.44,0,0,0s0,49.44,0,0-49.44,0,0,0S669.33,180.73,669.33,230.17Z" transform="translate(0.08 0.08)"/><path id="reset" class="cls-39" d="M712.33,363.42c0,14.31-19.25,25.92-43,25.92s-43-11.6-43-25.92,19.25-25.92,43-25.92S712.33,349.1,712.33,363.42Z" transform="translate(0.08 0.08)"/></svg>