<svg id="basket" xmlns="http://www.w3.org/2000/svg" xmlns:xlink="http://www.w3.org/1999/xlink" viewBox="0 0 792 612"><defs><style>.cls-1{fill:#9be7d8;}.cls-2{fill:#47a141;}.cls-22,.cls-3,.cls-6{fill:#63a70a;}.cls-4{fill:none;}.cls-4,.cls-6{stroke:#4a7628;}.cls-10,.cls-13,.cls-16,.cls-17,.cls-19,.cls-20,.cls-21,.cls-22,.cls-23,.cls-25,.cls-26,.cls-27,.cls-34,.cls-4,.cls-6{stroke-miterlimit:10;}.cls-5{fill:#011906;}.cls-7{fill:#ff9700;}.cls-8{fill:#5d6135;}.cls-9{fill:#949a90;}.cls-10,.cls-13,.cls-16,.cls-17{fill:#6cc04a;stroke:#47a141;}.cls-10{stroke-width:1.02px;}.cls-11{fill:#b34fc5;}.cls-12{fill:#ff7175;}.cls-13{stroke-width:0.72px;}.cls-14,.cls-19,.cls-20,.cls-21,.cls-23,.cls-25,.cls-26,.cls-27,.cls-34{fill:#fff;}.cls-15{fill:#e7417a;}.cls-16{stroke-width:1.07px;}.cls-17{stroke-width:1.28px;}.cls-18{fill:#ff4338;}.cls-19,.cls-20,.cls-21,.cls-23,.cls-25,.cls-26,.cls-27,.cls-34{stroke:#000;}.cls-19{stroke-width:0.12px;}.cls-20{stroke-width:0.16px;}.cls-21{stroke-width:0.13px;}.cls-22{stroke:#4e9d2d;stroke-width:1.99px;}.cls-23{stroke-width:0.57px;}.cls-24{fill:#846b2c;}.cls-25{stroke-width:0.12px;}.cls-26{stroke-width:0.13px;}.cls-27{stroke-width:0.11px;}.cls-28{fill:url(#linear-gradient);}.cls-29{fill:url(#linear-gradient-2);}.cls-30{fill:url(#linear-gradient-3);}.cls-31{fill:url(#linear-gradient-4);}.cls-32{fill:url(#linear-gradient-5);}.cls-33{fill:url(#linear-gradient-6);}.cls-34{stroke-width:0.16px;}.cls-35{fill:#c62c2c;}.cls-36{fill-rule:evenodd;}</style><linearGradient id="linear-gradient" x1="287.05" y1="611.94" x2="308.26" y2="611.94" gradientTransform="translate(-18.79 -68.68) rotate(3.34)" gradientUnits="userSpaceOnUse"><stop offset="0.01" stop-color="#fbc926"/><stop offset="0.25" stop-color="#fffbcc"/><stop offset="0.3" stop-color="#f8f0bb"/><stop offset="0.4" stop-color="#e8d390"/><stop offset="0.5" stop-color="#d5b25e"/><stop offset="0.6" stop-color="#c3922e"/><stop offset="0.87" stop-color="#eed688"/><stop offset="1" stop-color="#fffbcc"/></linearGradient><linearGradient id="linear-gradient-2" x1="282.99" y1="613.85" x2="304.2" y2="613.85" xlink:href="#linear-gradient"/><linearGradient id="linear-gradient-3" x1="268.62" y1="615.72" x2="289.83" y2="615.72" xlink:href="#linear-gradient"/><linearGradient id="linear-gradient-4" x1="256.24" y1="618.12" x2="277.45" y2="618.12" gradientTransform="translate(-111.68 -27.12) rotate(-5.34)" xlink:href="#linear-gradient"/><linearGradient id="linear-gradient-5" x1="241.45" y1="615.09" x2="262.66" y2="615.09" gradientTransform="translate(-66.59 -48.56) rotate(-1.04)" xlink:href="#linear-gradient"/><linearGradient id="linear-gradient-6" x1="222.12" y1="613.91" x2="243.33" y2="613.91" gradientTransform="translate(35.64 -80.09) rotate(8.32)" xlink:href="#linear-gradient"/></defs><title>easterecard</title><path class="cls-1" d="M0,0H792V183.67H0V0Z"/><path id="grass" class="cls-2" d="M0,352.33H792V612H0V352.33Z"/><path id="hedges" class="cls-3" d="M0,352.17V159.31A38.82,38.82,0,0,1,38.71,120.6h72.59A38.82,38.82,0,0,1,150,159.31V352.17c0,1.56-2.28,2.83-3.83,2.83H2.83A2.84,2.84,0,0,1,0,352.17Zm149.31,0V184.48A38.82,38.82,0,0,1,188,145.77H260.6a38.82,38.82,0,0,1,38.71,38.71V352.17c0,1.56-2.27,2.83-3.83,2.83H152.14A2.84,2.84,0,0,1,149.31,352.17Zm149.31,0V159.31a38.82,38.82,0,0,1,38.71-38.71H409.9a38.82,38.82,0,0,1,38.71,38.71V352.17c0,1.56-2.27,2.83-3.83,2.83H301.44A2.84,2.84,0,0,1,298.61,352.17Zm149.31,0V184.48a38.82,38.82,0,0,1,38.71-38.71h72.59a38.82,38.82,0,0,1,38.71,38.71V352.17c0,1.56-2.27,2.83-3.83,2.83H450.75A2.84,2.84,0,0,1,447.92,352.17Zm149.31,0V151.58a38.82,38.82,0,0,1,38.71-38.71H753.29A38.82,38.82,0,0,1,792,151.58V352.17a2.84,2.84,0,0,1-2.83,2.83H600.05A2.84,2.84,0,0,1,597.22,352.17Z"/><path id="leaveshedge" class="cls-4" d="M359.35,197.42A9.33,9.33,0,0,1,377,201.67m-13.33,3.67a9.33,9.33,0,0,0-18.67,0m47.33-1a11,11,0,0,0-17.79-8.66M93,237a9.5,9.5,0,0,1,19,0m-17.67-5.08a6.07,6.07,0,0,0-3-.54c-5.25,0-9.71,3.29-9.71,8.54M134.25,241a16.75,16.75,0,0,0-27.69-12.68M86.63,249.75a12,12,0,0,0-24,0M503.7,317.42a9.5,9.5,0,0,1,17.63,4.91m-11.13,3.88a9.5,9.5,0,0,0-19-.83m52.34,1a16.75,16.75,0,0,0-27.82-12.57M496,335.08a12,12,0,0,0-24,0M251.43,316.9a6.67,6.67,0,0,1,11.11-1.06m-2.54,7.5a6.67,6.67,0,0,0-13.33,0m37-5.18A11.33,11.33,0,0,0,261.33,321m38,6a10.33,10.33,0,0,0-20.67,0m457.67-67a7,7,0,0,1,14,0m13.33,6.5a8.84,8.84,0,0,0-13.5-7.5m33.5,6.33a12,12,0,0,0-22.83-5.17m-286.62-9.1A12,12,0,0,1,496.53,253m23.27-4.48a14.33,14.33,0,0,0-24.47,10.14m28.67,0M480.67,257a6,6,0,0,0-12,0m62.3-8.91a7,7,0,0,0-12.3,4.57m32.33,2a11,11,0,1,0-22,0m88.21-66.27a12,12,0,0,1,22.32,1.95m23.27-4.48A14.33,14.33,0,0,0,638.33,196M667,196m-43.33-1.67a6,6,0,0,0-12,0m62.3-8.91a7,7,0,0,0-12.3,4.57M694,192a11,11,0,0,0-22,0"/><path id="hidden" class="cls-5" d="M725.33,354.83c-5.79,3,11.23,2.67,24.17,2.67,9.94,0,18.68.39,22.72,0.35a1.36,1.36,0,0,0,1.17-2c-3.7-6.56-13.16-24.93-20.39-20.15C746.59,339.9,730.72,352,725.33,354.83Z"/><path id="bottombush" class="cls-6" d="M785.5,344.75a11.25,11.25,0,1,1-21.39-4.88m10.14-6.37a11.37,11.37,0,0,0-1.26.07M752.5,329.5a10.5,10.5,0,0,0,21,0M735.25,331a9.5,9.5,0,0,0,18.4,3.34m-16.77,5.41a6.25,6.25,0,0,0,12.5,0M720.25,343a8.5,8.5,0,0,0,17,0m-20.5,4.5a9.75,9.75,0,0,0,19.5,0"/><path class="cls-7" d="M49.67,24.33A31.33,31.33,0,1,1,18.33,55.67,31.33,31.33,0,0,1,49.67,24.33Z"/><path class="cls-8" d="M149,391.67c0,20.43-51.64,37-115.33,37-11.71,0-23-.56-33.67-1.6V356.27c10.65-1,22-1.6,33.67-1.6C97.36,354.67,149,371.23,149,391.67Z"/><path id="rocks" class="cls-9" d="M110.33,432l18.33,1.67a12,12,0,0,0,12-12v-1.33c0-5.83-3.69-10.46-9.1-11.47a9.43,9.43,0,0,0-3.56.06l-13.67,2.73c-6.6,0-12.67,2.07-12.67,8.67v1.33C101.67,428.27,103.73,432,110.33,432ZM140,419.5l18.33,1.67a12,12,0,0,0,12-12v-1.33c0-5.83.24-7.16-5.17-8.17-1.18-.22-6.33-3.47-7.5-3.23L144,399.17c-6.6,0-12.67,2.07-12.67,8.67v1.33C131.33,415.77,133.4,419.5,140,419.5Zm14.42-14.25,18.33,1.67a12,12,0,0,0,12-12v-1.33c0-5.83.24-7.16-5.17-8.17-1.18-.22-8.16-2.73-9.33-2.5l-11.83,2c-6.6,0-12.67,2.07-12.67,8.67v1.33C145.75,401.52,147.82,405.25,154.42,405.25Zm-5.5-10.75,18.33,1.67a12,12,0,0,0,12-12v-1.33c0-5.83.24-7.16-5.17-8.17-1.18-.22-8.16-2.73-9.33-2.5l-11.83,2c-6.6,0-12.67,2.07-12.67,8.67v1.33C140.25,390.77,142.32,394.5,148.92,394.5Zm-14.25-14.83L153,381.33a12,12,0,0,0,12-12V368c0-5.83.24-7.16-5.17-8.17-1.18-.22-8.16-2.73-9.33-2.5l-11.83,2c-6.6,0-12.67,2.07-12.67,8.67v1.33C126,375.93,128.07,379.67,134.67,379.67Zm-24-7L129,374.33a12,12,0,0,0,12-12V361c0-5.83.24-7.16-5.17-8.17-1.18-.22-8.16-2.73-9.33-2.5l-17.67,2c-6.6,0-6.83,2.07-6.83,8.67v1.33C102,368.93,104.07,372.67,110.67,372.67ZM76.5,364.5l18.33,1.67a12,12,0,0,0,12-12v-1.33c0-5.83.24-7.16-5.17-8.17-1.18-.22-8.16-2.73-9.33-2.5l-17.67,2c-6.6,0-6.83,2.07-6.83,8.67v1.33C67.83,360.77,69.9,364.5,76.5,364.5Zm-36.33-6.17L58.5,360a12,12,0,0,0,12-12v-1.33c0-5.83.24-7.16-5.17-8.17-1.18-.22-8.16-2.73-9.33-2.5l-17.67,2c-6.6,0-6.83,2.07-6.83,8.67V348C31.5,354.6,33.57,358.33,40.17,358.33Zm-31.5,2.75L27,362.75a12,12,0,0,0,12-12v-1.33c0-5.83.24-7.16-5.17-8.17-1.18-.22-8.16-2.73-9.33-2.5l-17.67,2c-6.6,0-6.83,2.07-6.83,8.67v1.33C0,357.35,2.07,361.08,8.67,361.08ZM86.5,440.5l18.33,1.67a12,12,0,0,0,12-12v-1.33c0-5.83-3.69-10.46-9.1-11.47a9.43,9.43,0,0,0-3.56.06L90.5,420.17c-6.6,0-12.67,2.07-12.67,8.67v1.33C77.83,436.77,79.9,440.5,86.5,440.5ZM51.17,445l18.33,1.67a12,12,0,0,0,12-12v-1.33c0-5.83-3.69-10.46-9.1-11.47a9.43,9.43,0,0,0-3.56.06l-13.67,2.73c-6.6,0-12.67,2.07-12.67,8.67v1.33C42.5,441.27,44.57,445,51.17,445Zm-28.5,5.17L41,451.83a12,12,0,0,0,12-12V438.5c0-5.83-3.69-10.46-9.1-11.47a9.43,9.43,0,0,0-3.56.06l-13.67,2.73c-6.6,0-12.67,2.07-12.67,8.67v1.33C14,446.43,16.07,450.17,22.67,450.17Zm-14-6.67L27,445.17a12,12,0,0,0,12-12v-1.33c0-5.83-3.69-10.46-9.1-11.47a9.43,9.43,0,0,0-3.56.06l-13.67,2.73c-6.6,0-12.67,2.07-12.67,8.67v1.33C0,439.77,2.07,443.5,8.67,443.5Z"/><path id="stem1" class="cls-10" d="M59.67,323.5h4.67v68.83H59.67V323.5Z"/><path id="pet1" class="cls-11" d="M56.35,315l-2.15-3.89a2.59,2.59,0,0,1,1-3.51h0a2.59,2.59,0,0,1,3.51,1l2.15,3.89a2.59,2.59,0,0,1-1,3.51h0A2.59,2.59,0,0,1,56.35,315ZM58,319.6h0A2.57,2.57,0,0,0,55.48,317L51,316.92a2.6,2.6,0,0,0-2.63,2.53h0a2.57,2.57,0,0,0,2.52,2.61l4.49,0.07A2.6,2.6,0,0,0,58,319.6ZM60.14,323h0a2.6,2.6,0,0,0-3.54.88l-2.33,3.84a2.57,2.57,0,0,0,.87,3.53h0a2.6,2.6,0,0,0,3.54-.88L61,326.49A2.57,2.57,0,0,0,60.14,323Zm4-.18h0a2.59,2.59,0,0,0-1,3.51l2.15,3.89a2.59,2.59,0,0,0,3.51,1h0a2.59,2.59,0,0,0,1-3.51l-2.15-3.89A2.59,2.59,0,0,0,64.14,322.78ZM66,319.23h0a2.57,2.57,0,0,0,2.52,2.61L73,321.92a2.6,2.6,0,0,0,2.63-2.53h0a2.57,2.57,0,0,0-2.52-2.61l-4.49-.07A2.6,2.6,0,0,0,66,319.23Zm-2.14-3.36h0A2.6,2.6,0,0,0,67.4,315l2.33-3.84a2.57,2.57,0,0,0-.87-3.53h0a2.6,2.6,0,0,0-3.54.88L63,312.35A2.57,2.57,0,0,0,63.86,315.87Z"/><path id="corolla1" class="cls-12" d="M59.37,315a5.63,5.63,0,1,1-2.24,7.67A5.65,5.65,0,0,1,59.37,315Z"/><path id="pet2" class="cls-13" d="M28.35,349.33h3.3v49.25h-3.3V349.33Z"/><path id="pet3" class="cls-14" d="M26,343.94l-1.52-2.75a1.83,1.83,0,0,1,.72-2.48h0a1.83,1.83,0,0,1,2.48.72l1.52,2.75a1.83,1.83,0,0,1-.72,2.48h0A1.83,1.83,0,0,1,26,343.94Zm1.17,3.22h0a1.81,1.81,0,0,0-1.78-1.85l-3.18-.05a1.84,1.84,0,0,0-1.86,1.79h0a1.81,1.81,0,0,0,1.78,1.85L25.31,349A1.84,1.84,0,0,0,27.17,347.16Zm1.51,2.37h0a1.84,1.84,0,0,0-2.5.62l-1.65,2.72a1.81,1.81,0,0,0,.61,2.49h0a1.84,1.84,0,0,0,2.5-.62L29.3,352A1.81,1.81,0,0,0,28.69,349.54Zm2.83-.13h0a1.83,1.83,0,0,0-.72,2.48l1.52,2.75a1.83,1.83,0,0,0,2.48.72h0a1.83,1.83,0,0,0,.72-2.48L34,350.12A1.83,1.83,0,0,0,31.51,349.41Zm1.31-2.5h0a1.81,1.81,0,0,0,1.78,1.85l3.18,0.05A1.84,1.84,0,0,0,39.65,347h0a1.81,1.81,0,0,0-1.78-1.85l-3.18-.05A1.84,1.84,0,0,0,32.83,346.9Zm-1.51-2.37h0a1.84,1.84,0,0,0,2.5-.62l1.65-2.72a1.81,1.81,0,0,0-.61-2.49h0a1.84,1.84,0,0,0-2.5.62L30.7,342A1.81,1.81,0,0,0,31.31,344.53Z"/><path id="corolla2" class="cls-15" d="M28.14,343.91a4,4,0,1,1-1.58,5.42A4,4,0,0,1,28.14,343.91Z"/><path id="pet2-2" data-name="pet2" class="cls-16" d="M31.64,327.16H36.5v72.59H31.64V327.16Z"/><path id="pet3-2" data-name="pet3" class="cls-14" d="M28.6,320l-2.66-4.81A2.7,2.7,0,0,1,27,311.51h0a2.7,2.7,0,0,1,3.66,1.05l2.66,4.81a1.83,1.83,0,0,1-.72,2.48l-1.51.84A1.83,1.83,0,0,1,28.6,320Zm1.3,4h0a2.67,2.67,0,0,0-2.62-2.72l-4.7-.08a2.7,2.7,0,0,0-2.74,2.64h0a2.67,2.67,0,0,0,2.62,2.72l4.7,0.08A2.7,2.7,0,0,0,29.91,324Zm2.23,3.5h0a2.7,2.7,0,0,0-3.69.91l-2.44,4a2.67,2.67,0,0,0,.91,3.67h0a2.7,2.7,0,0,0,3.69-.91l2.44-4A2.67,2.67,0,0,0,32.14,327.47Zm4.92-.61-1.51.84a1.83,1.83,0,0,0-.72,2.48L37.49,335A2.7,2.7,0,0,0,41.15,336h0a2.7,2.7,0,0,0,1.05-3.66l-2.66-4.81A1.83,1.83,0,0,0,37.06,326.86Zm1.18-3.27h0a2.67,2.67,0,0,0,2.62,2.72l4.7,0.08a2.7,2.7,0,0,0,2.74-2.64h0A2.67,2.67,0,0,0,45.67,321l-4.7-.08A2.7,2.7,0,0,0,38.24,323.58ZM36,320.08h0a2.7,2.7,0,0,0,3.69-.91l2.44-4a2.67,2.67,0,0,0-.91-3.67h0a2.7,2.7,0,0,0-3.69.91l-2.44,4A2.67,2.67,0,0,0,36,320.08Z"/><path id="corolla3" class="cls-15" d="M31.33,319.17a5.87,5.87,0,1,1-2.33,8A5.89,5.89,0,0,1,31.33,319.17Z"/><path id="stem3" class="cls-17" d="M76.77,318.49h6v85.42h-6V318.49Z"/><path id="pet3-3" data-name="pet3" class="cls-14" d="M73.42,306.51l-3.65-6.61a3.32,3.32,0,0,1,1.3-4.5h0a3.32,3.32,0,0,1,4.5,1.3l3.65,6.61a1.45,1.45,0,0,1-.57,2l-3.26,1.8A1.45,1.45,0,0,1,73.42,306.51Zm1.22,4.21h0a3.28,3.28,0,0,0-3.22-3.35l-5.78-.09a3.33,3.33,0,0,0-3.37,3.24h0a3.28,3.28,0,0,0,3.22,3.35L71.27,314A3.33,3.33,0,0,0,74.63,310.72Zm2.74,4.3h0a3.33,3.33,0,0,0-4.53,1.12l-3,4.95a3.27,3.27,0,0,0,1.11,4.5h0a3.34,3.34,0,0,0,4.55-1.13l3-4.93A3.28,3.28,0,0,0,77.38,315Zm6.75-1.14-3.26,1.8a1.45,1.45,0,0,0-.57,2L84,324.27a3.32,3.32,0,0,0,4.5,1.3h0a3.32,3.32,0,0,0,1.3-4.5l-3.65-6.61A1.45,1.45,0,0,0,84.13,313.89Zm0.75-3.64h0a3.28,3.28,0,0,0,3.22,3.35l5.78,0.09a3.33,3.33,0,0,0,3.37-3.24h0A3.28,3.28,0,0,0,94,307.1L88.25,307A3.33,3.33,0,0,0,84.88,310.25Zm-2.74-4.3h0a3.33,3.33,0,0,0,4.54-1.12l3-4.94a3.28,3.28,0,0,0-1.12-4.51h0A3.33,3.33,0,0,0,84,296.49l-3,4.94A3.28,3.28,0,0,0,82.14,305.94Z"/><path id="flow3" class="cls-15" d="M76.39,304.83a7.22,7.22,0,1,1-2.87,9.83A7.24,7.24,0,0,1,76.39,304.83Z"/><polygon id="roof" class="cls-12" points="765.67 470.92 688 404.75 610.17 471 745.18 471 765.67 470.92"/><polygon id="dogh" class="cls-18" points="743.79 464.33 709.67 436 688 417.45 664.33 437.33 633.05 464.33 627 464.33 627 589.5 749.5 589.5 749.5 464.33 743.79 464.33"/><path id="dhole" d="M665,531.25a24,24,0,1,0,24-24A24,24,0,0,0,665,531.25Zm0.08,58.38h47.85V529.29H665.08v60.33Z"/><rect id="sign" class="cls-14" x="637.75" y="474.75" width="102.5" height="27.75"/><path id="egg_shape" data-name="egg shape" class="cls-19" d="M385.15,512.3c0,8.12,4.88,11.58,10.91,11.58S407,520.42,407,512.3s-5-16.48-11-16.48S385.15,504.17,385.15,512.3Z"/><path id="zigzag" class="cls-19" d="M405.18,505.78H386.92a21.35,21.35,0,0,0-1.61,6.35l3.88-3.64,4,3.43,4-3.23,3,3.23,3-3.14,3.76,4.23A17.46,17.46,0,0,0,405.18,505.78Z"/><path id="circles" class="cls-19" d="M390.86,502.12a1.14,1.14,0,1,1-1.14,1.14A1.14,1.14,0,0,1,390.86,502.12Zm4.29,1.35a1.06,1.06,0,1,0,1.06-1.06A1.06,1.06,0,0,0,395.15,503.47Zm5.31,0a1.14,1.14,0,1,0,1.14-1.14A1.14,1.14,0,0,0,400.46,503.43Z"/><path id="bottom_line" data-name="bottom line" class="cls-19" d="M405.23,519.38c-0.6,0-3.39.07-9.32,0.07s-7.84-.08-9-0.11a14.28,14.28,0,0,1-1-2.21c1.62,0.18,5-1.05,10-1.05a76.31,76.31,0,0,1,10.32,1A17.44,17.44,0,0,1,405.23,519.38Z"/><path id="egg_shape2" data-name="egg shape2" class="cls-20" d="M534.5,565.44c0,10.45,6.28,14.89,14,14.89s14-4.45,14-14.89-6.44-21.2-14.19-21.2S534.5,555,534.5,565.44Z"/><path id="zigzag2" class="cls-20" d="M561.51,558.13l-3.73-3.65-3.65,3.65L550,554.48l-5,3.65-5.32-3.65-4.16,3.67s-0.54,2.31-.81,4.49l5-4.68,5.1,4.41,5.1-4.15,3.84,4.15,3.84-4,4.83,5.44A25.35,25.35,0,0,0,561.51,558.13Z"/><path id="circles2" class="cls-20" d="M542.12,563.59a1.47,1.47,0,1,1-1.47,1.47A1.47,1.47,0,0,1,542.12,563.59Zm5.52,1.73A1.37,1.37,0,1,0,549,564,1.37,1.37,0,0,0,547.63,565.33Zm6.83-.05a1.47,1.47,0,1,0,1.47-1.47A1.47,1.47,0,0,0,554.46,565.27Z"/><path id="bottom_line2" data-name="bottom line2" class="cls-20" d="M561.44,571.94c-0.77,0-5.46.12-13.09,0.12S537,572,535.56,572a11.78,11.78,0,0,1-.68-2.67,31.83,31.83,0,0,0,10.68-.6,14.62,14.62,0,0,1,6.19-.08,44.92,44.92,0,0,0,10.47.5A18.13,18.13,0,0,1,561.44,571.94Z"/><path id="bottom_line2-2" data-name="bottom line2" class="cls-20" d="M559.88,553.73c-0.77,0-4.23-.16-11.86-0.16s-9.44,0-10.9-.08a21.65,21.65,0,0,1,2.15-3.62c2.09,0.23,2.31-.64,8.75-0.64,6.8,0,8.16.88,9.93,1C558,550.27,559.94,553.73,559.88,553.73Z"/><path id="egg_shape2-2" data-name="egg shape2" class="cls-21" d="M11.17,389.35c0,8.64,5.19,12.32,11.6,12.32s11.6-3.68,11.6-12.32S29,371.82,22.63,371.82,11.17,380.71,11.17,389.35Z"/><path id="zigzag2-2" data-name="zigzag2" class="cls-21" d="M33.5,383.31l-3.09-3-3,3-3.41-3-4.14,3-4.4-3-3.44,3s-0.45,1.91-.67,3.72l4.13-3.87,4.21,3.65,4.21-3.43,3.17,3.43,3.17-3.34,4,4.5A21,21,0,0,0,33.5,383.31Z"/><path id="circles2-2" data-name="circles2" class="cls-21" d="M17.46,387.83A1.22,1.22,0,1,1,16.25,389,1.22,1.22,0,0,1,17.46,387.83ZM22,389.26a1.13,1.13,0,1,0,1.13-1.13A1.13,1.13,0,0,0,22,389.26Zm5.65,0A1.22,1.22,0,1,0,28.89,388,1.22,1.22,0,0,0,27.67,389.22Z"/><path id="bottom_line2-3" data-name="bottom line2" class="cls-21" d="M33.44,394.73c-0.64,0-4.52.1-10.82,0.1s-9.37,0-10.58-.07a9.74,9.74,0,0,1-.57-2.21,26.32,26.32,0,0,0,8.83-.5,12.09,12.09,0,0,1,5.12-.06,37.14,37.14,0,0,0,8.65.41A15,15,0,0,1,33.44,394.73Z"/><path id="bottom_line2-4" data-name="bottom line2" class="cls-21" d="M32.15,379.67c-0.64,0-3.5-.13-9.81-0.13s-7.81,0-9-.07a17.9,17.9,0,0,1,1.78-3c1.73,0.19,1.91-.53,7.23-0.53,5.62,0,6.75.73,8.21,0.8C30.62,376.81,32.2,379.67,32.15,379.67Z"/><path id="grass-2" data-name="grass" class="cls-22" d="M554.75,584.17c0-36.24-43-89.58-45.41-87.17-1,1,33.14,46.62,33.14,82.86m17.07,3.07c0-15.79-14.43-83.77-16.9-83.77s8,68,8,83.77M563,563.78c0-9.65,29-40.52,27.34-40.52s-33.31,30.87-33.31,40.52,1.34,17.47,3,17.47S563,573.43,563,563.78ZM394.95,524.5c0-39.91-36.53-113.83-39.19-111.17-1.09,1.09,29.93,67.69,29.93,107.61m14.55,2.2c0-17.39,14.91-116.3,12.19-116.3s-22,98.91-22,116.3m13.69-21.08c0-10.63,35.64-36.13,33.83-36.13s-40.4,25.51-40.4,36.13,1.47,19.24,3.28,19.24S404.07,512.68,404.07,502.05ZM277.91,602c0-40-17.47-81.94-20.13-79.28-1.1,1.1,10.85,35.69,10.85,75.7m14.59,2.2c0-17.43,8.82-92.08,6.09-92.08s-16,74.65-16,92.08m13.72-21.13c0-10.65,44.41-74,42.59-74s-49.18,63.36-49.18,74,1.47,19.29,3.29,19.29S287.06,590.15,287.06,579.5Zm-7.87-132.33c0-33.68-12.33-76.74-13.19-77.17,0.86,0,5.32,40.42,5.32,74.1M281,445c0-14.67,8.75-56.75,6.45-56.75S275.34,431.34,275.34,446m11.55-17.79c0-9,26.94-37.66,25.41-37.66s-31,28.69-31,37.66,1.24,16.24,2.77,16.24S286.89,437.19,286.89,428.22Z"/><path id="egg_shape2-3" data-name="egg shape2" class="cls-23" d="M15.15,544.65c0,37.77,22.71,53.86,50.72,53.86s50.72-16.09,50.72-53.86S93.31,468,65.3,468,15.15,506.88,15.15,544.65Z"/><path id="zigzag2-3" data-name="zigzag2" class="cls-23" d="M112.81,518.23L99.32,505,86.13,518.23,71.23,505,53.1,518.23,33.87,505,18.82,518.33s-2,8.36-2.92,16.25l18-16.91,18.43,16,18.43-15,13.87,15L98.54,519,116,538.67S115.43,525.61,112.81,518.23Z"/><path id="circles2-3" data-name="circles2" class="cls-23" d="M41.86,578.09a5.32,5.32,0,1,1-5.13,5.5A5.32,5.32,0,0,1,41.86,578.09ZM62,583.66a4.94,4.94,0,1,0,4.76-5.11A4.94,4.94,0,0,0,62,583.66Zm24.67-1a5.32,5.32,0,1,0,5.13-5.5A5.32,5.32,0,0,0,86.68,582.61Z"/><path id="bottom_line2-5" data-name="bottom line2" class="cls-23" d="M112.56,568.17c-2.78,0-19.75.42-47.33,0.42s-41-.14-46.25-0.28c-0.37-.73-3-9.33-2.48-9.65a115.11,115.11,0,0,0,38.63-2.17,52.86,52.86,0,0,1,22.38-.28c18.4,3.63,32.52,1.54,37.85,1.8C115.66,558.23,112.77,568.17,112.56,568.17Z"/><path id="bottom_line2-6" data-name="bottom line2" class="cls-23" d="M106.9,502.32c-2.78,0-15.3-.59-42.88-0.59s-34.14-.14-39.41-0.28c-0.37-.73,7.25-12.77,7.79-13.09,7.55,0.82,8.37-2.3,31.62-2.3,24.59,0,29.51,3.2,35.9,3.51C100.23,489.81,107.12,502.32,106.9,502.32Z"/><g id="basket-2" data-name="basket"><path id="egg_shape-2" data-name="egg shape" class="cls-19" d="M213.15,564c0,8.12,4.88,11.58,10.91,11.58S235,572.08,235,564s-5-16.48-11-16.48S213.15,555.84,213.15,564Z"/><path id="zigzag-2" data-name="zigzag" class="cls-19" d="M233.18,557.45H214.92a21.35,21.35,0,0,0-1.61,6.35l3.88-3.64,4,3.43,4-3.23,3,3.23,3-3.14,3.76,4.23A17.46,17.46,0,0,0,233.18,557.45Z"/><path id="circles-2" data-name="circles" class="cls-19" d="M218.86,553.79a1.14,1.14,0,1,1-1.14,1.14A1.14,1.14,0,0,1,218.86,553.79Zm4.29,1.35a1.06,1.06,0,1,0,1.06-1.06A1.06,1.06,0,0,0,223.15,555.14Zm5.31,0a1.14,1.14,0,1,0,1.14-1.14A1.14,1.14,0,0,0,228.46,555.1Z"/><path class="cls-24" d="M250.83,564.83c0-31.27-20.43-56.63-45.62-56.63s-45.62,25.35-45.62,56.63h5c0-28.47,18.22-51.62,40.63-51.62s40.63,23.16,40.63,51.63h5Z"/><path id="egg_shape2-4" data-name="egg shape2" class="cls-25" d="M180.59,561.37c0,7.67,4.61,10.94,10.3,10.94s10.3-3.27,10.3-10.94-4.73-15.57-10.42-15.57S180.59,553.7,180.59,561.37Z"/><path id="zigzag2-4" data-name="zigzag2" class="cls-25" d="M200.43,556l-2.74-2.68L195,556l-3-2.68L188.3,556l-3.91-2.68-3.06,2.7s-0.4,1.7-.59,3.3l3.67-3.43,3.74,3.24,3.74-3,2.82,3,2.82-3,3.55,4A18.62,18.62,0,0,0,200.43,556Z"/><path id="circles2-4" data-name="circles2" class="cls-25" d="M186.18,560a1.08,1.08,0,1,1-1.08,1.08A1.08,1.08,0,0,1,186.18,560Zm4.05,1.27a1,1,0,1,0,1-1A1,1,0,0,0,190.24,561.29Zm5,0a1.08,1.08,0,1,0,1.08-1.08A1.08,1.08,0,0,0,195.25,561.25Z"/><path id="bottom_line2-7" data-name="bottom line2" class="cls-25" d="M199.23,552.78c-0.56,0-3.11-.12-8.71-0.12s-6.93,0-8-.06a15.9,15.9,0,0,1,1.58-2.66c1.53,0.17,1.7-.47,6.42-0.47a36.52,36.52,0,0,1,7.29.71C197.87,550.23,199.27,552.78,199.23,552.78Z"/><path id="egg_shape2-5" data-name="egg shape2" class="cls-26" d="M196.5,565.19c0,8.52,5.12,12.14,11.44,12.14s11.44-3.63,11.44-12.14-5.25-17.28-11.57-17.28S196.5,556.67,196.5,565.19Z"/><path id="zigzag2-5" data-name="zigzag2" class="cls-26" d="M218.52,559.23l-3-3-3,3-3.36-3-4.09,3-4.34-3-3.39,3s-0.44,1.88-.66,3.66l4.07-3.81,4.15,3.6,4.15-3.38,3.13,3.38,3.13-3.3,3.94,4.43A20.67,20.67,0,0,0,218.52,559.23Z"/><path id="bottom_line2-8" data-name="bottom line2" class="cls-26" d="M217.19,555.65c-0.63,0-3.45-.13-9.67-0.13s-7.7,0-8.89-.06a17.65,17.65,0,0,1,1.76-3c1.7,0.18,1.89-.52,7.13-0.52,5.55,0,6.65.72,8.1,0.79C215.68,552.82,217.24,555.65,217.19,555.65Z"/><path id="egg_shape2-6" data-name="egg shape2" class="cls-27" d="M161.22,561c1.39,7.34,6.4,9.63,11.85,8.6s9.27-5,7.87-12.34-7.36-14-12.8-13S159.82,553.61,161.22,561Z"/><path id="zigzag2-6" data-name="zigzag2" class="cls-27" d="M179.23,552.21l-3.11-2.07L174,553.2l-3.38-2-3,3.23-4.23-1.85L161,555.7s-0.07,1.7,0,3.27l2.88-4,4.17,2.42,3-3.6,3.25,2.41,2.16-3.36,4.12,3.18A18.14,18.14,0,0,0,179.23,552.21Z"/><path id="bottom_line2-9" data-name="bottom line2" class="cls-27" d="M177.49,549.34c-0.54.1-3,.45-8.36,1.47s-6.64,1.23-7.67,1.4a15.49,15.49,0,0,1,1-2.83c1.5-.12,1.54-0.76,6.06-1.61a35.58,35.58,0,0,1,7.11-.64C175.73,547.15,177.53,549.33,177.49,549.34Z"/><path id="egg5" class="cls-28" d="M228.8,561.14c-0.46,7.86,4.07,11.49,9.91,11.83s10.76-2.73,11.22-10.6-3.92-16.24-9.75-16.58S229.26,553.28,228.8,561.14Z"/><g id="hardgame"><path id="hardegg5" class="cls-29" d="M224.63,562.81c-0.46,7.86,4.07,11.49,9.91,11.83s10.76-2.73,11.22-10.6-3.92-16.24-9.75-16.58S225.09,554.95,224.63,562.81Z"/><path id="hardegg4" class="cls-30" d="M210.18,563.84c-0.46,7.86,4.07,11.49,9.91,11.83s10.76-2.73,11.22-10.6-3.92-16.24-9.75-16.58S210.64,556,210.18,563.84Z"/><path id="hardegg3" class="cls-31" d="M198.07,567.11c0.73,7.84,5.76,10.74,11.58,10.2s10.22-4.33,9.49-12.17-6.32-15.47-12.14-14.92S197.34,559.26,198.07,567.11Z"/><path id="hardegg2" class="cls-32" d="M182.85,564.49c0.14,7.88,4.94,11.15,10.78,11S204.15,572,204,564.11s-5.14-15.9-11-15.79S182.7,556.61,182.85,564.49Z"/><path id="hardegg1" class="cls-33" d="M163.07,561.41c-1.14,7.8,3.06,11.8,8.84,12.65s11-1.79,12.09-9.58-2.49-16.52-8.27-17.37S164.21,553.61,163.07,561.41Z"/></g><path id="mooneggbask" class="cls-21" d="M173.58,566.1c0,8.64,5.19,12.32,11.6,12.32s11.6-3.68,11.6-12.32-5.32-17.53-11.73-17.53S173.58,557.46,173.58,566.1Z"/><path id="moonbask" class="cls-34" d="M185.56,568.88a6.8,6.8,0,0,1,2.26-10.93,6.61,6.61,0,1,0,1.68,13A6.78,6.78,0,0,1,185.56,568.88Z"/><path class="cls-24" d="M160.17,555.67s-11,49.25,44.5,49.25,45.5-47.75,45.5-47.75C219.22,566.21,188.51,566.66,160.17,555.67Z"/><path id="mid_cloud" data-name="mid cloud" class="cls-14" d="M339,75c0,8.28,10.52,15,23.5,15S386,83.28,386,75s-10.52-15-23.5-15S339,66.72,339,75ZM319.67,49.33A26.67,26.67,0,1,0,346.33,76,26.67,26.67,0,0,0,319.67,49.33Zm27.83,47c7.46,0,13.5-4,13.5-9s-6-9-13.5-9-13.5,4-13.5,9S340,96.33,347.5,96.33Zm-86.83-17c0,6.63,9.55,12,21.33,12s21.33-5.37,21.33-12-9.55-12-21.33-12S260.67,72.71,260.67,79.33Zm25.67-11.5c0,4.14,5.22,7.5,11.67,7.5s11.67-3.36,11.67-7.5-5.22-7.5-11.67-7.5S286.33,63.69,286.33,67.83Z"/><path id="leftcloud" class="cls-14" d="M186.87,88.62c1.29,5.8,9.11,9,17.47,7.13s14.08-8.07,12.79-13.86-9.11-9-17.47-7.13S185.58,82.82,186.87,88.62ZM201,74c0,5.25,8.06,9.5,18,9.5s18-4.25,18-9.5-8.06-9.5-18-9.5S201,68.75,201,74Zm22,18.5c11.32,0,20.5-3,20.5-6.75S234.32,79,223,79s-20.5,3-20.5,6.75S211.68,92.5,223,92.5ZM161,81.75c0,2.9,8.28,5.25,18.5,5.25S198,84.65,198,81.75s-8.28-5.25-18.5-5.25S161,78.85,161,81.75Z"/></g><path id="buttonn" class="cls-35" d="M319.13,588.24h0a12,12,0,0,1,12-12h30.19a12,12,0,0,1,12,12h0a12,12,0,0,1-12,12H331.13A12,12,0,0,1,319.13,588.24Z"/><path id="resettext" class="cls-36" d="M338.29,591.78l-0.21-.16a2.6,2.6,0,0,1-.38.41,0.59,0.59,0,0,1-.38.12A0.45,0.45,0,0,1,337,592a0.93,0.93,0,0,1-.22-0.35,4.53,4.53,0,0,1-.18-0.66l-0.34-1.41a3.18,3.18,0,0,0-.35-1,1.58,1.58,0,0,0-.59-0.56,3.07,3.07,0,0,0-1-.31l-0.17,0a3.59,3.59,0,0,0,1.57-.58,2.54,2.54,0,0,0,.85-1,2.59,2.59,0,0,0,.25-1.09,2.1,2.1,0,0,0-.38-1.23,2.5,2.5,0,0,0-1.12-.86,4.74,4.74,0,0,0-1.83-.31h-2.08q-1.1,0-1.68,0V583a2.45,2.45,0,0,1,.72.11,0.52,0.52,0,0,1,.31.32,2.44,2.44,0,0,1,.08.75V591a2.44,2.44,0,0,1-.08.75,0.52,0.52,0,0,1-.31.32,2.45,2.45,0,0,1-.72.11v0.28q0.58,0,1.76,0t1.75,0v-0.28a2.44,2.44,0,0,1-.72-0.11,0.52,0.52,0,0,1-.31-0.32,2.44,2.44,0,0,1-.08-0.75v-3.17h1.31a1.27,1.27,0,0,1,.81.23,1.39,1.39,0,0,1,.44.62,8.88,8.88,0,0,1,.31,1.11l0.3,1.37a2.22,2.22,0,0,0,.55,1.17,1.33,1.33,0,0,0,.93.33,1.49,1.49,0,0,0,.83-0.21A2.51,2.51,0,0,0,338.29,591.78Zm-3.74-4.52a1.59,1.59,0,0,0,.73-0.79,3.18,3.18,0,0,0,.2-1.2,2.43,2.43,0,0,0-.54-1.71,2.3,2.3,0,0,0-1.75-.58,1.63,1.63,0,0,0-.65.1,0.54,0.54,0,0,0-.3.35,2.56,2.56,0,0,0-.08.74v3.39h0.93A3,3,0,0,0,334.55,587.26Zm10,3.55-0.28-.11a2.12,2.12,0,0,1-2,1.38,1.68,1.68,0,0,1-1-.36,2.55,2.55,0,0,1-.78-1,3.92,3.92,0,0,1-.3-1.59,7,7,0,0,1,0-.88h4.31a3.34,3.34,0,0,0-.67-2.28,2.42,2.42,0,0,0-1.91-.75,2.87,2.87,0,0,0-1.65.47,3.06,3.06,0,0,0-1.09,1.36,5.19,5.19,0,0,0-.38,2.08,4.39,4.39,0,0,0,.38,1.87,2.86,2.86,0,0,0,1.09,1.26,3.14,3.14,0,0,0,1.7.45,2.62,2.62,0,0,0,1.18-.26,2.71,2.71,0,0,0,.88-0.68A2.76,2.76,0,0,0,344.51,590.81Zm-1.5-4.13a2.08,2.08,0,0,0-.44-0.91,1,1,0,0,0-.75-0.34,1.26,1.26,0,0,0-.78.27,2.07,2.07,0,0,0-.6.83,4.39,4.39,0,0,0-.31,1.4h3A4.52,4.52,0,0,0,343,586.68Zm3.22,3.13h-0.32q0,2-.05,2.75h0.32c0.05-.35.15-0.52,0.28-0.52a0.17,0.17,0,0,1,.13.05,3.28,3.28,0,0,0,.57.37,2.87,2.87,0,0,0,1.09.2,3,3,0,0,0,1.18-.23,2,2,0,0,0,.86-0.66,1.71,1.71,0,0,0,.32-1,1.86,1.86,0,0,0-.24-0.95,2.7,2.7,0,0,0-.63-0.73,11.31,11.31,0,0,0-1-.73l-0.66-.42a4.68,4.68,0,0,1-.79-0.61,1.07,1.07,0,0,1-.33-0.8,1,1,0,0,1,.32-0.78,1.18,1.18,0,0,1,.81-0.28,1.51,1.51,0,0,1,1.29.59,3.41,3.41,0,0,1,.59,1.5h0.32q0-1.67.05-2.34H350c0,0.4-.15.61-0.31,0.61a0.44,0.44,0,0,1-.24-0.11,2.45,2.45,0,0,0-.63-0.35,2.33,2.33,0,0,0-.87-0.16,2.62,2.62,0,0,0-1,.2,1.66,1.66,0,0,0-.74.6,1.7,1.7,0,0,0-.28,1,1.72,1.72,0,0,0,.25.94,2.52,2.52,0,0,0,.61.67q0.36,0.28,1,.71t0.87,0.59a2.14,2.14,0,0,1,.5.54,1.23,1.23,0,0,1,.19.68,1.41,1.41,0,0,1-.18.76,1.09,1.09,0,0,1-.46.42,1.36,1.36,0,0,1-.58.13,1.64,1.64,0,0,1-1.05-.31,1.81,1.81,0,0,1-.58-0.86A7,7,0,0,1,346.23,589.8Zm11.4,1-0.28-.11a2.12,2.12,0,0,1-2,1.38,1.68,1.68,0,0,1-1-.36,2.55,2.55,0,0,1-.78-1,3.92,3.92,0,0,1-.3-1.59,7,7,0,0,1,0-.88h4.31a3.34,3.34,0,0,0-.67-2.28,2.42,2.42,0,0,0-1.91-.75,2.87,2.87,0,0,0-1.65.47,3.06,3.06,0,0,0-1.09,1.36,5.19,5.19,0,0,0-.38,2.08,4.39,4.39,0,0,0,.38,1.87,2.86,2.86,0,0,0,1.09,1.26,3.14,3.14,0,0,0,1.7.45,2.62,2.62,0,0,0,1.18-.26,2.71,2.71,0,0,0,.88-0.68A2.76,2.76,0,0,0,357.63,590.81Zm-1.5-4.13a2.08,2.08,0,0,0-.44-0.91,1,1,0,0,0-.75-0.34,1.26,1.26,0,0,0-.78.27,2.07,2.07,0,0,0-.6.83,4.39,4.39,0,0,0-.31,1.4h3A4.52,4.52,0,0,0,356.14,586.68Zm4.71-1.31v-2.3a3.88,3.88,0,0,1-1.24.2v2.11h-1.33v0.28h1.33v4.62a4.64,4.64,0,0,0,.12,1.19,1.68,1.68,0,0,0,.42.74,1.47,1.47,0,0,0,.54.35,2.25,2.25,0,0,0,.77.11q1.45,0,1.79-1.91l-0.27-.07a2.84,2.84,0,0,1-.51,1.13,1,1,0,0,1-.73.34,0.8,0.8,0,0,1-.66-0.27,1.43,1.43,0,0,1-.22-0.9v-5.34h2v-0.28h-2Z"/><path id="moonegg" class="cls-21" d="M68.83,395.35c0,8.64,5.19,12.32,11.6,12.32S92,404,92,395.35s-5.32-17.53-11.73-17.53S68.83,386.71,68.83,395.35Z"/><path id="mooninegg" class="cls-34" d="M80.81,398.13a6.8,6.8,0,0,1,2.26-10.93,6.61,6.61,0,1,0,1.68,13A6.78,6.78,0,0,1,80.81,398.13Z"/></svg>