<svg id="ipod_nano" data-name="ipod nano" xmlns="http://www.w3.org/2000/svg" viewBox="0 0 792 613.17"><defs><style>.cls-1{fill:#1e0404;}.cls-2{fill:#896f24;}.cls-3,.cls-8{fill:#5cc4c6;}.cls-18,.cls-3{fill-rule:evenodd;}.cls-16,.cls-4{fill:#fff;}.cls-5{fill:#a5b1b3;}.cls-6{fill:#e7e8ec;}.cls-7{fill:#63ba4e;}.cls-9{fill:#b2b2b2;}.cls-10{fill:#e6e7e9;}.cls-11,.cls-18{fill:#cbcbcb;}.cls-12{fill:#c52026;}.cls-13{fill:#e57665;}.cls-14{fill:#070e14;}.cls-15{fill:#f7f7f7;}.cls-16{stroke:#889799;stroke-width:1.36px;}.cls-16,.cls-17{stroke-miterlimit:10;}.cls-17{fill:#121c04;stroke:#000;stroke-width:0.21px;}</style></defs><title>easterecarddoghouse</title><path id="doghouse" class="cls-1" d="M1.33,610.83v-612h792v612H1.33Z" transform="translate(-1.33 1.17)"/><path id="light" class="cls-2" d="M226.56,612q-0.23-26.65-.23-56.67c0-46.58,76.08-103.67,170.33-103.67s171,57.09,171,103.67q0,29.59-.13,56.67h-341Z" transform="translate(-1.33 1.17)"/><path id="nanobod" class="cls-3" d="M474.58,416.25V48a17.67,17.67,0,0,1,17.67-17.67H760.17A17.67,17.67,0,0,1,777.84,48V416.25a17.67,17.67,0,0,1-17.67,17.67H492.25A17.67,17.67,0,0,1,474.58,416.25ZM745.74,237.69H506.67a5.35,5.35,0,0,1-5.33-5.33V58a5.35,5.35,0,0,1,5.33-5.33H745.74A5.35,5.35,0,0,1,751.08,58V232.36A5.35,5.35,0,0,1,745.74,237.69Z" transform="translate(-1.33 1.17)"/><path id="nav" class="cls-4" d="M626,252.57a78,78,0,1,0,78,78A78,78,0,0,0,626,252.57Zm0,112.32a36,36,0,1,1,36-36A36,36,0,0,1,626,364.88Z" transform="translate(-1.33 1.17)"/><path id="backarea" class="cls-4" d="M563,318.29c7.62,0,13.8,5.44,13.8,12.15s-6.18,12.15-13.8,12.15-13.8-5.44-13.8-12.15S555.38,318.29,563,318.29Z" transform="translate(-1.33 1.17)"/><path id="backward" class="cls-5" d="M566.56,328.27l3.81-2.1-0.09,4.35-0.09,4.35-3.72-2.25-3.72-2.25Zm-11.43,2.1,3.72,2.25,3.72,2.25,0.09-4.35,0.09-4.35-3.81,2.1Zm1.16-4.84h-2.43v10.16h2.43V325.53Z" transform="translate(-1.33 1.17)"/><path id="menuarea" class="cls-4" d="M626.16,254.46c11,0,20,7.87,20,17.59s-8.95,17.59-20,17.59-20-7.87-20-17.59S615.12,254.46,626.16,254.46Z" transform="translate(-1.33 1.17)"/><path id="menu" class="cls-5" d="M610,268.95v-8.17h1.63l1.94,5.79c0.18,0.54.31,0.94,0.39,1.21q0.14-.45.43-1.31l2-5.69h1.45v8.17h-1v-6.84l-2.38,6.84h-1L611,262v7h-1Zm9.57,0v-8.17h5.91v1h-4.83v2.5h4.52v1h-4.52V268h5v1h-6.1Zm7.58,0v-8.17h1.11l4.29,6.42v-6.42h1v8.17h-1.11l-4.29-6.42v6.42h-1Zm13.62-8.17h1.08v4.72a5.58,5.58,0,0,1-.28,2,2.38,2.38,0,0,1-1,1.18,3.56,3.56,0,0,1-1.91.45,3.93,3.93,0,0,1-1.88-.4,2.27,2.27,0,0,1-1-1.15,5.48,5.48,0,0,1-.31-2v-4.72h1.08v4.72a4.61,4.61,0,0,0,.2,1.57,1.5,1.5,0,0,0,.68.78,2.36,2.36,0,0,0,1.18.27,2.25,2.25,0,0,0,1.7-.54,3.11,3.11,0,0,0,.51-2.08v-4.72Z" transform="translate(-1.33 1.17)"/><path id="pauseplayarea" class="cls-4" d="M626.16,372.17c11,0,20,7.87,20,17.59s-8.95,17.59-20,17.59-20-7.87-20-17.59S615.12,372.17,626.16,372.17Z" transform="translate(-1.33 1.17)"/><polygon id="play" class="cls-5" points="629.12 400.73 624.63 403.32 620.13 405.92 620.13 400.73 620.13 395.53 624.63 398.13 629.12 400.73"/><path id="pause" class="cls-5" d="M622.9,404.19H625v-10.1H622.9v10.1Zm4,0H629v-10.1h-2.15v10.1Z" transform="translate(-1.33 1.17)"/><path id="forwardarea" class="cls-4" d="M680.26,318.29c7.62,0,13.8,5.44,13.8,12.15s-6.18,12.15-13.8,12.15-13.8-5.44-13.8-12.15S672.64,318.29,680.26,318.29Z" transform="translate(-1.33 1.17)"/><path id="forward" class="cls-5" d="M680.34,330.37l-3.72,2.25-3.72,2.25-0.09-4.35-0.09-4.35,3.81,2.1Zm3.81-2.1-3.81-2.1,0.09,4.35,0.09,4.35,3.72-2.25,3.72-2.25Zm2.65,7.42h2.43V325.53H686.8v10.16Z" transform="translate(-1.33 1.17)"/><path id="displaynano" class="cls-4" d="M508,56.81H743.89V233.7H508V56.81Z" transform="translate(-1.33 1.17)"/><path id="topareanano" class="cls-6" d="M508,56.81H743.87V73.9H508V56.81Z" transform="translate(-1.33 1.17)"/><g id="text"><path d="M513.92,67.86V61.14h0.91l3.53,5.27V61.14h0.85v6.72H518.3l-3.53-5.28v5.28h-0.85Z" transform="translate(-1.33 1.17)"/><path d="M520.29,65.42a2.51,2.51,0,0,1,.75-2,2.27,2.27,0,0,1,1.53-.54,2.18,2.18,0,0,1,1.64.66,2.5,2.5,0,0,1,.64,1.82,3.22,3.22,0,0,1-.28,1.48,2,2,0,0,1-.82.84,2.39,2.39,0,0,1-1.17.3,2.19,2.19,0,0,1-1.65-.66A2.61,2.61,0,0,1,520.29,65.42Zm0.85,0a2.07,2.07,0,0,0,.41,1.4,1.36,1.36,0,0,0,2,0A2.12,2.12,0,0,0,524,65.4a2,2,0,0,0-.41-1.37,1.36,1.36,0,0,0-2,0A2.06,2.06,0,0,0,521.14,65.42Z" transform="translate(-1.33 1.17)"/><path d="M526.71,67.86L525.22,63h0.85l0.77,2.81,0.29,1,0.25-1L528.16,63H529l0.73,2.82L530,66.74l0.28-.94L531.1,63h0.8l-1.52,4.87h-0.86l-0.77-2.91-0.19-.83-1,3.74h-0.86Z" transform="translate(-1.33 1.17)"/><path d="M535.3,67.86V61.14h2.53a6.12,6.12,0,0,1,1,.06,2,2,0,0,1,.83.31,1.65,1.65,0,0,1,.54.65,2.19,2.19,0,0,1-.34,2.37,2.62,2.62,0,0,1-2,.59h-1.72v2.73H535.3Zm0.89-3.52h1.74a1.84,1.84,0,0,0,1.22-.32,1.14,1.14,0,0,0,.36-0.9,1.21,1.21,0,0,0-.21-0.72,1,1,0,0,0-.56-0.4,3.82,3.82,0,0,0-.83-0.06h-1.72v2.4Z" transform="translate(-1.33 1.17)"/><path d="M541.44,67.86V61.14h0.82v6.72h-0.82Z" transform="translate(-1.33 1.17)"/><path d="M546.71,67.26a3.06,3.06,0,0,1-.88.55,2.55,2.55,0,0,1-.91.16,1.77,1.77,0,0,1-1.23-.39,1.29,1.29,0,0,1-.43-1,1.36,1.36,0,0,1,.59-1.13,2,2,0,0,1,.59-0.27,5.85,5.85,0,0,1,.73-0.12,7.54,7.54,0,0,0,1.47-.28c0-.11,0-0.18,0-0.21a0.91,0.91,0,0,0-.23-0.71,1.38,1.38,0,0,0-.94-0.28,1.46,1.46,0,0,0-.86.2,1.24,1.24,0,0,0-.41.72l-0.81-.11a2,2,0,0,1,.36-0.84,1.59,1.59,0,0,1,.73-0.49,3.25,3.25,0,0,1,1.11-.17,2.92,2.92,0,0,1,1,.15,1.34,1.34,0,0,1,.57.37,1.31,1.31,0,0,1,.26.56,4.68,4.68,0,0,1,0,.76v1.1a11.78,11.78,0,0,0,.05,1.45,1.84,1.84,0,0,0,.21.58h-0.86A1.75,1.75,0,0,1,546.71,67.26Zm-0.07-1.84a6,6,0,0,1-1.35.31,3.12,3.12,0,0,0-.72.16,0.72,0.72,0,0,0-.33.27,0.73,0.73,0,0,0,.14.94,1.07,1.07,0,0,0,.73.22,1.7,1.7,0,0,0,.85-0.21,1.28,1.28,0,0,0,.55-0.57,2,2,0,0,0,.13-0.82v-0.3Z" transform="translate(-1.33 1.17)"/><path d="M548.72,69.73L548.63,69a1.83,1.83,0,0,0,.47.07,0.91,0.91,0,0,0,.44-0.09,0.75,0.75,0,0,0,.27-0.26,4.12,4.12,0,0,0,.25-0.61l0.07-.2L548.29,63h0.89l1,2.82c0.13,0.36.25,0.73,0.35,1.13a10.84,10.84,0,0,1,.34-1.11l1-2.84h0.83l-1.85,4.95a9.68,9.68,0,0,1-.46,1.1,1.63,1.63,0,0,1-.5.6,1.19,1.19,0,0,1-.68.19A1.65,1.65,0,0,1,548.72,69.73Z" transform="translate(-1.33 1.17)"/><path d="M553.45,62.09V61.14h0.83v0.95h-0.83Zm0,5.77V63h0.83v4.87h-0.83Z" transform="translate(-1.33 1.17)"/><path d="M555.53,67.86V63h0.74v0.69a1.75,1.75,0,0,1,1.55-.8,2,2,0,0,1,.81.16,1.28,1.28,0,0,1,.55.41,1.61,1.61,0,0,1,.26.61,4.68,4.68,0,0,1,0,.8v3h-0.82v-3a2.24,2.24,0,0,0-.1-0.75,0.8,0.8,0,0,0-.34-0.4,1.09,1.09,0,0,0-.57-0.15,1.33,1.33,0,0,0-.91.33,1.65,1.65,0,0,0-.38,1.27v2.66h-0.82Z" transform="translate(-1.33 1.17)"/><path d="M560.6,68.26l0.8,0.12a0.76,0.76,0,0,0,.28.54,1.37,1.37,0,0,0,.84.23,1.47,1.47,0,0,0,.88-0.23,1.13,1.13,0,0,0,.42-0.64,5.3,5.3,0,0,0,.06-1.06,1.7,1.7,0,0,1-1.35.64,1.84,1.84,0,0,1-1.55-.72,2.78,2.78,0,0,1-.55-1.74,3.25,3.25,0,0,1,.25-1.29,2,2,0,0,1,.73-0.91,2,2,0,0,1,1.12-.32,1.75,1.75,0,0,1,1.42.7V63h0.76V67.2a4,4,0,0,1-.23,1.61,1.69,1.69,0,0,1-.73.75,2.54,2.54,0,0,1-1.23.27,2.33,2.33,0,0,1-1.41-.39A1.33,1.33,0,0,1,560.6,68.26Zm0.68-2.92a2.11,2.11,0,0,0,.38,1.4,1.25,1.25,0,0,0,1.9,0,2,2,0,0,0,.39-1.37,2,2,0,0,0-.4-1.35,1.23,1.23,0,0,0-1-.45,1.19,1.19,0,0,0-.93.45A2,2,0,0,0,561.28,65.34Z" transform="translate(-1.33 1.17)"/></g><path id="play-2" data-name="play" d="M711.16,63.48l-3.31,1.91-3.31,1.91V59.66l3.31,1.91Z" transform="translate(-1.33 1.17)"/><path id="power" class="cls-7" d="M719.59,67.76h17v-8.2h-17v8.2Zm16.92-4.36c0,0.66-.11,1.21.51,1.21a1.2,1.2,0,0,0,0-2.4C736.4,62.21,736.51,62.73,736.51,63.4Z" transform="translate(-1.33 1.17)"/><path id="pause-2" data-name="pause" class="cls-8" d="M704.92,59.66h1.2v7.53h-1.2V59.66Zm2.48,7.53h1.2V59.66h-1.2v7.53Z" transform="translate(-1.33 1.17)"/><path id="tail" class="cls-9" d="M217.33,408.5a33.17,33.17,0,1,1-33.17,33.17A33.17,33.17,0,0,1,217.33,408.5Z" transform="translate(-1.33 1.17)"/><path id="leftside" class="cls-10" d="M135.85,286.6a1.17,1.17,0,0,1-.18,0l-0.27,0H115.32A3.42,3.42,0,0,1,112,284l-0.28-102.77a21.75,21.75,0,0,0-43.5,0L69,461.5a12,12,0,0,0,12,12h19.5a11.9,11.9,0,0,0,1.83-.16h34.32V286.6h-0.8Z" transform="translate(-1.33 1.17)"/><path id="rightside" class="cls-11" d="M137.39,286.6a1.17,1.17,0,0,0,.18,0l0.27,0h20.08a3.42,3.42,0,0,0,3.3-2.57l0.28-102.77a21.75,21.75,0,0,1,43.5,0L204.24,461.5a12,12,0,0,1-12,12h-19.5a11.9,11.9,0,0,1-1.83-.16H136.58V286.6h0.8Z" transform="translate(-1.33 1.17)"/><path id="nose" class="cls-12" d="M145.67,367.63a3.51,3.51,0,0,1-3.5,3.5h-12a3.5,3.5,0,0,1,0-7h12A3.51,3.51,0,0,1,145.67,367.63Zm-12.53,6.16v-1.69c0-4.69,1.17-4.84,2.83-4.84l0.41,0.13c1.67,0,2.78.46,2.78,2.13l0,4.28a3,3,0,0,1-3,3h0A3,3,0,0,1,133.14,373.78Z" transform="translate(-1.33 1.17)"/><path id="ears" class="cls-13" d="M85,296.67L84.25,186.21a5.75,5.75,0,0,1,11.5,0l0.74,110.42H85Zm103.26,0L189,186.21a5.75,5.75,0,0,0-11.5,0l-0.74,110.42h11.5Z" transform="translate(-1.33 1.17)"/><path id="eyes" class="cls-14" d="M158.25,323.92a16.42,16.42,0,1,0,16.42,16.42A16.42,16.42,0,0,0,158.25,323.92ZM151.75,342a6.58,6.58,0,1,1,6.58-6.58A6.58,6.58,0,0,1,151.75,342Zm-39.17-18.08A16.42,16.42,0,1,0,129,340.33,16.42,16.42,0,0,0,112.58,323.92ZM106.08,342a6.58,6.58,0,1,1,6.58-6.58A6.58,6.58,0,0,1,106.08,342Z" transform="translate(-1.33 1.17)"/><path id="speech" class="cls-15" d="M328.57,209.92c-73,0-132.24,37.94-132.24,84.75,0,16.45,7.32,31.81,20,44.81l-12.11,26.3,43.56-4c22.35,11.07,50.37,17.66,80.81,17.66,73,0,132.24-37.94,132.24-84.75S401.61,209.92,328.57,209.92Z" transform="translate(-1.33 1.17)"/><path id="bubtext" d="M245.83,248.45a0.41,0.41,0,0,0-.24.25,1.92,1.92,0,0,0-.07.59v5.38a1.92,1.92,0,0,0,.07.59,0.4,0.4,0,0,0,.24.25,1.92,1.92,0,0,0,.57.08v0.22q-0.5,0-1.38,0t-1.39,0V255.6a1.92,1.92,0,0,0,.57-0.08,0.4,0.4,0,0,0,.24-0.25,1.92,1.92,0,0,0,.07-0.59v-5.37a1.92,1.92,0,0,0-.07-0.59,0.41,0.41,0,0,0-.24-0.25,1.91,1.91,0,0,0-.57-0.08v-0.22q0.45,0,1.39,0t1.38,0v0.22A1.91,1.91,0,0,0,245.83,248.45Zm6.17,1.94a2,2,0,0,1,1.09-.3,1.52,1.52,0,0,1,1.15.41,1.28,1.28,0,0,1,.29.55,3.51,3.51,0,0,1,.09.88v2.89a1.1,1.1,0,0,0,.08.47,0.46,0.46,0,0,0,.26.24,1.37,1.37,0,0,0,.48.07v0.23l-1.3,0-1.22,0v-0.23a1.06,1.06,0,0,0,.42-0.07,0.43,0.43,0,0,0,.23-0.24,1.25,1.25,0,0,0,.07-0.47v-3.13a2.86,2.86,0,0,0-.06-0.66,0.79,0.79,0,0,0-.26-0.43,0.84,0.84,0,0,0-.56-0.16,1.3,1.3,0,0,0-.79.25,1.64,1.64,0,0,0-.54.7,2.54,2.54,0,0,0-.19,1v2.42a1.25,1.25,0,0,0,.07.47,0.43,0.43,0,0,0,.22.24,1,1,0,0,0,.42.07v0.23l-1.21,0-1.3,0v-0.23a1.38,1.38,0,0,0,.48-0.07,0.46,0.46,0,0,0,.26-0.24,1.11,1.11,0,0,0,.08-0.47v-6.18a1.16,1.16,0,0,0-.18-0.73,0.79,0.79,0,0,0-.64-0.22v-0.23q0.34,0,.67,0a3.41,3.41,0,0,0,1.13-.15v4.05A2,2,0,0,1,252,250.39Zm6.8,0.14a1.09,1.09,0,0,0-.74-0.23,1.3,1.3,0,0,0-1.07.39,0.66,0.66,0,0,1,.51.66,0.55,0.55,0,0,1-.17.43,0.66,0.66,0,0,1-.46.16,0.53,0.53,0,0,1-.43-0.19,0.73,0.73,0,0,1-.16-0.49,1,1,0,0,1,.51-0.77,2.46,2.46,0,0,1,.65-0.29,3,3,0,0,1,.87-0.12,2.57,2.57,0,0,1,.78.11,1.29,1.29,0,0,1,.53.3,1.34,1.34,0,0,1,.34.59,3.64,3.64,0,0,1,.09.93v3a0.76,0.76,0,0,0,.08.39,0.28,0.28,0,0,0,.26.12,0.52,0.52,0,0,0,.24-0.06,1.41,1.41,0,0,0,.24-0.17l0.12,0.19-0.32.22a1.15,1.15,0,0,1-.29.13,1.37,1.37,0,0,1-.38,0,0.87,0.87,0,0,1-.73-0.26,1.11,1.11,0,0,1-.2-0.7,1.88,1.88,0,0,1-.76.74,2,2,0,0,1-.9.22,1.78,1.78,0,0,1-.69-0.13,1.11,1.11,0,0,1-.5-0.4,1.17,1.17,0,0,1-.19-0.68,1.2,1.2,0,0,1,.2-0.7,1.8,1.8,0,0,1,.57-0.51,8,8,0,0,1,1-.48l0.52-.21a2,2,0,0,0,.6-0.34,0.5,0.5,0,0,0,.18-0.37V251.4A1.12,1.12,0,0,0,258.81,250.54Zm0,2.2-0.77.39a3.45,3.45,0,0,0-.53.3,1.32,1.32,0,0,0-.37.42,1.28,1.28,0,0,0-.15.65,1,1,0,0,0,.24.71,0.84,0.84,0,0,0,.63.24,1.44,1.44,0,0,0,1.22-.82v-2.13A0.76,0.76,0,0,1,258.8,252.74Zm6.59-2.47q0.48,0,.82,0v0.22a0.65,0.65,0,0,0-.39.2,1.61,1.61,0,0,0-.32.57l-1.78,4.66h-0.18l-2-4.8a1.22,1.22,0,0,0-.31-0.49,0.52,0.52,0,0,0-.31-0.12v-0.23q0.56,0,1,0,0.83,0,1.41,0v0.23l-0.42,0a0.48,0.48,0,0,0-.25.1,0.31,0.31,0,0,0-.1.25,1.38,1.38,0,0,0,.12.48l1.33,3.3,1.2-3.13a1.42,1.42,0,0,0,.12-0.5,0.41,0.41,0,0,0-.19-0.37,1.32,1.32,0,0,0-.61-0.15v-0.22Zm5.36,5a2.13,2.13,0,0,1-.69.54,2.06,2.06,0,0,1-.93.21,2.47,2.47,0,0,1-1.34-.35,2.26,2.26,0,0,1-.86-1,3.45,3.45,0,0,1-.3-1.47,4.07,4.07,0,0,1,.3-1.63,2.4,2.4,0,0,1,.85-1.07,2.26,2.26,0,0,1,1.29-.37,1.9,1.9,0,0,1,1.5.59,2.62,2.62,0,0,1,.53,1.79h-3.39a5.49,5.49,0,0,0,0,.69,3.07,3.07,0,0,0,.24,1.25,2,2,0,0,0,.62.82,1.32,1.32,0,0,0,.8.29,1.66,1.66,0,0,0,1.59-1.08l0.22,0.08A2.16,2.16,0,0,1,270.76,255.23Zm-0.77-4a1.64,1.64,0,0,0-.35-0.71,0.76,0.76,0,0,0-.59-0.26,1,1,0,0,0-.61.21,1.61,1.61,0,0,0-.47.66,3.44,3.44,0,0,0-.25,1.1h2.36A3.55,3.55,0,0,0,270,251.27Zm7.86-1v0.22h-1.6v4.19a1.13,1.13,0,0,0,.17.71,0.63,0.63,0,0,0,.52.21,0.74,0.74,0,0,0,.58-0.27,2.23,2.23,0,0,0,.4-0.89l0.21,0.05a1.46,1.46,0,0,1-1.41,1.5,1.77,1.77,0,0,1-.6-0.09,1.15,1.15,0,0,1-.42-0.27,1.32,1.32,0,0,1-.33-0.58,3.65,3.65,0,0,1-.1-0.93v-3.63h-1v-0.22h1v-1.66a3,3,0,0,0,1-.15v1.81h1.6Zm2.94,0.15a2,2,0,0,1,1.09-.3,1.52,1.52,0,0,1,1.15.41,1.28,1.28,0,0,1,.29.55,3.51,3.51,0,0,1,.09.88v2.89a1.1,1.1,0,0,0,.08.47,0.46,0.46,0,0,0,.26.24,1.37,1.37,0,0,0,.48.07v0.23l-1.3,0-1.22,0v-0.23a1.06,1.06,0,0,0,.42-0.07,0.43,0.43,0,0,0,.23-0.24,1.25,1.25,0,0,0,.07-0.47v-3.13a2.86,2.86,0,0,0-.06-0.66,0.79,0.79,0,0,0-.26-0.43,0.84,0.84,0,0,0-.56-0.16,1.3,1.3,0,0,0-.79.25,1.64,1.64,0,0,0-.54.7,2.54,2.54,0,0,0-.19,1v2.42a1.25,1.25,0,0,0,.07.47,0.43,0.43,0,0,0,.22.24,1,1,0,0,0,.42.07v0.23l-1.21,0-1.3,0v-0.23a1.38,1.38,0,0,0,.48-0.07,0.46,0.46,0,0,0,.26-0.24,1.11,1.11,0,0,0,.08-0.47v-6.18a1.16,1.16,0,0,0-.18-0.73,0.79,0.79,0,0,0-.64-0.22v-0.23q0.34,0,.67,0a3.41,3.41,0,0,0,1.13-.15v4.05A2,2,0,0,1,280.79,250.39Zm5.79,4.89a0.46,0.46,0,0,0,.26.24,1.37,1.37,0,0,0,.48.07v0.23l-1.31,0-1.31,0v-0.23a1.38,1.38,0,0,0,.48-0.07,0.46,0.46,0,0,0,.26-0.24,1.11,1.11,0,0,0,.08-0.47v-3.39a1.17,1.17,0,0,0-.18-0.73,0.78,0.78,0,0,0-.64-0.23v-0.23q0.34,0,.67,0a3.6,3.6,0,0,0,1.13-.15v4.69A1.1,1.1,0,0,0,286.58,255.28Zm-0.3-7.66a0.73,0.73,0,0,1,.25.25,0.66,0.66,0,0,1,.1.34,0.67,0.67,0,0,1-.1.35,0.7,0.7,0,0,1-.25.25,0.67,0.67,0,0,1-.34.09,0.69,0.69,0,0,1-.35-0.09,0.67,0.67,0,0,1-.25-0.25,0.68,0.68,0,0,1-.09-0.35,0.67,0.67,0,0,1,.09-0.34,0.7,0.7,0,0,1,.25-0.25,0.67,0.67,0,0,1,.35-0.1A0.66,0.66,0,0,1,286.28,247.62Zm2.4,7.21a1.43,1.43,0,0,0,.46.68,1.29,1.29,0,0,0,.83.24,1.06,1.06,0,0,0,.46-0.1,0.85,0.85,0,0,0,.36-0.33,1.11,1.11,0,0,0,.14-0.6,1,1,0,0,0-.15-0.53,1.68,1.68,0,0,0-.39-0.42q-0.24-.19-0.68-0.46t-0.82-.56a2,2,0,0,1-.48-0.53,1.36,1.36,0,0,1-.2-0.74,1.33,1.33,0,0,1,.22-0.77,1.3,1.3,0,0,1,.58-0.47,2,2,0,0,1,.81-0.15,1.83,1.83,0,0,1,.69.12,1.94,1.94,0,0,1,.49.27,0.35,0.35,0,0,0,.19.09q0.19,0,.24-0.48h0.25q0,0.53,0,1.84h-0.25a2.68,2.68,0,0,0-.46-1.18,1.18,1.18,0,0,0-1-.47,0.93,0.93,0,0,0-.64.22,0.77,0.77,0,0,0-.25.61,0.84,0.84,0,0,0,.26.63,3.65,3.65,0,0,0,.62.48l0.52,0.33a8.87,8.87,0,0,1,.8.57,2.1,2.1,0,0,1,.49.58,1.46,1.46,0,0,1,.19.74,1.35,1.35,0,0,1-.25.82,1.57,1.57,0,0,1-.67.52,2.37,2.37,0,0,1-.93.18,2.25,2.25,0,0,1-.86-0.15,2.54,2.54,0,0,1-.44-0.29,0.14,0.14,0,0,0-.1,0q-0.16,0-.22.41h-0.25q0-.62,0-2.16h0.25A5.51,5.51,0,0,0,288.68,254.83Zm9.06-6.39a0.41,0.41,0,0,0-.24.25,1.92,1.92,0,0,0-.07.59v5.38a1.92,1.92,0,0,0,.07.59,0.4,0.4,0,0,0,.24.25,1.92,1.92,0,0,0,.57.08v0.22q-0.5,0-1.38,0t-1.39,0V255.6a1.92,1.92,0,0,0,.57-0.08,0.4,0.4,0,0,0,.24-0.25,1.92,1.92,0,0,0,.07-0.59v-5.37a1.92,1.92,0,0,0-.07-0.59,0.41,0.41,0,0,0-.24-0.25,1.91,1.91,0,0,0-.57-0.08v-0.22q0.45,0,1.39,0t1.38,0v0.22A1.91,1.91,0,0,0,297.74,248.45Zm3.64,1.95a1.81,1.81,0,0,1,1-.31,1.79,1.79,0,0,1,1,.31,2.06,2.06,0,0,1,.72.92,3.66,3.66,0,0,1,.26,1.45,4.53,4.53,0,0,1-.26,1.56,2.66,2.66,0,0,1-.82,1.18,2.13,2.13,0,0,1-1.39.46,1.71,1.71,0,0,1-.75-0.16,1.31,1.31,0,0,1-.52-0.43v1.39a0.68,0.68,0,0,0,.26.61,1.44,1.44,0,0,0,.78.17v0.23l-0.62,0-0.94,0-0.71,0-0.46,0v-0.23a0.83,0.83,0,0,0,.56-0.15,0.7,0.7,0,0,0,.16-0.53v-5.46a1.17,1.17,0,0,0-.18-0.73,0.78,0.78,0,0,0-.64-0.23v-0.23q0.34,0,.67,0a3.59,3.59,0,0,0,1.13-.15v1.14A2,2,0,0,1,301.37,250.4Zm-0.25,5.14a1.26,1.26,0,0,0,.7.19q1.55,0,1.55-2.8,0-2.51-1.26-2.51a1.28,1.28,0,0,0-.88.35,2,2,0,0,0-.56,1V255A1.25,1.25,0,0,0,301.12,255.53Zm8-5.13a2.16,2.16,0,0,1,.87,1,4.48,4.48,0,0,1,0,3.32,2.14,2.14,0,0,1-.87,1,2.75,2.75,0,0,1-2.53,0,2.14,2.14,0,0,1-.87-1,4.47,4.47,0,0,1,0-3.32,2.15,2.15,0,0,1,.87-1A2.73,2.73,0,0,1,309.17,250.4Zm-2.3.57a5.79,5.79,0,0,0,0,4.12,1.13,1.13,0,0,0,2.06,0,5.79,5.79,0,0,0,0-4.12A1.13,1.13,0,0,0,306.87,251Zm9.43,4.39a0.79,0.79,0,0,0,.64.22v0.23q-0.34,0-.67,0a3.42,3.42,0,0,0-1.13.15v-1a1.57,1.57,0,0,1-.59.74,1.7,1.7,0,0,1-.95.25,2.1,2.1,0,0,1-1.18-.33,2.07,2.07,0,0,1-.76-1,4.25,4.25,0,0,1-.26-1.62,3.53,3.53,0,0,1,.33-1.61,2.29,2.29,0,0,1,2.12-1.33,1.83,1.83,0,0,1,.76.16,1.18,1.18,0,0,1,.54.48v-2.11a1.15,1.15,0,0,0-.18-0.73,0.79,0.79,0,0,0-.64-0.23v-0.23q0.34,0,.67,0a3.41,3.41,0,0,0,1.13-.15v7.32A1.16,1.16,0,0,0,316.3,255.37Zm-2.37-5a1.13,1.13,0,0,0-.77.3,2,2,0,0,0-.53.9,4.93,4.93,0,0,0-.19,1.49,4,4,0,0,0,.37,2,1.2,1.2,0,0,0,1.1.65,1,1,0,0,0,.53-0.14,1.29,1.29,0,0,0,.43-0.43,1.92,1.92,0,0,0,.26-0.68v-3.22A1.18,1.18,0,0,0,313.93,250.34Zm9.13,0.2a1.09,1.09,0,0,0-.74-0.23,1.3,1.3,0,0,0-1.07.39,0.66,0.66,0,0,1,.51.66,0.55,0.55,0,0,1-.17.43,0.66,0.66,0,0,1-.46.16,0.53,0.53,0,0,1-.43-0.19,0.73,0.73,0,0,1-.16-0.49,1,1,0,0,1,.51-0.77,2.46,2.46,0,0,1,.65-0.29,3,3,0,0,1,.87-0.12,2.57,2.57,0,0,1,.78.11,1.29,1.29,0,0,1,.53.3,1.34,1.34,0,0,1,.34.59,3.64,3.64,0,0,1,.09.93v3a0.76,0.76,0,0,0,.08.39,0.28,0.28,0,0,0,.26.12,0.52,0.52,0,0,0,.24-0.06,1.41,1.41,0,0,0,.24-0.17l0.12,0.19-0.32.22a1.15,1.15,0,0,1-.29.13,1.37,1.37,0,0,1-.38,0,0.87,0.87,0,0,1-.73-0.26,1.11,1.11,0,0,1-.2-0.7,1.88,1.88,0,0,1-.76.74,2,2,0,0,1-.9.22,1.78,1.78,0,0,1-.69-0.13,1.11,1.11,0,0,1-.5-0.4,1.17,1.17,0,0,1-.19-0.68,1.2,1.2,0,0,1,.2-0.7,1.8,1.8,0,0,1,.57-0.51,8,8,0,0,1,1-.48l0.52-.21a2,2,0,0,0,.6-0.34,0.5,0.5,0,0,0,.18-0.37V251.4A1.12,1.12,0,0,0,323.06,250.54Zm0,2.2-0.77.39a3.45,3.45,0,0,0-.53.3,1.32,1.32,0,0,0-.37.42,1.28,1.28,0,0,0-.15.65,1,1,0,0,0,.24.71,0.84,0.84,0,0,0,.63.24,1.44,1.44,0,0,0,1.22-.82v-2.13A0.76,0.76,0,0,1,323.06,252.74Zm5.06-2.34a2,2,0,0,1,1.09-.31,1.52,1.52,0,0,1,1.15.41,1.31,1.31,0,0,1,.29.55,3.51,3.51,0,0,1,.09.88v2.89a1.1,1.1,0,0,0,.08.47,0.46,0.46,0,0,0,.26.24,1.38,1.38,0,0,0,.48.07v0.23l-1.3,0-1.21,0v-0.23a1,1,0,0,0,.42-0.07,0.43,0.43,0,0,0,.22-0.24,1.25,1.25,0,0,0,.07-0.47v-3.13a3,3,0,0,0-.06-0.66,0.77,0.77,0,0,0-.25-0.43,0.85,0.85,0,0,0-.56-0.16,1.29,1.29,0,0,0-.79.26,1.68,1.68,0,0,0-.54.71,2.56,2.56,0,0,0-.19,1v2.41a1.25,1.25,0,0,0,.07.47,0.43,0.43,0,0,0,.23.24,1.05,1.05,0,0,0,.42.07v0.23l-1.22,0-1.3,0v-0.23a1.38,1.38,0,0,0,.48-0.07,0.46,0.46,0,0,0,.26-0.24,1.11,1.11,0,0,0,.08-0.47v-3.39a1.17,1.17,0,0,0-.18-0.73,0.78,0.78,0,0,0-.64-0.23v-0.23q0.34,0,.67,0a3.6,3.6,0,0,0,1.13-.15v1.27A2,2,0,0,1,328.12,250.4Zm9,5a0.79,0.79,0,0,0,.64.22v0.23q-0.34,0-.67,0a3.42,3.42,0,0,0-1.13.15v-1a1.57,1.57,0,0,1-.59.74,1.7,1.7,0,0,1-.95.25,2.1,2.1,0,0,1-1.18-.33,2.07,2.07,0,0,1-.76-1,4.25,4.25,0,0,1-.26-1.62,3.53,3.53,0,0,1,.33-1.61,2.29,2.29,0,0,1,2.12-1.33,1.83,1.83,0,0,1,.76.16,1.18,1.18,0,0,1,.54.48v-2.11a1.15,1.15,0,0,0-.18-0.73,0.79,0.79,0,0,0-.64-0.23v-0.23q0.34,0,.67,0a3.41,3.41,0,0,0,1.13-.15v7.32A1.16,1.16,0,0,0,337.16,255.37Zm-2.37-5a1.13,1.13,0,0,0-.77.3,2,2,0,0,0-.53.9,4.93,4.93,0,0,0-.19,1.49,4,4,0,0,0,.37,2,1.2,1.2,0,0,0,1.1.65,1,1,0,0,0,.53-0.14,1.29,1.29,0,0,0,.43-0.43,1.92,1.92,0,0,0,.26-0.68v-3.22A1.18,1.18,0,0,0,334.79,250.34Zm8.79,0.06a2,2,0,0,1,1.09-.31,1.52,1.52,0,0,1,1.15.41,1.31,1.31,0,0,1,.29.55,3.51,3.51,0,0,1,.09.88v2.89a1.1,1.1,0,0,0,.08.47,0.46,0.46,0,0,0,.26.24,1.38,1.38,0,0,0,.48.07v0.23l-1.3,0-1.21,0v-0.23a1,1,0,0,0,.42-0.07,0.43,0.43,0,0,0,.22-0.24,1.25,1.25,0,0,0,.07-0.47v-3.13a3,3,0,0,0-.06-0.66,0.77,0.77,0,0,0-.25-0.43,0.85,0.85,0,0,0-.56-0.16,1.29,1.29,0,0,0-.79.26,1.68,1.68,0,0,0-.54.71,2.56,2.56,0,0,0-.19,1v2.41a1.25,1.25,0,0,0,.07.47,0.43,0.43,0,0,0,.23.24,1.05,1.05,0,0,0,.42.07v0.23l-1.22,0-1.3,0v-0.23a1.38,1.38,0,0,0,.48-0.07,0.46,0.46,0,0,0,.26-0.24,1.11,1.11,0,0,0,.08-0.47v-3.39a1.17,1.17,0,0,0-.18-0.73,0.78,0.78,0,0,0-.64-0.23v-0.23q0.34,0,.67,0a3.6,3.6,0,0,0,1.13-.15v1.27A2,2,0,0,1,343.59,250.4Zm7.84,0a2.16,2.16,0,0,1,.87,1,4.48,4.48,0,0,1,0,3.32,2.14,2.14,0,0,1-.87,1,2.75,2.75,0,0,1-2.53,0,2.14,2.14,0,0,1-.87-1,4.47,4.47,0,0,1,0-3.32,2.15,2.15,0,0,1,.87-1A2.73,2.73,0,0,1,351.43,250.4Zm-2.3.57a5.79,5.79,0,0,0,0,4.12,1.13,1.13,0,0,0,2.06,0,5.79,5.79,0,0,0,0-4.12A1.13,1.13,0,0,0,349.13,251Zm13.91-.7c0.32,0,.6,0,0.83,0v0.22a0.68,0.68,0,0,0-.4.2,1.36,1.36,0,0,0-.3.57l-1.57,4.66H361.4l-1.72-4.36-1.54,4.36H358l-1.78-4.8a1.11,1.11,0,0,0-.31-0.49,0.55,0.55,0,0,0-.32-0.11v-0.23a6.37,6.37,0,0,0,1,.07q0.48,0,1.41-.07v0.23a2.42,2.42,0,0,0-.53,0,0.3,0.3,0,0,0-.22.24,1.21,1.21,0,0,0,.1.63l1.08,3.12,1.55-4.3h0.25l1.66,4.39,1-3.11a1.79,1.79,0,0,0,.1-0.49,0.42,0.42,0,0,0-.19-0.38,1.34,1.34,0,0,0-.62-0.15v-0.22Zm4,0.27a1.09,1.09,0,0,0-.74-0.23,1.3,1.3,0,0,0-1.07.39,0.66,0.66,0,0,1,.51.66,0.55,0.55,0,0,1-.17.43,0.66,0.66,0,0,1-.46.16,0.53,0.53,0,0,1-.43-0.19,0.73,0.73,0,0,1-.16-0.49,1,1,0,0,1,.51-0.77,2.44,2.44,0,0,1,.65-0.29,3,3,0,0,1,.86-0.12,2.57,2.57,0,0,1,.78.11,1.29,1.29,0,0,1,.53.3,1.34,1.34,0,0,1,.34.59,3.66,3.66,0,0,1,.09.93v3a0.77,0.77,0,0,0,.08.39,0.28,0.28,0,0,0,.26.12,0.52,0.52,0,0,0,.24-0.06,1.43,1.43,0,0,0,.24-0.17l0.12,0.19-0.32.22a1.16,1.16,0,0,1-.29.13,1.37,1.37,0,0,1-.38,0,0.87,0.87,0,0,1-.73-0.26,1.11,1.11,0,0,1-.2-0.7,1.89,1.89,0,0,1-.76.74,2,2,0,0,1-.91.22,1.78,1.78,0,0,1-.69-0.13,1.11,1.11,0,0,1-.5-0.4,1.17,1.17,0,0,1-.19-0.68,1.21,1.21,0,0,1,.2-0.7,1.8,1.8,0,0,1,.57-0.51,8.11,8.11,0,0,1,1-.48l0.52-.21a2,2,0,0,0,.6-0.34,0.5,0.5,0,0,0,.18-0.37V251.4A1.12,1.12,0,0,0,367,250.54Zm0,2.2-0.77.39a3.46,3.46,0,0,0-.53.3,1.33,1.33,0,0,0-.37.42,1.27,1.27,0,0,0-.15.65,1,1,0,0,0,.24.71,0.84,0.84,0,0,0,.63.24,1.44,1.44,0,0,0,1.22-.82v-2.13A0.76,0.76,0,0,1,367,252.74Zm6.67-2.47c0.32,0,.6,0,0.83,0v0.22a0.65,0.65,0,0,0-.39.2,1.6,1.6,0,0,0-.32.57L372,255.87l-0.37.94a2,2,0,0,1-.46.76,1.21,1.21,0,0,1-.85.28,0.8,0.8,0,0,1-.53-0.17,0.59,0.59,0,0,1-.21-0.48,0.53,0.53,0,0,1,.58-0.57,0.59,0.59,0,0,1,.39.13,0.47,0.47,0,0,1,.16.38,0.53,0.53,0,0,1-.29.49h0.06a1,1,0,0,0,.92-0.85l0.39-1-2-4.73a1.22,1.22,0,0,0-.37-0.49,0.68,0.68,0,0,0-.37-0.12v-0.23a7.9,7.9,0,0,0,1.06.07q0.47,0,1.41-.07v0.23l-0.41,0a0.46,0.46,0,0,0-.25.1,0.32,0.32,0,0,0-.1.26,1.53,1.53,0,0,0,.14.53l1.31,3.24,1.2-3.14a1.57,1.57,0,0,0,.12-0.5,0.41,0.41,0,0,0-.19-0.38,1.35,1.35,0,0,0-.62-0.15v-0.22Zm6.87,0v0.22H379v4.19a1.13,1.13,0,0,0,.17.71,0.63,0.63,0,0,0,.52.21,0.74,0.74,0,0,0,.58-0.27,2.22,2.22,0,0,0,.4-0.89l0.21,0.05a1.46,1.46,0,0,1-1.41,1.5,1.77,1.77,0,0,1-.6-0.09,1.15,1.15,0,0,1-.42-0.27,1.32,1.32,0,0,1-.33-0.58,3.66,3.66,0,0,1-.09-0.93v-3.63h-1v-0.22h1v-1.66a3,3,0,0,0,1-.15v1.81h1.6Zm4.4,0.15a2.16,2.16,0,0,1,.87,1,4.47,4.47,0,0,1,0,3.32,2.14,2.14,0,0,1-.87,1,2.75,2.75,0,0,1-2.53,0,2.14,2.14,0,0,1-.87-1,4.49,4.49,0,0,1,0-3.32,2.16,2.16,0,0,1,.87-1A2.73,2.73,0,0,1,385,250.4Zm-2.3.57a5.8,5.8,0,0,0,0,4.12,1.13,1.13,0,0,0,2.06,0,5.78,5.78,0,0,0,0-4.12A1.13,1.13,0,0,0,382.66,251Zm9.43-.58a1.81,1.81,0,0,1,1-.31,1.79,1.79,0,0,1,1,.31,2.07,2.07,0,0,1,.72.92,3.68,3.68,0,0,1,.26,1.45,4.51,4.51,0,0,1-.26,1.56,2.67,2.67,0,0,1-.82,1.18,2.13,2.13,0,0,1-1.39.46,1.71,1.71,0,0,1-.75-0.16,1.31,1.31,0,0,1-.52-0.43v1.39a0.68,0.68,0,0,0,.26.61,1.43,1.43,0,0,0,.78.17v0.23l-0.62,0-0.94,0-0.71,0-0.46,0v-0.23a0.82,0.82,0,0,0,.56-0.15,0.7,0.7,0,0,0,.16-0.53v-5.46a1.17,1.17,0,0,0-.18-0.73,0.78,0.78,0,0,0-.64-0.23v-0.23c0.23,0,.45,0,0.67,0a3.59,3.59,0,0,0,1.13-.15v1.14A2,2,0,0,1,392.09,250.4Zm-0.25,5.14a1.26,1.26,0,0,0,.7.19q1.55,0,1.55-2.8,0-2.51-1.26-2.51a1.28,1.28,0,0,0-.88.35,2,2,0,0,0-.56,1V255A1.25,1.25,0,0,0,391.85,255.53Zm5.93-.25a0.46,0.46,0,0,0,.26.24,1.37,1.37,0,0,0,.48.07v0.23l-1.31,0-1.31,0v-0.23a1.37,1.37,0,0,0,.48-0.07,0.46,0.46,0,0,0,.26-0.24,1.1,1.1,0,0,0,.08-0.47v-6.19a1.16,1.16,0,0,0-.18-0.73,0.79,0.79,0,0,0-.64-0.23v-0.23c0.23,0,.45,0,0.67,0a3.41,3.41,0,0,0,1.13-.15v7.49A1.1,1.1,0,0,0,397.77,255.28Zm4.18-4.75a1.09,1.09,0,0,0-.74-0.23,1.3,1.3,0,0,0-1.07.39,0.66,0.66,0,0,1,.51.66,0.55,0.55,0,0,1-.17.43,0.66,0.66,0,0,1-.46.16,0.53,0.53,0,0,1-.43-0.19,0.73,0.73,0,0,1-.16-0.49,1,1,0,0,1,.51-0.77,2.44,2.44,0,0,1,.65-0.29,3,3,0,0,1,.86-0.12,2.57,2.57,0,0,1,.78.11,1.29,1.29,0,0,1,.53.3,1.34,1.34,0,0,1,.34.59,3.66,3.66,0,0,1,.09.93v3a0.77,0.77,0,0,0,.08.39,0.28,0.28,0,0,0,.26.12,0.52,0.52,0,0,0,.24-0.06,1.43,1.43,0,0,0,.24-0.17l0.12,0.19-0.32.22a1.16,1.16,0,0,1-.29.13,1.37,1.37,0,0,1-.38,0,0.87,0.87,0,0,1-.73-0.26,1.11,1.11,0,0,1-.2-0.7,1.89,1.89,0,0,1-.76.74,2,2,0,0,1-.91.22,1.78,1.78,0,0,1-.69-0.13,1.11,1.11,0,0,1-.5-0.4,1.17,1.17,0,0,1-.19-0.68,1.21,1.21,0,0,1,.2-0.7,1.8,1.8,0,0,1,.57-0.51,8.11,8.11,0,0,1,1-.48l0.52-.21a2,2,0,0,0,.6-0.34,0.5,0.5,0,0,0,.18-0.37V251.4A1.12,1.12,0,0,0,402,250.54Zm0,2.2-0.77.39a3.46,3.46,0,0,0-.53.3,1.33,1.33,0,0,0-.37.42,1.27,1.27,0,0,0-.15.65,1,1,0,0,0,.24.71,0.84,0.84,0,0,0,.63.24,1.44,1.44,0,0,0,1.22-.82v-2.13A0.76,0.76,0,0,1,402,252.74Zm6.67-2.47c0.32,0,.6,0,0.83,0v0.22a0.65,0.65,0,0,0-.39.2,1.6,1.6,0,0,0-.32.57L407,255.87l-0.37.94a2,2,0,0,1-.46.76,1.21,1.21,0,0,1-.85.28,0.8,0.8,0,0,1-.53-0.17,0.59,0.59,0,0,1-.21-0.48,0.53,0.53,0,0,1,.58-0.57,0.59,0.59,0,0,1,.39.13,0.47,0.47,0,0,1,.16.38,0.53,0.53,0,0,1-.29.49h0.06a1,1,0,0,0,.92-0.85l0.39-1-2-4.73a1.22,1.22,0,0,0-.37-0.49,0.68,0.68,0,0,0-.37-0.12v-0.23a7.9,7.9,0,0,0,1.06.07q0.47,0,1.41-.07v0.23l-0.41,0a0.46,0.46,0,0,0-.25.1,0.32,0.32,0,0,0-.1.26,1.53,1.53,0,0,0,.14.53l1.31,3.24,1.2-3.14a1.57,1.57,0,0,0,.12-0.5,0.41,0.41,0,0,0-.19-0.38,1.35,1.35,0,0,0-.62-0.15v-0.22Zm5.54,5a0.46,0.46,0,0,0,.26.24,1.38,1.38,0,0,0,.48.07v0.23l-1.31,0-1.31,0v-0.23a1.37,1.37,0,0,0,.48-0.07,0.46,0.46,0,0,0,.26-0.24,1.1,1.1,0,0,0,.08-0.47v-3.39a1.16,1.16,0,0,0-.18-0.73,0.78,0.78,0,0,0-.64-0.23v-0.23c0.23,0,.45,0,0.67,0a3.59,3.59,0,0,0,1.13-.15v4.69A1.1,1.1,0,0,0,414.15,255.28Zm-0.3-7.66a0.73,0.73,0,0,1,.25.25,0.66,0.66,0,0,1,.09.34,0.67,0.67,0,0,1-.09.35,0.7,0.7,0,0,1-.25.25,0.67,0.67,0,0,1-.34.09,0.69,0.69,0,0,1-.35-0.09,0.67,0.67,0,0,1-.25-0.25,0.69,0.69,0,0,1-.09-0.35,0.67,0.67,0,0,1,.09-0.34,0.7,0.7,0,0,1,.25-0.25,0.67,0.67,0,0,1,.35-0.1A0.66,0.66,0,0,1,413.86,247.62Zm4.95,2.62v0.22h-1.6v4.19a1.13,1.13,0,0,0,.17.71,0.63,0.63,0,0,0,.52.21,0.74,0.74,0,0,0,.58-0.27,2.22,2.22,0,0,0,.4-0.89l0.21,0.05a1.46,1.46,0,0,1-1.41,1.5,1.77,1.77,0,0,1-.6-0.09,1.15,1.15,0,0,1-.42-0.27,1.32,1.32,0,0,1-.33-0.58,3.66,3.66,0,0,1-.09-0.93v-3.63h-1v-0.22h1v-1.66a3,3,0,0,0,1-.15v1.81h1.6Zm1.88,4.43a0.68,0.68,0,0,1,.25.25,0.69,0.69,0,0,1,.09.35,0.67,0.67,0,0,1-.09.34,0.7,0.7,0,0,1-.25.25,0.68,0.68,0,0,1-.69,0,0.7,0.7,0,0,1-.25-0.25,0.67,0.67,0,0,1-.09-0.34,0.69,0.69,0,0,1,.09-0.35,0.68,0.68,0,0,1,.25-0.25A0.7,0.7,0,0,1,420.68,254.68ZM226.25,280.43q0,0.61.07,1.39-0.74,0-2.48,0-2.08,0-3.14,0V281.6a1.92,1.92,0,0,0,.57-0.08,0.4,0.4,0,0,0,.24-0.25,1.92,1.92,0,0,0,.07-0.59V275.3a1.92,1.92,0,0,0-.07-0.59,0.41,0.41,0,0,0-.24-0.25,1.91,1.91,0,0,0-.57-0.08v-0.22q1.06,0,3.14,0,1.59,0,2.26,0a12.44,12.44,0,0,0-.07,1.28,5.5,5.5,0,0,0,0,.67h-0.25a5.25,5.25,0,0,0-.2-1,0.87,0.87,0,0,0-.4-0.5,1.83,1.83,0,0,0-.85-0.16h-0.9a1.83,1.83,0,0,0-.57.06,0.39,0.39,0,0,0-.24.25,1.9,1.9,0,0,0-.07.59v2.56h0.72a0.75,0.75,0,0,0,.73-0.33,1.84,1.84,0,0,0,.22-0.66q0-.34.06-0.44h0.25q0,0.53,0,1V278q0,0.55.06,1.54h-0.25s0-.22-0.06-0.52a1.06,1.06,0,0,0-.29-0.68,1,1,0,0,0-.68-0.23h-0.72v2.6a1.89,1.89,0,0,0,.07.59,0.39,0.39,0,0,0,.24.25,1.84,1.84,0,0,0,.57.06h0.79a2.32,2.32,0,0,0,1-.18,1.05,1.05,0,0,0,.51-0.58,4.8,4.8,0,0,0,.24-1.16h0.25A7.63,7.63,0,0,0,226.25,280.43Zm3.46-4a2,2,0,0,1,1.09-.31,1.52,1.52,0,0,1,1.15.41,1.31,1.31,0,0,1,.29.55,3.51,3.51,0,0,1,.09.88v2.89a1.1,1.1,0,0,0,.08.47,0.46,0.46,0,0,0,.26.24,1.38,1.38,0,0,0,.48.07v0.23l-1.3,0-1.21,0v-0.23a1,1,0,0,0,.42-0.07,0.43,0.43,0,0,0,.22-0.24,1.25,1.25,0,0,0,.07-0.47v-3.13a3,3,0,0,0-.06-0.66,0.77,0.77,0,0,0-.25-0.43,0.85,0.85,0,0,0-.56-0.16,1.29,1.29,0,0,0-.79.26,1.68,1.68,0,0,0-.54.71,2.56,2.56,0,0,0-.19,1v2.41a1.25,1.25,0,0,0,.07.47,0.43,0.43,0,0,0,.23.24,1.05,1.05,0,0,0,.42.07v0.23l-1.22,0-1.3,0v-0.23a1.38,1.38,0,0,0,.48-0.07,0.46,0.46,0,0,0,.26-0.24,1.11,1.11,0,0,0,.08-0.47v-3.39a1.17,1.17,0,0,0-.18-0.73,0.78,0.78,0,0,0-.64-0.23v-0.23q0.34,0,.67,0a3.6,3.6,0,0,0,1.13-.15v1.27A2,2,0,0,1,229.71,276.4Zm7.27-.15v0.22h-1.6v4.19a1.13,1.13,0,0,0,.17.71,0.63,0.63,0,0,0,.52.21,0.74,0.74,0,0,0,.58-0.27,2.23,2.23,0,0,0,.4-0.89l0.21,0.05a1.46,1.46,0,0,1-1.41,1.5,1.77,1.77,0,0,1-.6-0.09,1.15,1.15,0,0,1-.42-0.27,1.32,1.32,0,0,1-.33-0.58,3.65,3.65,0,0,1-.1-0.93v-3.63h-1v-0.22h1v-1.66a3,3,0,0,0,1-.15v1.81H237Zm4.78,5a2.13,2.13,0,0,1-.69.54,2.06,2.06,0,0,1-.93.21,2.47,2.47,0,0,1-1.34-.35,2.26,2.26,0,0,1-.86-1,3.45,3.45,0,0,1-.3-1.47,4.07,4.07,0,0,1,.3-1.63,2.4,2.4,0,0,1,.85-1.07,2.26,2.26,0,0,1,1.29-.37,1.9,1.9,0,0,1,1.5.59,2.62,2.62,0,0,1,.53,1.79h-3.39a5.49,5.49,0,0,0,0,.69,3.07,3.07,0,0,0,.24,1.25,2,2,0,0,0,.62.82,1.32,1.32,0,0,0,.8.29,1.66,1.66,0,0,0,1.59-1.08l0.22,0.08A2.16,2.16,0,0,1,241.76,281.23Zm-0.77-4a1.64,1.64,0,0,0-.35-0.71,0.76,0.76,0,0,0-.59-0.26,1,1,0,0,0-.61.21,1.61,1.61,0,0,0-.47.66,3.44,3.44,0,0,0-.25,1.1h2.36A3.55,3.55,0,0,0,241,277.27Zm4.1-.45a2.06,2.06,0,0,1,.55-0.52,1.21,1.21,0,0,1,.67-0.21,1.11,1.11,0,0,1,.51.11,0.89,0.89,0,0,1,.35.31,0.77,0.77,0,0,1,.13.43,0.72,0.72,0,0,1-.17.48,0.56,0.56,0,0,1-.45.2,0.59,0.59,0,0,1-.41-0.15,0.52,0.52,0,0,1-.17-0.41,0.68,0.68,0,0,1,.37-0.59,0.26,0.26,0,0,0-.23-0.11,1.09,1.09,0,0,0-.77.33,2.29,2.29,0,0,0-.54.81,2.4,2.4,0,0,0-.2.9v2.3a0.78,0.78,0,0,0,.29.7,1.56,1.56,0,0,0,.86.19v0.23l-1.67,0-1.28,0v-0.23a1.38,1.38,0,0,0,.48-0.07,0.46,0.46,0,0,0,.26-0.24,1.11,1.11,0,0,0,.08-0.47v-3.39a1.17,1.17,0,0,0-.18-0.73,0.78,0.78,0,0,0-.64-0.23v-0.23q0.34,0,.67,0a3.6,3.6,0,0,0,1.13-.15v1.35A2.63,2.63,0,0,1,245.09,276.82Zm9.08-.55q0.48,0,.83,0v0.22a0.65,0.65,0,0,0-.39.2,1.61,1.61,0,0,0-.32.57l-1.78,4.66-0.37.94a1.94,1.94,0,0,1-.47.76,1.21,1.21,0,0,1-.85.28,0.8,0.8,0,0,1-.53-0.17,0.59,0.59,0,0,1-.21-0.48,0.53,0.53,0,0,1,.58-0.57,0.59,0.59,0,0,1,.39.13,0.47,0.47,0,0,1,.16.38,0.53,0.53,0,0,1-.29.49H251a1.05,1.05,0,0,0,.92-0.85l0.39-1-2-4.73a1.22,1.22,0,0,0-.37-0.49,0.68,0.68,0,0,0-.37-0.12v-0.23a7.92,7.92,0,0,0,1.06.07q0.47,0,1.41-.07v0.23l-0.41,0a0.46,0.46,0,0,0-.25.1,0.32,0.32,0,0,0-.1.26,1.53,1.53,0,0,0,.14.53l1.31,3.24,1.2-3.14a1.56,1.56,0,0,0,.12-0.5,0.41,0.41,0,0,0-.19-0.38,1.36,1.36,0,0,0-.62-0.15v-0.22Zm5.07,0.13a2.16,2.16,0,0,1,.87,1,4.48,4.48,0,0,1,0,3.32,2.14,2.14,0,0,1-.87,1,2.75,2.75,0,0,1-2.53,0,2.14,2.14,0,0,1-.87-1,4.47,4.47,0,0,1,0-3.32,2.15,2.15,0,0,1,.87-1A2.73,2.73,0,0,1,259.24,276.4Zm-2.3.57a5.79,5.79,0,0,0,0,4.12,1.13,1.13,0,0,0,2.06,0,5.79,5.79,0,0,0,0-4.12A1.13,1.13,0,0,0,256.94,277Zm9.41,4.4a0.79,0.79,0,0,0,.64.23v0.23q-0.34,0-.67,0a3.41,3.41,0,0,0-1.13.15v-1.28a2,2,0,0,1-.74,1,1.83,1.83,0,0,1-1,.32,1.49,1.49,0,0,1-1.13-.41A1.21,1.21,0,0,1,262,281a3.78,3.78,0,0,1-.08-0.87v-2.72a1.18,1.18,0,0,0-.18-0.73,0.77,0.77,0,0,0-.64-0.23v-0.23q0.34,0,.67,0a3.62,3.62,0,0,0,1.13-.15v4.26a3.75,3.75,0,0,0,0,.67,0.72,0.72,0,0,0,.23.42,0.79,0.79,0,0,0,.54.16,1.19,1.19,0,0,0,.75-0.26,1.73,1.73,0,0,0,.52-0.71,2.52,2.52,0,0,0,.19-1v-2.24a1.17,1.17,0,0,0-.18-0.73,0.78,0.78,0,0,0-.64-0.23v-0.23q0.34,0,.67,0a3.59,3.59,0,0,0,1.13-.15v4.53A1.16,1.16,0,0,0,266.35,281.38Zm3.34-4.56a2.06,2.06,0,0,1,.55-0.52,1.21,1.21,0,0,1,.67-0.21,1.11,1.11,0,0,1,.51.11,0.89,0.89,0,0,1,.35.31,0.77,0.77,0,0,1,.13.43,0.72,0.72,0,0,1-.17.48,0.56,0.56,0,0,1-.45.2,0.59,0.59,0,0,1-.41-0.15,0.52,0.52,0,0,1-.17-0.41,0.68,0.68,0,0,1,.37-0.59,0.26,0.26,0,0,0-.23-0.11,1.09,1.09,0,0,0-.77.33,2.29,2.29,0,0,0-.54.81,2.4,2.4,0,0,0-.2.9v2.3a0.78,0.78,0,0,0,.29.7,1.56,1.56,0,0,0,.86.19v0.23l-1.67,0-1.28,0v-0.23a1.38,1.38,0,0,0,.48-0.07,0.46,0.46,0,0,0,.26-0.24,1.11,1.11,0,0,0,.08-0.47v-3.39a1.17,1.17,0,0,0-.18-0.73,0.78,0.78,0,0,0-.64-0.23v-0.23q0.34,0,.67,0a3.6,3.6,0,0,0,1.13-.15v1.35A2.63,2.63,0,0,1,269.69,276.82Zm8.35-.57v0.22h-1.6v4.19a1.13,1.13,0,0,0,.17.71,0.63,0.63,0,0,0,.52.21,0.74,0.74,0,0,0,.58-0.27,2.23,2.23,0,0,0,.4-0.89l0.21,0.05a1.46,1.46,0,0,1-1.41,1.5,1.77,1.77,0,0,1-.6-0.09,1.15,1.15,0,0,1-.42-0.27,1.32,1.32,0,0,1-.33-0.58,3.65,3.65,0,0,1-.1-0.93v-3.63h-1v-0.22h1v-1.66a3,3,0,0,0,1-.15v1.81H278Zm2.94,0.15a2,2,0,0,1,1.09-.3,1.52,1.52,0,0,1,1.15.41,1.28,1.28,0,0,1,.29.55,3.51,3.51,0,0,1,.09.88v2.89a1.1,1.1,0,0,0,.08.47,0.46,0.46,0,0,0,.26.24,1.37,1.37,0,0,0,.48.07v0.23l-1.3,0-1.22,0v-0.23a1.06,1.06,0,0,0,.42-0.07,0.43,0.43,0,0,0,.23-0.24,1.25,1.25,0,0,0,.07-0.47v-3.13a2.86,2.86,0,0,0-.06-0.66,0.79,0.79,0,0,0-.26-0.43,0.84,0.84,0,0,0-.56-0.16,1.3,1.3,0,0,0-.79.25,1.64,1.64,0,0,0-.54.7,2.54,2.54,0,0,0-.19,1v2.42a1.25,1.25,0,0,0,.07.47,0.43,0.43,0,0,0,.22.24,1,1,0,0,0,.42.07v0.23l-1.21,0-1.3,0v-0.23a1.38,1.38,0,0,0,.48-0.07,0.46,0.46,0,0,0,.26-0.24,1.11,1.11,0,0,0,.08-0.47v-6.18a1.16,1.16,0,0,0-.18-0.73,0.79,0.79,0,0,0-.64-0.22v-0.23q0.34,0,.67,0a3.41,3.41,0,0,0,1.13-.15v4.05A2,2,0,0,1,281,276.39Zm9,5a0.79,0.79,0,0,0,.64.23v0.23q-0.34,0-.67,0a3.41,3.41,0,0,0-1.13.15v-1.28a2,2,0,0,1-.74,1,1.83,1.83,0,0,1-1,.32,1.49,1.49,0,0,1-1.13-.41,1.21,1.21,0,0,1-.28-0.55,3.78,3.78,0,0,1-.08-0.87v-2.72a1.18,1.18,0,0,0-.18-0.73,0.77,0.77,0,0,0-.64-0.23v-0.23q0.34,0,.67,0a3.62,3.62,0,0,0,1.13-.15v4.26a3.75,3.75,0,0,0,0,.67,0.72,0.72,0,0,0,.23.42,0.79,0.79,0,0,0,.54.16,1.19,1.19,0,0,0,.75-0.26,1.73,1.73,0,0,0,.52-0.71,2.52,2.52,0,0,0,.19-1v-2.24a1.17,1.17,0,0,0-.18-0.73,0.78,0.78,0,0,0-.64-0.23v-0.23q0.34,0,.67,0a3.59,3.59,0,0,0,1.13-.15v4.53A1.16,1.16,0,0,0,290,281.38Zm9.6-.09a0.46,0.46,0,0,0,.26.24,1.38,1.38,0,0,0,.48.07v0.23l-1.3,0-1.21,0v-0.23a1,1,0,0,0,.42-0.07,0.43,0.43,0,0,0,.22-0.24,1.25,1.25,0,0,0,.07-0.47v-3.13a3.81,3.81,0,0,0,0-.67,0.72,0.72,0,0,0-.23-0.42,0.81,0.81,0,0,0-.55-0.16,1.19,1.19,0,0,0-.75.26,1.73,1.73,0,0,0-.52.71,2.53,2.53,0,0,0-.19,1v2.42a1.1,1.1,0,0,0,.08.47,0.46,0.46,0,0,0,.26.24,1.35,1.35,0,0,0,.48.07v0.23l-1.3,0-1.22,0v-0.23a1.05,1.05,0,0,0,.42-0.07,0.42,0.42,0,0,0,.22-0.24,1.3,1.3,0,0,0,.07-0.47v-3.13a3.81,3.81,0,0,0,0-.67,0.72,0.72,0,0,0-.23-0.42,0.8,0.8,0,0,0-.54-0.16,1.18,1.18,0,0,0-.75.26,1.75,1.75,0,0,0-.52.71,2.54,2.54,0,0,0-.19,1v2.41a1.25,1.25,0,0,0,.07.47,0.43,0.43,0,0,0,.23.24,1.05,1.05,0,0,0,.42.07v0.23l-1.22,0-1.3,0v-0.23a1.38,1.38,0,0,0,.48-0.07,0.46,0.46,0,0,0,.26-0.24,1.11,1.11,0,0,0,.08-0.47v-3.39a1.17,1.17,0,0,0-.18-0.73,0.78,0.78,0,0,0-.64-0.23v-0.23q0.34,0,.67,0a3.6,3.6,0,0,0,1.13-.15v1.27a2.06,2.06,0,0,1,.74-1,1.82,1.82,0,0,1,1-.32,1.49,1.49,0,0,1,1.13.41,1.51,1.51,0,0,1,.33.87,1.84,1.84,0,0,1,1.8-1.28,1.49,1.49,0,0,1,1.13.41,1.23,1.23,0,0,1,.27.55,3.91,3.91,0,0,1,.08.87v2.89A1.1,1.1,0,0,0,299.59,281.29Zm3.44-4.89a1.73,1.73,0,0,1,1-.3,1.78,1.78,0,0,1,1.07.33,2.16,2.16,0,0,1,.73,1,4.39,4.39,0,0,1,.26,1.62,3.6,3.6,0,0,1-.33,1.6,2.34,2.34,0,0,1-.88,1,2.29,2.29,0,0,1-1.22.34,1.94,1.94,0,0,1-.77-0.16,1.86,1.86,0,0,1-.66-0.47l-0.77.66-0.18-.08a2.33,2.33,0,0,0,.07-0.62v-6.66a1.16,1.16,0,0,0-.18-0.73,0.79,0.79,0,0,0-.64-0.22v-0.23q0.34,0,.67,0a3.41,3.41,0,0,0,1.13-.15v3.91A2,2,0,0,1,303,276.39Zm-0.11,5.19a1.7,1.7,0,0,0,.67.14,1.17,1.17,0,0,0,1.09-.66,4.39,4.39,0,0,0,.36-2,4.59,4.59,0,0,0-.33-2,1.06,1.06,0,0,0-1-.65,1.13,1.13,0,0,0-.57.16,1.52,1.52,0,0,0-.49.46,2.16,2.16,0,0,0-.32.73v3.42A1.73,1.73,0,0,0,302.93,281.59Zm6.54-5.19a2,2,0,0,1,1.09-.31,1.52,1.52,0,0,1,1.15.41,1.31,1.31,0,0,1,.29.55,3.51,3.51,0,0,1,.09.88v2.89a1.1,1.1,0,0,0,.08.47,0.46,0.46,0,0,0,.26.24,1.38,1.38,0,0,0,.48.07v0.23l-1.3,0-1.21,0v-0.23a1,1,0,0,0,.42-0.07,0.43,0.43,0,0,0,.22-0.24,1.25,1.25,0,0,0,.07-0.47v-3.13A3,3,0,0,0,311,277a0.77,0.77,0,0,0-.25-0.43,0.85,0.85,0,0,0-.56-0.16,1.29,1.29,0,0,0-.79.26,1.68,1.68,0,0,0-.54.71,2.56,2.56,0,0,0-.19,1v2.41a1.25,1.25,0,0,0,.07.47,0.43,0.43,0,0,0,.23.24,1.05,1.05,0,0,0,.42.07v0.23l-1.22,0-1.3,0v-0.23a1.38,1.38,0,0,0,.48-0.07,0.46,0.46,0,0,0,.26-0.24,1.11,1.11,0,0,0,.08-0.47v-3.39a1.17,1.17,0,0,0-.18-0.73,0.78,0.78,0,0,0-.64-0.23v-0.23q0.34,0,.67,0a3.6,3.6,0,0,0,1.13-.15v1.27A2,2,0,0,1,309.46,276.4Zm6.81,0.14a1.09,1.09,0,0,0-.74-0.23,1.3,1.3,0,0,0-1.07.39,0.66,0.66,0,0,1,.51.66,0.55,0.55,0,0,1-.17.43,0.66,0.66,0,0,1-.46.16,0.53,0.53,0,0,1-.43-0.19,0.73,0.73,0,0,1-.16-0.49,1,1,0,0,1,.51-0.77,2.46,2.46,0,0,1,.65-0.29,3,3,0,0,1,.87-0.12,2.57,2.57,0,0,1,.78.11,1.29,1.29,0,0,1,.53.3,1.34,1.34,0,0,1,.34.59,3.64,3.64,0,0,1,.09.93v3a0.76,0.76,0,0,0,.08.39,0.28,0.28,0,0,0,.26.12,0.52,0.52,0,0,0,.24-0.06,1.41,1.41,0,0,0,.24-0.17l0.12,0.19-0.32.22a1.15,1.15,0,0,1-.29.13,1.37,1.37,0,0,1-.38,0,0.87,0.87,0,0,1-.73-0.26,1.11,1.11,0,0,1-.2-0.7,1.88,1.88,0,0,1-.76.74,2,2,0,0,1-.9.22,1.78,1.78,0,0,1-.69-0.13,1.11,1.11,0,0,1-.5-0.4,1.17,1.17,0,0,1-.19-0.68,1.2,1.2,0,0,1,.2-0.7,1.8,1.8,0,0,1,.57-0.51,8,8,0,0,1,1-.48l0.52-.21a2,2,0,0,0,.6-0.34,0.5,0.5,0,0,0,.18-0.37V277.4A1.12,1.12,0,0,0,316.27,276.54Zm0,2.2-0.77.39a3.45,3.45,0,0,0-.53.3,1.32,1.32,0,0,0-.37.42,1.28,1.28,0,0,0-.15.65,1,1,0,0,0,.24.71,0.84,0.84,0,0,0,.63.24,1.44,1.44,0,0,0,1.22-.82v-2.13A0.76,0.76,0,0,1,316.27,278.74Zm4.39,2.54a0.46,0.46,0,0,0,.26.24,1.37,1.37,0,0,0,.48.07v0.23l-1.31,0-1.31,0v-0.23a1.38,1.38,0,0,0,.48-0.07,0.46,0.46,0,0,0,.26-0.24,1.11,1.11,0,0,0,.08-0.47v-3.39a1.17,1.17,0,0,0-.18-0.73,0.78,0.78,0,0,0-.64-0.23v-0.23q0.34,0,.67,0a3.6,3.6,0,0,0,1.13-.15v4.69A1.1,1.1,0,0,0,320.66,281.29Zm-0.3-7.66a0.73,0.73,0,0,1,.25.25,0.66,0.66,0,0,1,.1.34,0.67,0.67,0,0,1-.1.35,0.7,0.7,0,0,1-.25.25,0.67,0.67,0,0,1-.34.09,0.69,0.69,0,0,1-.35-0.09,0.67,0.67,0,0,1-.25-0.25,0.68,0.68,0,0,1-.09-0.35,0.67,0.67,0,0,1,.09-0.34,0.7,0.7,0,0,1,.25-0.25,0.67,0.67,0,0,1,.35-0.1A0.66,0.66,0,0,1,320.36,273.63Zm3.4,7.66a0.46,0.46,0,0,0,.26.24,1.37,1.37,0,0,0,.48.07v0.23l-1.31,0-1.31,0v-0.23a1.37,1.37,0,0,0,.48-0.07,0.46,0.46,0,0,0,.26-0.24,1.1,1.1,0,0,0,.08-0.47v-6.19a1.16,1.16,0,0,0-.18-0.73,0.79,0.79,0,0,0-.64-0.23v-0.23q0.34,0,.67,0a3.41,3.41,0,0,0,1.13-.15v7.49A1.1,1.1,0,0,0,323.76,281.29Zm7.91-4.88a2.16,2.16,0,0,1,.87,1,4.48,4.48,0,0,1,0,3.32,2.14,2.14,0,0,1-.87,1,2.75,2.75,0,0,1-2.53,0,2.14,2.14,0,0,1-.87-1,4.47,4.47,0,0,1,0-3.32,2.15,2.15,0,0,1,.87-1A2.73,2.73,0,0,1,331.67,276.4Zm-2.3.57a5.79,5.79,0,0,0,0,4.12,1.13,1.13,0,0,0,2.06,0,5.79,5.79,0,0,0,0-4.12A1.13,1.13,0,0,0,329.38,277Zm6.46-.15a2.06,2.06,0,0,1,.55-0.52,1.21,1.21,0,0,1,.67-0.21,1.11,1.11,0,0,1,.51.11,0.89,0.89,0,0,1,.35.31,0.77,0.77,0,0,1,.13.43,0.72,0.72,0,0,1-.17.48,0.56,0.56,0,0,1-.45.2,0.59,0.59,0,0,1-.41-0.15,0.52,0.52,0,0,1-.17-0.41,0.68,0.68,0,0,1,.37-0.59,0.26,0.26,0,0,0-.23-0.11,1.09,1.09,0,0,0-.77.33,2.29,2.29,0,0,0-.54.81,2.4,2.4,0,0,0-.2.9v2.3a0.78,0.78,0,0,0,.29.7,1.56,1.56,0,0,0,.86.19v0.23l-1.67,0-1.28,0v-0.23a1.38,1.38,0,0,0,.48-0.07,0.46,0.46,0,0,0,.26-0.24,1.11,1.11,0,0,0,.08-0.47v-3.39a1.17,1.17,0,0,0-.18-0.73,0.78,0.78,0,0,0-.64-0.23v-0.23q0.34,0,.67,0a3.6,3.6,0,0,0,1.13-.15v1.35A2.63,2.63,0,0,1,335.84,276.82Zm9.34,4.37a2,2,0,0,1-.66.56,2,2,0,0,1-1,.22,2.22,2.22,0,0,1-1.22-.35,2.39,2.39,0,0,1-.86-1,3.46,3.46,0,0,1-.31-1.52,3.65,3.65,0,0,1,.32-1.56,2.52,2.52,0,0,1,.9-1.07,2.32,2.32,0,0,1,1.31-.38,2.26,2.26,0,0,1,1.26.34,1,1,0,0,1,.51.84,0.6,0.6,0,0,1-.16.45,0.56,0.56,0,0,1-.41.16,0.64,0.64,0,0,1-.43-0.15,0.5,0.5,0,0,1-.17-0.4,0.59,0.59,0,0,1,.13-0.39,0.63,0.63,0,0,1,.33-0.21,0.8,0.8,0,0,0-.39-0.33,1.38,1.38,0,0,0-.59-0.13,1.24,1.24,0,0,0-.75.25,1.82,1.82,0,0,0-.58.85,4.43,4.43,0,0,0-.23,1.56,3.45,3.45,0,0,0,.43,2,1.32,1.32,0,0,0,1.13.61,1.61,1.61,0,0,0,.88-0.27,2,2,0,0,0,.69-0.85l0.21,0.07A2.45,2.45,0,0,1,345.18,281.19Zm3.21-4.37a2.06,2.06,0,0,1,.55-0.52,1.21,1.21,0,0,1,.67-0.21,1.11,1.11,0,0,1,.51.11,0.89,0.89,0,0,1,.35.31,0.77,0.77,0,0,1,.13.43,0.72,0.72,0,0,1-.17.48,0.56,0.56,0,0,1-.45.2,0.59,0.59,0,0,1-.41-0.15,0.52,0.52,0,0,1-.17-0.41,0.68,0.68,0,0,1,.37-0.59,0.26,0.26,0,0,0-.23-0.11,1.09,1.09,0,0,0-.77.33,2.29,2.29,0,0,0-.54.81,2.4,2.4,0,0,0-.2.9v2.3a0.78,0.78,0,0,0,.29.7,1.56,1.56,0,0,0,.86.19v0.23l-1.67,0-1.28,0v-0.23a1.38,1.38,0,0,0,.48-0.07,0.46,0.46,0,0,0,.26-0.24,1.11,1.11,0,0,0,.08-0.47v-3.39a1.17,1.17,0,0,0-.18-0.73,0.78,0.78,0,0,0-.64-0.23v-0.23q0.34,0,.67,0a3.6,3.6,0,0,0,1.13-.15v1.35A2.63,2.63,0,0,1,348.39,276.82Zm6.75,4.41a2.14,2.14,0,0,1-.69.54,2.06,2.06,0,0,1-.93.21,2.47,2.47,0,0,1-1.34-.35,2.26,2.26,0,0,1-.86-1,3.45,3.45,0,0,1-.3-1.47,4.07,4.07,0,0,1,.3-1.63,2.4,2.4,0,0,1,.85-1.07,2.26,2.26,0,0,1,1.29-.37,1.91,1.91,0,0,1,1.5.59,2.62,2.62,0,0,1,.53,1.79h-3.39a5.49,5.49,0,0,0,0,.69,3.07,3.07,0,0,0,.24,1.25,2,2,0,0,0,.62.82,1.32,1.32,0,0,0,.8.29,1.66,1.66,0,0,0,1.59-1.08l0.22,0.08A2.18,2.18,0,0,1,355.14,281.23Zm-0.77-4a1.64,1.64,0,0,0-.35-0.71,0.76,0.76,0,0,0-.59-0.26,1,1,0,0,0-.61.21,1.61,1.61,0,0,0-.47.66,3.44,3.44,0,0,0-.25,1.1h2.36A3.59,3.59,0,0,0,354.37,277.27Zm4.84-.74a1.09,1.09,0,0,0-.74-0.23,1.3,1.3,0,0,0-1.07.39,0.66,0.66,0,0,1,.51.66,0.55,0.55,0,0,1-.17.43,0.66,0.66,0,0,1-.46.16,0.53,0.53,0,0,1-.43-0.19,0.73,0.73,0,0,1-.16-0.49,1,1,0,0,1,.51-0.77,2.44,2.44,0,0,1,.65-0.29,3,3,0,0,1,.86-0.12,2.57,2.57,0,0,1,.78.11,1.29,1.29,0,0,1,.53.3,1.34,1.34,0,0,1,.34.59,3.66,3.66,0,0,1,.09.93v3a0.77,0.77,0,0,0,.08.39,0.28,0.28,0,0,0,.26.12,0.52,0.52,0,0,0,.24-0.06,1.43,1.43,0,0,0,.24-0.17l0.12,0.19-0.32.22a1.16,1.16,0,0,1-.29.13,1.37,1.37,0,0,1-.38,0,0.87,0.87,0,0,1-.73-0.26,1.11,1.11,0,0,1-.2-0.7,1.89,1.89,0,0,1-.76.74,2,2,0,0,1-.91.22,1.78,1.78,0,0,1-.69-0.13,1.11,1.11,0,0,1-.5-0.4,1.17,1.17,0,0,1-.19-0.68,1.21,1.21,0,0,1,.2-0.7,1.8,1.8,0,0,1,.57-0.51,8.11,8.11,0,0,1,1-.48l0.52-.21a2,2,0,0,0,.6-0.34,0.5,0.5,0,0,0,.18-0.37V277.4A1.12,1.12,0,0,0,359.21,276.54Zm0,2.2-0.77.39a3.46,3.46,0,0,0-.53.3,1.33,1.33,0,0,0-.37.42,1.27,1.27,0,0,0-.15.65,1,1,0,0,0,.24.71,0.84,0.84,0,0,0,.63.24,1.44,1.44,0,0,0,1.22-.82v-2.13A0.76,0.76,0,0,1,359.21,278.74Zm5.86-2.49v0.22h-1.6v4.19a1.13,1.13,0,0,0,.17.71,0.63,0.63,0,0,0,.52.21,0.74,0.74,0,0,0,.58-0.27,2.22,2.22,0,0,0,.4-0.89l0.21,0.05a1.46,1.46,0,0,1-1.41,1.5,1.77,1.77,0,0,1-.6-0.09,1.15,1.15,0,0,1-.42-0.27,1.32,1.32,0,0,1-.33-0.58,3.66,3.66,0,0,1-.09-0.93v-3.63h-1v-0.22h1v-1.66a3,3,0,0,0,1-.15v1.81h1.6Zm4.78,5a2.14,2.14,0,0,1-.69.54,2.07,2.07,0,0,1-.93.21,2.47,2.47,0,0,1-1.34-.35,2.26,2.26,0,0,1-.86-1,3.45,3.45,0,0,1-.3-1.47,4.07,4.07,0,0,1,.3-1.63,2.4,2.4,0,0,1,.85-1.07,2.26,2.26,0,0,1,1.29-.37,1.91,1.91,0,0,1,1.5.59,2.62,2.62,0,0,1,.53,1.79h-3.39a5.3,5.3,0,0,0,0,.69,3.07,3.07,0,0,0,.24,1.25,2,2,0,0,0,.62.82,1.32,1.32,0,0,0,.8.29,1.66,1.66,0,0,0,1.59-1.08l0.22,0.08A2.18,2.18,0,0,1,369.85,281.23Zm-0.77-4a1.63,1.63,0,0,0-.35-0.71,0.76,0.76,0,0,0-.59-0.26,1,1,0,0,0-.61.21,1.62,1.62,0,0,0-.47.66,3.47,3.47,0,0,0-.25,1.1h2.36A3.52,3.52,0,0,0,369.08,277.27Zm8.59-1c0.32,0,.6,0,0.83,0v0.22a0.65,0.65,0,0,0-.39.2,1.6,1.6,0,0,0-.32.57L376,281.87l-0.37.94a2,2,0,0,1-.46.76,1.21,1.21,0,0,1-.85.28,0.8,0.8,0,0,1-.53-0.17,0.59,0.59,0,0,1-.21-0.48,0.53,0.53,0,0,1,.58-0.57,0.59,0.59,0,0,1,.39.13,0.47,0.47,0,0,1,.16.38,0.53,0.53,0,0,1-.29.49h0.06a1,1,0,0,0,.92-0.85l0.39-1-2-4.73a1.22,1.22,0,0,0-.37-0.49,0.68,0.68,0,0,0-.37-0.12v-0.23a7.9,7.9,0,0,0,1.06.07q0.47,0,1.41-.07v0.23l-0.41,0a0.46,0.46,0,0,0-.25.1,0.32,0.32,0,0,0-.1.26,1.53,1.53,0,0,0,.14.53l1.31,3.24,1.2-3.14a1.57,1.57,0,0,0,.12-0.5,0.41,0.41,0,0,0-.19-0.38,1.35,1.35,0,0,0-.62-0.15v-0.22Zm5.07,0.13a2.16,2.16,0,0,1,.87,1,4.47,4.47,0,0,1,0,3.32,2.14,2.14,0,0,1-.87,1,2.75,2.75,0,0,1-2.53,0,2.14,2.14,0,0,1-.87-1,4.49,4.49,0,0,1,0-3.32,2.16,2.16,0,0,1,.87-1A2.73,2.73,0,0,1,382.74,276.4Zm-2.3.57a5.8,5.8,0,0,0,0,4.12,1.13,1.13,0,0,0,2.06,0,5.78,5.78,0,0,0,0-4.12A1.13,1.13,0,0,0,380.44,277Zm9.41,4.4a0.79,0.79,0,0,0,.64.23v0.23q-0.34,0-.67,0a3.41,3.41,0,0,0-1.13.15v-1.28a2,2,0,0,1-.74,1,1.83,1.83,0,0,1-1,.32,1.49,1.49,0,0,1-1.13-.41,1.22,1.22,0,0,1-.28-0.55,3.78,3.78,0,0,1-.08-0.87v-2.72a1.18,1.18,0,0,0-.18-0.73,0.77,0.77,0,0,0-.64-0.23v-0.23c0.23,0,.45,0,0.67,0a3.62,3.62,0,0,0,1.13-.15v4.26a3.7,3.7,0,0,0,0,.67,0.72,0.72,0,0,0,.23.42,0.8,0.8,0,0,0,.54.16,1.19,1.19,0,0,0,.75-0.26,1.72,1.72,0,0,0,.52-0.71,2.52,2.52,0,0,0,.19-1v-2.24a1.16,1.16,0,0,0-.18-0.73,0.78,0.78,0,0,0-.64-0.23v-0.23c0.23,0,.45,0,0.67,0a3.59,3.59,0,0,0,1.13-.15v4.53A1.15,1.15,0,0,0,389.85,281.38Zm3.34-4.56a2.05,2.05,0,0,1,.55-0.52,1.21,1.21,0,0,1,.67-0.21,1.11,1.11,0,0,1,.51.11,0.89,0.89,0,0,1,.35.31,0.77,0.77,0,0,1,.13.43,0.72,0.72,0,0,1-.17.48,0.56,0.56,0,0,1-.45.2,0.59,0.59,0,0,1-.41-0.15,0.52,0.52,0,0,1-.17-0.41,0.68,0.68,0,0,1,.37-0.59,0.26,0.26,0,0,0-.23-0.11,1.09,1.09,0,0,0-.77.33,2.29,2.29,0,0,0-.54.81,2.41,2.41,0,0,0-.2.9v2.3a0.78,0.78,0,0,0,.29.7,1.55,1.55,0,0,0,.86.19v0.23l-1.67,0-1.28,0v-0.23a1.37,1.37,0,0,0,.48-0.07,0.46,0.46,0,0,0,.26-0.24,1.1,1.1,0,0,0,.08-0.47v-3.39a1.16,1.16,0,0,0-.18-0.73,0.78,0.78,0,0,0-.64-0.23v-0.23c0.23,0,.45,0,0.67,0a3.59,3.59,0,0,0,1.13-.15v1.35A2.63,2.63,0,0,1,393.2,276.82Zm9.06-.42a2.16,2.16,0,0,1,.87,1,4.47,4.47,0,0,1,0,3.32,2.14,2.14,0,0,1-.87,1,2.75,2.75,0,0,1-2.53,0,2.14,2.14,0,0,1-.87-1,4.49,4.49,0,0,1,0-3.32,2.16,2.16,0,0,1,.87-1A2.73,2.73,0,0,1,402.26,276.4ZM400,277a5.8,5.8,0,0,0,0,4.12,1.13,1.13,0,0,0,2.06,0,5.78,5.78,0,0,0,0-4.12A1.13,1.13,0,0,0,400,277Zm11.41-.7c0.32,0,.6,0,0.83,0v0.22a0.68,0.68,0,0,0-.4.2,1.36,1.36,0,0,0-.3.57l-1.57,4.66h-0.19L408,277.51l-1.54,4.36H406.3l-1.78-4.8a1.11,1.11,0,0,0-.31-0.49,0.55,0.55,0,0,0-.32-0.11v-0.23a6.37,6.37,0,0,0,1,.07q0.48,0,1.41-.07v0.23a2.42,2.42,0,0,0-.53,0,0.3,0.3,0,0,0-.22.24,1.21,1.21,0,0,0,.1.63l1.08,3.12,1.55-4.3h0.25l1.66,4.39,1-3.11a1.79,1.79,0,0,0,.1-0.49,0.42,0.42,0,0,0-.19-0.38,1.34,1.34,0,0,0-.62-0.15v-0.22Zm3.72,0.13a2,2,0,0,1,1.09-.31,1.52,1.52,0,0,1,1.15.41,1.3,1.3,0,0,1,.29.55,3.48,3.48,0,0,1,.09.88v2.89a1.1,1.1,0,0,0,.08.47,0.46,0.46,0,0,0,.26.24,1.37,1.37,0,0,0,.48.07v0.23l-1.3,0-1.21,0v-0.23a1,1,0,0,0,.42-0.07,0.43,0.43,0,0,0,.22-0.24,1.24,1.24,0,0,0,.07-0.47v-3.13a3,3,0,0,0-.06-0.66,0.78,0.78,0,0,0-.25-0.43,0.85,0.85,0,0,0-.56-0.16,1.28,1.28,0,0,0-.79.26,1.67,1.67,0,0,0-.54.71,2.56,2.56,0,0,0-.19,1v2.41a1.24,1.24,0,0,0,.07.47,0.43,0.43,0,0,0,.22.24,1.06,1.06,0,0,0,.42.07v0.23l-1.22,0-1.3,0v-0.23a1.37,1.37,0,0,0,.48-0.07,0.46,0.46,0,0,0,.26-0.24,1.1,1.1,0,0,0,.08-0.47v-3.39a1.16,1.16,0,0,0-.18-0.73,0.78,0.78,0,0,0-.64-0.23v-0.23c0.23,0,.45,0,0.67,0a3.59,3.59,0,0,0,1.13-.15v1.27A2,2,0,0,1,415.09,276.4Zm7.42,4.44a1.43,1.43,0,0,0,.45.68,1.3,1.3,0,0,0,.83.24,1.06,1.06,0,0,0,.46-0.1,0.85,0.85,0,0,0,.36-0.33,1.11,1.11,0,0,0,.14-0.6,1,1,0,0,0-.15-0.53,1.67,1.67,0,0,0-.39-0.42q-0.24-.19-0.68-0.46t-0.82-.56a2,2,0,0,1-.48-0.53,1.36,1.36,0,0,1-.2-0.74,1.33,1.33,0,0,1,.22-0.77,1.3,1.3,0,0,1,.58-0.47,2,2,0,0,1,.81-0.15,1.84,1.84,0,0,1,.69.12,1.92,1.92,0,0,1,.49.27,0.35,0.35,0,0,0,.19.09q0.19,0,.24-0.48h0.25q0,0.53,0,1.84h-0.25a2.67,2.67,0,0,0-.46-1.18,1.18,1.18,0,0,0-1-.47,0.93,0.93,0,0,0-.64.22,0.77,0.77,0,0,0-.25.61,0.84,0.84,0,0,0,.26.63,3.66,3.66,0,0,0,.62.48l0.52,0.33a8.85,8.85,0,0,1,.8.57,2.1,2.1,0,0,1,.49.58,1.46,1.46,0,0,1,.19.74,1.34,1.34,0,0,1-.25.82,1.57,1.57,0,0,1-.67.52,2.37,2.37,0,0,1-.93.18,2.25,2.25,0,0,1-.86-0.15,2.54,2.54,0,0,1-.44-0.29,0.14,0.14,0,0,0-.1,0c-0.11,0-.18.14-0.22,0.41H422q0-.62,0-2.16h0.25A5.41,5.41,0,0,0,422.51,280.84Zm7.95-4.43a2.16,2.16,0,0,1,.87,1,4.47,4.47,0,0,1,0,3.32,2.14,2.14,0,0,1-.87,1,2.75,2.75,0,0,1-2.53,0,2.14,2.14,0,0,1-.87-1,4.49,4.49,0,0,1,0-3.32,2.16,2.16,0,0,1,.87-1A2.73,2.73,0,0,1,430.46,276.4Zm-2.3.57a5.8,5.8,0,0,0,0,4.12,1.13,1.13,0,0,0,2.06,0,5.78,5.78,0,0,0,0-4.12A1.13,1.13,0,0,0,428.16,277Zm9.41,4.4a0.79,0.79,0,0,0,.64.23v0.23q-0.34,0-.67,0a3.41,3.41,0,0,0-1.13.15v-1.28a2,2,0,0,1-.74,1,1.83,1.83,0,0,1-1,.32,1.49,1.49,0,0,1-1.13-.41,1.22,1.22,0,0,1-.28-0.55,3.78,3.78,0,0,1-.08-0.87v-2.72a1.18,1.18,0,0,0-.18-0.73,0.77,0.77,0,0,0-.64-0.23v-0.23c0.23,0,.45,0,0.67,0a3.62,3.62,0,0,0,1.13-.15v4.26a3.7,3.7,0,0,0,0,.67,0.72,0.72,0,0,0,.23.42,0.8,0.8,0,0,0,.54.16,1.19,1.19,0,0,0,.75-0.26,1.72,1.72,0,0,0,.52-0.71,2.52,2.52,0,0,0,.19-1v-2.24a1.16,1.16,0,0,0-.18-0.73,0.78,0.78,0,0,0-.64-0.23v-0.23c0.23,0,.45,0,0.67,0a3.59,3.59,0,0,0,1.13-.15v4.53A1.15,1.15,0,0,0,437.58,281.38Zm3.75-5a2,2,0,0,1,1.09-.31,1.52,1.52,0,0,1,1.15.41,1.3,1.3,0,0,1,.29.55,3.48,3.48,0,0,1,.09.88v2.89a1.1,1.1,0,0,0,.08.47,0.46,0.46,0,0,0,.26.24,1.37,1.37,0,0,0,.48.07v0.23l-1.3,0-1.21,0v-0.23a1,1,0,0,0,.42-0.07,0.43,0.43,0,0,0,.22-0.24,1.24,1.24,0,0,0,.07-0.47v-3.13a3,3,0,0,0-.06-0.66,0.78,0.78,0,0,0-.25-0.43,0.85,0.85,0,0,0-.56-0.16,1.28,1.28,0,0,0-.79.26,1.67,1.67,0,0,0-.54.71,2.56,2.56,0,0,0-.19,1v2.41a1.24,1.24,0,0,0,.07.47,0.43,0.43,0,0,0,.22.24,1.06,1.06,0,0,0,.42.07v0.23l-1.22,0-1.3,0v-0.23a1.37,1.37,0,0,0,.48-0.07,0.46,0.46,0,0,0,.26-0.24,1.1,1.1,0,0,0,.08-0.47v-3.39a1.16,1.16,0,0,0-.18-0.73,0.78,0.78,0,0,0-.64-0.23v-0.23c0.23,0,.45,0,0.67,0a3.59,3.59,0,0,0,1.13-.15v1.27A2,2,0,0,1,441.32,276.4Zm9,5a0.79,0.79,0,0,0,.64.22v0.23c-0.23,0-.45,0-0.67,0a3.42,3.42,0,0,0-1.13.15v-1a1.58,1.58,0,0,1-.59.74,1.7,1.7,0,0,1-1,.25,2.1,2.1,0,0,1-1.18-.33,2.06,2.06,0,0,1-.76-1,4.26,4.26,0,0,1-.26-1.62,3.52,3.52,0,0,1,.33-1.61,2.29,2.29,0,0,1,2.12-1.33,1.82,1.82,0,0,1,.76.16,1.19,1.19,0,0,1,.54.48v-2.11a1.16,1.16,0,0,0-.18-0.73,0.79,0.79,0,0,0-.64-0.23v-0.23c0.23,0,.45,0,0.67,0a3.41,3.41,0,0,0,1.13-.15v7.32A1.16,1.16,0,0,0,450.36,281.37Zm-2.37-5a1.13,1.13,0,0,0-.78.3,2,2,0,0,0-.53.9,4.93,4.93,0,0,0-.18,1.49,4,4,0,0,0,.37,2,1.2,1.2,0,0,0,1.1.65,1,1,0,0,0,.53-0.14,1.31,1.31,0,0,0,.43-0.43,1.94,1.94,0,0,0,.26-0.68v-3.22A1.18,1.18,0,0,0,448,276.34Zm5,4.34a0.68,0.68,0,0,1,.25.25,0.69,0.69,0,0,1,.09.35,0.67,0.67,0,0,1-.09.34,0.7,0.7,0,0,1-.25.25,0.68,0.68,0,0,1-.69,0,0.69,0.69,0,0,1-.25-0.25,0.66,0.66,0,0,1-.09-0.34,0.68,0.68,0,0,1,.09-0.35,0.67,0.67,0,0,1,.25-0.25A0.7,0.7,0,0,1,453,280.68Zm-0.51-2.75q-0.07-.88-0.2-2.19T452.14,274a0.66,0.66,0,0,1,.14-0.46,0.51,0.51,0,0,1,.72,0,0.65,0.65,0,0,1,.14.46q0,0.47-.12,1.71t-0.2,2.15q-0.07.91-.07,1.89h-0.2Q452.54,278.81,452.48,277.93ZM284.71,225.4a0.41,0.41,0,0,0-.25.26,2,2,0,0,0-.07.6v5.47a2,2,0,0,0,.07.6,0.41,0.41,0,0,0,.25.26,2,2,0,0,0,.58.09v0.22q-0.46,0-1.41,0t-1.4,0v-0.22a2,2,0,0,0,.58-0.09,0.41,0.41,0,0,0,.25-0.26,2,2,0,0,0,.07-0.6v-2.65h-3.58v2.65a2,2,0,0,0,.07.6,0.41,0.41,0,0,0,.25.26,2,2,0,0,0,.58.09v0.22q-0.51,0-1.4,0t-1.41,0v-0.22a2,2,0,0,0,.58-0.09,0.41,0.41,0,0,0,.25-0.26,2,2,0,0,0,.07-0.6v-5.47a2,2,0,0,0-.07-0.6,0.41,0.41,0,0,0-.25-0.26,1.94,1.94,0,0,0-.58-0.09v-0.22q0.46,0,1.41,0t1.4,0v0.22a1.94,1.94,0,0,0-.58.09,0.41,0.41,0,0,0-.25.26,2,2,0,0,0-.07.6v2.6h3.58v-2.6a2,2,0,0,0-.07-0.6,0.41,0.41,0,0,0-.25-0.26,1.94,1.94,0,0,0-.58-0.09v-0.22q0.52,0,1.4,0t1.41,0v0.22A1.94,1.94,0,0,0,284.71,225.4Zm3.27,7a0.47,0.47,0,0,0,.26.24,1.41,1.41,0,0,0,.49.07v0.23l-1.33,0-1.33,0v-0.23a1.41,1.41,0,0,0,.49-0.07,0.47,0.47,0,0,0,.26-0.24,1.12,1.12,0,0,0,.08-0.48v-3.45a1.19,1.19,0,0,0-.19-0.74,0.8,0.8,0,0,0-.65-0.23v-0.23q0.34,0,.68,0a3.65,3.65,0,0,0,1.15-.15v4.77A1.12,1.12,0,0,0,288,232.35Zm-0.3-7.79a0.74,0.74,0,0,1,.26.26,0.67,0.67,0,0,1,.1.35,0.68,0.68,0,0,1-.1.35,0.71,0.71,0,0,1-.26.26,0.68,0.68,0,0,1-.35.09,0.7,0.7,0,0,1-.35-0.09,0.69,0.69,0,0,1-.26-0.26,0.69,0.69,0,0,1-.09-0.35,0.68,0.68,0,0,1,.09-0.35,0.71,0.71,0,0,1,.26-0.26,0.68,0.68,0,0,1,.35-0.1A0.67,0.67,0,0,1,287.68,224.56Zm3.1,7.18a0.71,0.71,0,0,1,.35.61,0.68,0.68,0,0,1-.09.35,0.71,0.71,0,0,1-.26.26,0.69,0.69,0,0,1-.71,0,0.71,0.71,0,0,1-.26-0.26,0.68,0.68,0,0,1-.09-0.35A0.71,0.71,0,0,1,290.78,231.73Zm-0.52-2.79q-0.07-.89-0.2-2.23t-0.14-1.82a0.67,0.67,0,0,1,.14-0.47,0.51,0.51,0,0,1,.73,0,0.66,0.66,0,0,1,.14.47q0,0.48-.13,1.74t-0.2,2.18q-0.08.93-.08,1.93h-0.2Q290.33,229.83,290.26,228.94Zm10.86,3.53a0.25,0.25,0,0,0-.21-0.2,0.28,0.28,0,0,0-.13,0l-0.23.15a3.05,3.05,0,0,1-.8.45,2.67,2.67,0,0,1-.92.15,3.83,3.83,0,0,1-1.94-.47,3.05,3.05,0,0,1-1.24-1.35,4.78,4.78,0,0,1-.43-2.1,5.08,5.08,0,0,1,.45-2.21,3.46,3.46,0,0,1,1.26-1.46,3.34,3.34,0,0,1,1.83-.51,3,3,0,0,1,.79.09,2.58,2.58,0,0,1,.6.24,7,7,0,0,1,.59.38,0.41,0.41,0,0,0,.22.11q0.21,0,.27-0.67h0.25q0,0.72,0,2.54H301.2a8.07,8.07,0,0,0-.21-1,1.85,1.85,0,0,0-.34-0.66,2.25,2.25,0,0,0-.83-0.63,2.58,2.58,0,0,0-1.07-.23,1.89,1.89,0,0,0-1.28.47,3,3,0,0,0-.85,1.35,6.28,6.28,0,0,0-.3,2,7,7,0,0,0,.28,2.17,2.39,2.39,0,0,0,.86,1.25,2.52,2.52,0,0,0,1.48.41,1.93,1.93,0,0,0,1.15-.34,0.73,0.73,0,0,0,.26-0.26,0.82,0.82,0,0,0,.06-0.34v-1.06a1.92,1.92,0,0,0-.09-0.67,0.49,0.49,0,0,0-.31-0.29,2.78,2.78,0,0,0-.72-0.1v-0.22q0.54,0,1.56,0,0.77,0,1.15,0v0.22a0.9,0.9,0,0,0-.37.09,0.37,0.37,0,0,0-.15.25,3.18,3.18,0,0,0,0,.61v2.19h-0.22A1.3,1.3,0,0,0,301.12,232.47Zm3.35-.12a0.47,0.47,0,0,0,.26.24,1.41,1.41,0,0,0,.49.07v0.23l-1.33,0-1.33,0v-0.23a1.41,1.41,0,0,0,.49-0.07,0.47,0.47,0,0,0,.26-0.24,1.12,1.12,0,0,0,.08-0.48v-6.3a1.17,1.17,0,0,0-.19-0.74,0.8,0.8,0,0,0-.65-0.23v-0.23q0.34,0,.68,0a3.48,3.48,0,0,0,1.15-.16v7.62A1.12,1.12,0,0,0,304.47,232.35Zm4.26-4.83a1.11,1.11,0,0,0-.76-0.23,1.32,1.32,0,0,0-1.09.39,0.68,0.68,0,0,1,.52.67,0.56,0.56,0,0,1-.17.44,0.67,0.67,0,0,1-.47.16,0.54,0.54,0,0,1-.44-0.19,0.74,0.74,0,0,1-.16-0.5,1,1,0,0,1,.52-0.79,2.51,2.51,0,0,1,.67-0.3,3.07,3.07,0,0,1,.88-0.12,2.61,2.61,0,0,1,.8.11,1.32,1.32,0,0,1,.54.3,1.36,1.36,0,0,1,.35.6,3.73,3.73,0,0,1,.09.94v3.06a0.78,0.78,0,0,0,.08.4,0.29,0.29,0,0,0,.26.12,0.53,0.53,0,0,0,.25-0.06,1.45,1.45,0,0,0,.25-0.17l0.12,0.19-0.32.23a1.17,1.17,0,0,1-.3.13,1.4,1.4,0,0,1-.39,0,0.89,0.89,0,0,1-.74-0.27A1.13,1.13,0,0,1,309,232a1.91,1.91,0,0,1-.77.76,2.06,2.06,0,0,1-.92.22,1.81,1.81,0,0,1-.7-0.13,1.13,1.13,0,0,1-.51-0.41,1.19,1.19,0,0,1-.19-0.69,1.23,1.23,0,0,1,.2-0.72,1.83,1.83,0,0,1,.58-0.52,8.1,8.1,0,0,1,1-.49l0.53-.22a2.07,2.07,0,0,0,.61-0.34,0.51,0.51,0,0,0,.19-0.38v-0.68A1.14,1.14,0,0,0,308.73,227.52Zm0,2.24-0.79.4a3.49,3.49,0,0,0-.54.31,1.36,1.36,0,0,0-.38.43,1.3,1.3,0,0,0-.16.66,1,1,0,0,0,.24.72,0.86,0.86,0,0,0,.64.24,1.47,1.47,0,0,0,1.24-.83v-2.16A0.76,0.76,0,0,1,308.73,229.76Zm7.76,2.67a0.8,0.8,0,0,0,.65.23v0.23q-0.35,0-.68,0a3.46,3.46,0,0,0-1.15.16v-1a1.6,1.6,0,0,1-.6.75,1.73,1.73,0,0,1-1,.26,2.14,2.14,0,0,1-1.21-.33,2.1,2.1,0,0,1-.78-1,4.34,4.34,0,0,1-.27-1.65,3.59,3.59,0,0,1,.33-1.64,2.33,2.33,0,0,1,2.16-1.36,1.86,1.86,0,0,1,.77.16,1.21,1.21,0,0,1,.55.49v-2.14a1.17,1.17,0,0,0-.19-0.74,0.8,0.8,0,0,0-.65-0.23v-0.23q0.35,0,.68,0a3.48,3.48,0,0,0,1.15-.16v7.44A1.18,1.18,0,0,0,316.48,232.43Zm-2.41-5.12a1.15,1.15,0,0,0-.79.3,2,2,0,0,0-.54.92,5,5,0,0,0-.19,1.52,4.07,4.07,0,0,0,.37,2,1.22,1.22,0,0,0,1.12.66,1.07,1.07,0,0,0,.54-0.15,1.33,1.33,0,0,0,.44-0.43,2,2,0,0,0,.27-0.69v-3.28A1.2,1.2,0,0,0,314.08,227.32Zm10.36-.07q0.49,0,.84,0v0.22a0.66,0.66,0,0,0-.39.2,1.64,1.64,0,0,0-.32.58l-1.81,4.74-0.38,1a2,2,0,0,1-.47.78,1.23,1.23,0,0,1-.86.29,0.81,0.81,0,0,1-.54-0.17,0.6,0.6,0,0,1-.21-0.49,0.54,0.54,0,0,1,.59-0.58,0.6,0.6,0,0,1,.4.13,0.48,0.48,0,0,1,.16.38,0.54,0.54,0,0,1-.3.5h0.06a1.07,1.07,0,0,0,.94-0.86l0.39-1-2-4.81a1.24,1.24,0,0,0-.37-0.5,0.69,0.69,0,0,0-.37-0.12v-0.23a8,8,0,0,0,1.08.07q0.47,0,1.43-.07v0.23l-0.42,0a0.48,0.48,0,0,0-.25.1,0.32,0.32,0,0,0-.1.26,1.56,1.56,0,0,0,.14.54l1.33,3.29,1.22-3.19a1.58,1.58,0,0,0,.12-0.51,0.42,0.42,0,0,0-.2-0.38,1.38,1.38,0,0,0-.63-0.15v-0.22Zm5.15,0.13a2.19,2.19,0,0,1,.89,1,4.55,4.55,0,0,1,0,3.38,2.18,2.18,0,0,1-.89,1,2.8,2.8,0,0,1-2.58,0,2.18,2.18,0,0,1-.89-1,4.55,4.55,0,0,1,0-3.38,2.19,2.19,0,0,1,.89-1A2.78,2.78,0,0,1,329.59,227.38Zm-2.34.58a5.9,5.9,0,0,0,0,4.19,1.15,1.15,0,0,0,2.09,0,5.9,5.9,0,0,0,0-4.19A1.15,1.15,0,0,0,327.26,228Zm9.58,4.48a0.8,0.8,0,0,0,.65.23v0.23q-0.34,0-.68,0a3.46,3.46,0,0,0-1.15.16v-1.3a2.08,2.08,0,0,1-.75,1,1.86,1.86,0,0,1-1.06.32,1.52,1.52,0,0,1-1.15-.42,1.23,1.23,0,0,1-.28-0.56,3.84,3.84,0,0,1-.08-0.88v-2.77a1.21,1.21,0,0,0-.18-0.74,0.79,0.79,0,0,0-.65-0.23v-0.23q0.34,0,.68,0a3.68,3.68,0,0,0,1.15-.15v4.33a3.83,3.83,0,0,0,0,.68,0.73,0.73,0,0,0,.23.42,0.81,0.81,0,0,0,.55.16,1.21,1.21,0,0,0,.76-0.26,1.76,1.76,0,0,0,.53-0.72,2.57,2.57,0,0,0,.19-1v-2.28a1.19,1.19,0,0,0-.19-0.74,0.8,0.8,0,0,0-.65-0.23v-0.23q0.34,0,.68,0a3.65,3.65,0,0,0,1.15-.15v4.61A1.18,1.18,0,0,0,336.83,232.44Zm4.86-6.31a3,3,0,0,1,.18-0.75,2,2,0,0,1,.34-0.56,1.46,1.46,0,0,1,.56-0.41,1.87,1.87,0,0,1,.75-0.15,1.53,1.53,0,0,1,1,.3,0.85,0.85,0,0,1,.34.68,0.56,0.56,0,0,1-.16.42,0.57,0.57,0,0,1-.42.16,0.61,0.61,0,0,1-.43-0.16,0.62,0.62,0,0,1,0-.8,0.58,0.58,0,0,1,.34-0.19,0.31,0.31,0,0,0-.18-0.17,0.84,0.84,0,0,0-.37-0.07,0.76,0.76,0,0,0-.72.41,1.69,1.69,0,0,0-.16.66q0,0.44,0,1.43v0.29h1.18v0.22h-1.18v4.31a0.79,0.79,0,0,0,.29.71,1.58,1.58,0,0,0,.88.2v0.23l-1.7,0-1.3,0v-0.23a1.41,1.41,0,0,0,.49-0.07,0.47,0.47,0,0,0,.26-0.24,1.12,1.12,0,0,0,.08-0.48v-4.42h-0.88v-0.22h0.88A9.31,9.31,0,0,1,341.69,226.13Zm6.56,1.25a2.19,2.19,0,0,1,.89,1,4.55,4.55,0,0,1,0,3.38,2.18,2.18,0,0,1-.89,1,2.8,2.8,0,0,1-2.58,0,2.18,2.18,0,0,1-.89-1,4.55,4.55,0,0,1,0-3.38,2.19,2.19,0,0,1,.89-1A2.78,2.78,0,0,1,348.25,227.38Zm-2.34.58a5.9,5.9,0,0,0,0,4.19,1.15,1.15,0,0,0,2.09,0,5.9,5.9,0,0,0,0-4.19A1.15,1.15,0,0,0,345.92,228Zm9.58,4.48a0.8,0.8,0,0,0,.65.23v0.23q-0.34,0-.68,0a3.46,3.46,0,0,0-1.15.16v-1.3a2.08,2.08,0,0,1-.75,1,1.86,1.86,0,0,1-1.06.32,1.52,1.52,0,0,1-1.15-.42,1.23,1.23,0,0,1-.28-0.56,3.84,3.84,0,0,1-.08-0.88v-2.77a1.21,1.21,0,0,0-.18-0.74,0.79,0.79,0,0,0-.65-0.23v-0.23q0.34,0,.68,0a3.68,3.68,0,0,0,1.15-.15v4.33a3.83,3.83,0,0,0,0,.68,0.73,0.73,0,0,0,.23.42,0.81,0.81,0,0,0,.55.16,1.21,1.21,0,0,0,.76-0.26,1.76,1.76,0,0,0,.53-0.72,2.57,2.57,0,0,0,.19-1v-2.28a1.19,1.19,0,0,0-.19-0.74,0.8,0.8,0,0,0-.65-0.23v-0.23q0.34,0,.68,0a3.65,3.65,0,0,0,1.15-.15v4.61A1.18,1.18,0,0,0,355.49,232.44Zm3.81-5.06a2,2,0,0,1,1.11-.31,1.55,1.55,0,0,1,1.17.41,1.32,1.32,0,0,1,.29.56,3.57,3.57,0,0,1,.09.89v2.94a1.12,1.12,0,0,0,.08.48,0.47,0.47,0,0,0,.26.24,1.41,1.41,0,0,0,.49.07v0.23l-1.32,0-1.23,0v-0.23a1.06,1.06,0,0,0,.43-0.07,0.44,0.44,0,0,0,.23-0.24,1.27,1.27,0,0,0,.07-0.48v-3.19a3.05,3.05,0,0,0-.06-0.67,0.79,0.79,0,0,0-.26-0.44,0.86,0.86,0,0,0-.57-0.17,1.31,1.31,0,0,0-.8.26,1.71,1.71,0,0,0-.55.72,2.61,2.61,0,0,0-.19,1v2.45a1.27,1.27,0,0,0,.07.48,0.44,0.44,0,0,0,.23.24,1.08,1.08,0,0,0,.43.07v0.23l-1.24,0-1.32,0v-0.23a1.41,1.41,0,0,0,.49-0.07,0.47,0.47,0,0,0,.26-0.24,1.12,1.12,0,0,0,.08-0.48v-3.45a1.19,1.19,0,0,0-.19-0.74,0.8,0.8,0,0,0-.65-0.23v-0.23q0.34,0,.68,0a3.65,3.65,0,0,0,1.15-.15v1.3A2,2,0,0,1,359.3,227.38Zm9.19,5.05a0.8,0.8,0,0,0,.65.23v0.23q-0.35,0-.68,0a3.46,3.46,0,0,0-1.15.16v-1a1.6,1.6,0,0,1-.6.75,1.73,1.73,0,0,1-1,.26,2.14,2.14,0,0,1-1.21-.33,2.1,2.1,0,0,1-.78-1,4.34,4.34,0,0,1-.27-1.65,3.59,3.59,0,0,1,.33-1.64,2.33,2.33,0,0,1,2.16-1.36,1.86,1.86,0,0,1,.77.16,1.21,1.21,0,0,1,.55.49v-2.14a1.17,1.17,0,0,0-.19-0.74,0.8,0.8,0,0,0-.65-0.23v-0.23q0.35,0,.68,0a3.48,3.48,0,0,0,1.15-.16v7.44A1.18,1.18,0,0,0,368.5,232.43Zm-2.41-5.12a1.15,1.15,0,0,0-.79.3,2,2,0,0,0-.54.92,5,5,0,0,0-.19,1.52,4.07,4.07,0,0,0,.37,2,1.22,1.22,0,0,0,1.12.66,1.07,1.07,0,0,0,.54-0.15,1.33,1.33,0,0,0,.44-0.43,2,2,0,0,0,.27-0.69v-3.28A1.2,1.2,0,0,0,366.09,227.32Zm14.9,5a0.47,0.47,0,0,0,.26.24,1.41,1.41,0,0,0,.49.07v0.23l-1.32,0-1.23,0v-0.23a1.06,1.06,0,0,0,.43-0.07,0.44,0.44,0,0,0,.23-0.24,1.27,1.27,0,0,0,.07-0.48v-3.19a3.83,3.83,0,0,0,0-.68,0.73,0.73,0,0,0-.23-0.42,0.82,0.82,0,0,0-.56-0.16,1.21,1.21,0,0,0-.76.26,1.77,1.77,0,0,0-.53.72,2.57,2.57,0,0,0-.19,1v2.46a1.12,1.12,0,0,0,.08.48,0.48,0.48,0,0,0,.26.24,1.38,1.38,0,0,0,.49.07v0.23l-1.32,0-1.24,0v-0.23a1.08,1.08,0,0,0,.43-0.07,0.43,0.43,0,0,0,.23-0.24,1.32,1.32,0,0,0,.07-0.48v-3.19a3.88,3.88,0,0,0,0-.68,0.73,0.73,0,0,0-.23-0.42,0.81,0.81,0,0,0-.55-0.16,1.21,1.21,0,0,0-.76.27,1.78,1.78,0,0,0-.53.73,2.59,2.59,0,0,0-.19,1v2.45a1.27,1.27,0,0,0,.07.48,0.44,0.44,0,0,0,.23.24,1.08,1.08,0,0,0,.43.07v0.23l-1.24,0-1.32,0v-0.23a1.41,1.41,0,0,0,.49-0.07,0.47,0.47,0,0,0,.26-0.24,1.12,1.12,0,0,0,.08-0.48v-3.45a1.19,1.19,0,0,0-.19-0.74,0.8,0.8,0,0,0-.65-0.23v-0.23q0.34,0,.68,0a3.65,3.65,0,0,0,1.15-.15v1.3a2.09,2.09,0,0,1,.75-1,1.85,1.85,0,0,1,1.05-.33,1.52,1.52,0,0,1,1.15.41,1.54,1.54,0,0,1,.34.89,1.87,1.87,0,0,1,1.84-1.3,1.52,1.52,0,0,1,1.15.41,1.25,1.25,0,0,1,.28.56,4,4,0,0,1,.08.89v2.94A1.12,1.12,0,0,0,381,232.35Zm5.61-.06a2.17,2.17,0,0,1-.71.55,2.1,2.1,0,0,1-.94.21,2.51,2.51,0,0,1-1.36-.36,2.3,2.3,0,0,1-.87-1,3.51,3.51,0,0,1-.3-1.49,4.15,4.15,0,0,1,.31-1.66,2.45,2.45,0,0,1,.87-1.08,2.3,2.3,0,0,1,1.32-.38,1.94,1.94,0,0,1,1.53.6,2.67,2.67,0,0,1,.54,1.82h-3.44a5.48,5.48,0,0,0,0,.71,3.13,3.13,0,0,0,.24,1.27,2,2,0,0,0,.63.83,1.34,1.34,0,0,0,.82.29,1.69,1.69,0,0,0,1.62-1.1l0.22,0.09A2.2,2.2,0,0,1,386.6,232.29Zm-0.78-4a1.66,1.66,0,0,0-.36-0.73,0.77,0.77,0,0,0-.6-0.27,1,1,0,0,0-.62.22,1.65,1.65,0,0,0-.48.67,3.51,3.51,0,0,0-.25,1.12h2.4A3.6,3.6,0,0,0,385.82,228.27Zm3.46,3.46a0.71,0.71,0,0,1,.35.61,0.68,0.68,0,0,1-.09.35,0.71,0.71,0,0,1-.26.26,0.69,0.69,0,0,1-.71,0,0.71,0.71,0,0,1-.26-0.26,0.68,0.68,0,0,1-.09-0.35A0.71,0.71,0,0,1,389.28,231.73Zm-0.52-2.79q-0.07-.89-0.2-2.23t-0.14-1.82a0.67,0.67,0,0,1,.14-0.47,0.51,0.51,0,0,1,.73,0,0.66,0.66,0,0,1,.14.47q0,0.48-.13,1.74t-0.2,2.18q-0.08.93-.08,1.93h-0.2Q388.83,229.83,388.77,228.94Z" transform="translate(-1.33 1.17)"/><path id="pict" class="cls-11" d="M403.5,290.67c14.08,0,25.5,6.64,25.5,14.83s-11.42,14.83-25.5,14.83S378,313.69,378,305.5,389.42,290.67,403.5,290.67ZM388.42,305.4h0.93a3.74,3.74,0,0,0,1.87-.4,2.36,2.36,0,0,0,1-1,2.89,2.89,0,0,0,.29-1.27,2.34,2.34,0,0,0-.32-1.24,2.14,2.14,0,0,0-1-.83,3.84,3.84,0,0,0-1.59-.3H387.8q-1,0-1.46,0v0.24a2.13,2.13,0,0,1,.63.09,0.45,0.45,0,0,1,.27.28,2.12,2.12,0,0,1,.07.66v6a2.12,2.12,0,0,1-.07.66,0.45,0.45,0,0,1-.27.28,2.13,2.13,0,0,1-.63.09v0.24q0.5,0,1.54,0t1.76,0v-0.24a3.24,3.24,0,0,1-.78-0.09,0.52,0.52,0,0,1-.34-0.28,1.69,1.69,0,0,1-.09-0.66V305.4Zm0.81-.24h-0.81v-3.55a2.22,2.22,0,0,1,.07-0.64,0.47,0.47,0,0,1,.26-0.3,1.43,1.43,0,0,1,.56-0.08,2.33,2.33,0,0,1,1.16.25,1.45,1.45,0,0,1,.63.75,3.46,3.46,0,0,1,.2,1.27,2.83,2.83,0,0,1-.45,1.69A1.87,1.87,0,0,1,389.23,305.16Zm6,2.56v-5.2a4,4,0,0,1-1.25.16q-0.37,0-.74,0v0.25a0.87,0.87,0,0,1,.71.25,1.29,1.29,0,0,1,.2.81v3.76a1.22,1.22,0,0,1-.09.52,0.51,0.51,0,0,1-.29.26,1.52,1.52,0,0,1-.54.08v0.25l1.45,0,1.45,0v-0.25a1.52,1.52,0,0,1-.54-0.08,0.51,0.51,0,0,1-.29-0.26A1.22,1.22,0,0,1,395.18,307.72Zm-0.62-8.07a0.74,0.74,0,0,0-.38.11,0.78,0.78,0,0,0-.28.28,0.74,0.74,0,0,0-.1.38,0.76,0.76,0,0,0,.1.38,0.75,0.75,0,0,0,.28.28,0.76,0.76,0,0,0,.38.1,0.74,0.74,0,0,0,.38-0.1,0.78,0.78,0,0,0,.28-0.28,0.74,0.74,0,0,0,.11-0.38,0.73,0.73,0,0,0-.11-0.38,0.81,0.81,0,0,0-.28-0.28A0.73,0.73,0,0,0,394.56,299.65Zm7.21,7.68-0.23-.08a2.16,2.16,0,0,1-.76.94,1.78,1.78,0,0,1-1,.3,1.47,1.47,0,0,1-1.25-.68,3.82,3.82,0,0,1-.48-2.17,4.89,4.89,0,0,1,.25-1.72A2,2,0,0,1,399,303a1.38,1.38,0,0,1,.83-0.28,1.53,1.53,0,0,1,.65.14,0.88,0.88,0,0,1,.43.36,0.69,0.69,0,0,0-.36.23,0.65,0.65,0,0,0-.14.43,0.55,0.55,0,0,0,.19.44,0.71,0.71,0,0,0,.47.16,0.62,0.62,0,0,0,.45-0.18,0.67,0.67,0,0,0,.18-0.5,1.1,1.1,0,0,0-.56-0.93,2.5,2.5,0,0,0-1.39-.38,2.57,2.57,0,0,0-1.45.42,2.79,2.79,0,0,0-1,1.18,4,4,0,0,0-.35,1.73,3.83,3.83,0,0,0,.35,1.69,2.64,2.64,0,0,0,1,1.11,2.46,2.46,0,0,0,1.35.39,2.17,2.17,0,0,0,1.79-.86A2.71,2.71,0,0,0,401.78,307.33Zm2.7-4.67v-2a3.38,3.38,0,0,1-1.08.17v1.83h-1.15v0.24h1.15v4a4,4,0,0,0,.11,1,1.46,1.46,0,0,0,.36.65,1.28,1.28,0,0,0,.47.3,2,2,0,0,0,.67.1q1.27,0,1.56-1.66l-0.23-.06a2.47,2.47,0,0,1-.45,1,0.82,0.82,0,0,1-.64.3,0.7,0.7,0,0,1-.57-0.24,1.25,1.25,0,0,1-.19-0.78V302.9h1.78v-0.24h-1.78Zm7.76,4.88v-5a4,4,0,0,1-1.25.16q-0.37,0-.74,0v0.25a0.87,0.87,0,0,1,.71.25,1.29,1.29,0,0,1,.2.81v2.48a2.8,2.8,0,0,1-.21,1.1,1.92,1.92,0,0,1-.58.79,1.32,1.32,0,0,1-.83.29,0.88,0.88,0,0,1-.6-0.18,0.8,0.8,0,0,1-.25-0.46,4.16,4.16,0,0,1-.05-0.74v-4.72a4,4,0,0,1-1.25.16q-0.37,0-.74,0v0.25a0.86,0.86,0,0,1,.71.25,1.31,1.31,0,0,1,.2.81v3a4.19,4.19,0,0,0,.09,1,1.34,1.34,0,0,0,.31.61,1.65,1.65,0,0,0,1.25.46,2,2,0,0,0,1.15-.35,2.27,2.27,0,0,0,.82-1.09V309a3.78,3.78,0,0,1,1.25-.17q0.37,0,.74,0v-0.25a0.87,0.87,0,0,1-.71-0.25A1.28,1.28,0,0,1,412.24,307.54Zm3.52-3.52v-1.5a4,4,0,0,1-1.25.16q-0.37,0-.74,0v0.25a0.87,0.87,0,0,1,.71.25,1.29,1.29,0,0,1,.2.81v3.76a1.22,1.22,0,0,1-.09.52,0.51,0.51,0,0,1-.29.26,1.52,1.52,0,0,1-.54.08v0.25l1.42,0,1.85,0v-0.25a1.72,1.72,0,0,1-1-.21,0.86,0.86,0,0,1-.32-0.77v-2.54a2.66,2.66,0,0,1,.22-1,2.54,2.54,0,0,1,.6-0.9,1.21,1.21,0,0,1,.86-0.36,0.29,0.29,0,0,1,.25.12,0.76,0.76,0,0,0-.41.65,0.58,0.58,0,0,0,.19.45,0.65,0.65,0,0,0,.45.17,0.62,0.62,0,0,0,.5-0.22,0.8,0.8,0,0,0,.19-0.54,0.85,0.85,0,0,0-.14-0.47,1,1,0,0,0-.39-0.34,1.24,1.24,0,0,0-.57-0.13,1.34,1.34,0,0,0-.74.23,2.28,2.28,0,0,0-.61.58A2.92,2.92,0,0,0,415.75,304Zm8.31,3.37-0.24-.09a1.84,1.84,0,0,1-1.76,1.2,1.46,1.46,0,0,1-.89-0.32,2.22,2.22,0,0,1-.68-0.91,3.41,3.41,0,0,1-.26-1.38,6,6,0,0,1,0-.77H424a2.91,2.91,0,0,0-.58-2,2.11,2.11,0,0,0-1.66-.65,2.5,2.5,0,0,0-1.43.41,2.66,2.66,0,0,0-.95,1.18,4.51,4.51,0,0,0-.33,1.81,3.82,3.82,0,0,0,.33,1.63,2.5,2.5,0,0,0,1,1.1,2.74,2.74,0,0,0,1.48.39,2.28,2.28,0,0,0,1-.23,2.36,2.36,0,0,0,.77-0.59A2.4,2.4,0,0,0,424.07,307.39Zm-1.2-2.5h-2.61a3.82,3.82,0,0,1,.27-1.22A1.79,1.79,0,0,1,421,303a1.1,1.1,0,0,1,.68-0.24,0.84,0.84,0,0,1,.65.29,1.81,1.81,0,0,1,.39.79A3.92,3.92,0,0,1,422.86,304.9Z" transform="translate(-1.33 1.17)"/><path class="cls-1" d="M234.75,343V331.17a5.73,5.73,0,0,1,5.71-5.71H367.61a5.73,5.73,0,0,1,5.71,5.71V343a5.73,5.73,0,0,1-5.71,5.71H240.46A5.73,5.73,0,0,1,234.75,343Zm5.71-24.67H367.61a5.73,5.73,0,0,0,5.71-5.71V300.79a5.73,5.73,0,0,0-5.71-5.71H240.46a5.73,5.73,0,0,0-5.71,5.71v11.87A5.73,5.73,0,0,0,240.46,318.37Z" transform="translate(-1.33 1.17)"/><path id="het" class="cls-16" d="M400.65,607.48l-10-.2A12,12,0,0,1,378.9,595l0.2-10a12,12,0,0,1,12.24-11.75l10,0.2a12,12,0,0,1,11.75,12.24l-0.2,10A12,12,0,0,1,400.65,607.48Z" transform="translate(-1.33 1.17)"/><path id="aroow" class="cls-17" d="M386.25,585.86a3.33,3.33,0,0,1,3.06-4.89l6.81,0.24,6.81,0.24a3.33,3.33,0,0,1,2.71,5.1L402,592.32l-3.61,5.78a3.33,3.33,0,0,1-5.77-.2l-3.2-6Z" transform="translate(-1.33 1.17)"/><path id="song" class="cls-18" d="M415,341.48a0.78,0.78,0,0,1,.08.38,1.38,1.38,0,0,1-.33.93,2,2,0,0,1-.84.57,3,3,0,0,1-1,.19,2.84,2.84,0,0,1-.83-0.12,1.56,1.56,0,0,1-.66-0.38,0.87,0.87,0,0,1-.26-0.64,1.25,1.25,0,0,1,.21-0.68,1.52,1.52,0,0,1,.6-0.53h2.23a1.67,1.67,0,0,1,.56.07A0.5,0.5,0,0,1,415,341.48Zm-2-2.75a1,1,0,0,0,.82-0.38,3.18,3.18,0,0,0,0-2.6,1.06,1.06,0,0,0-1.63,0,3.17,3.17,0,0,0,0,2.6A0.94,0.94,0,0,0,413,338.73Zm-13.55-3.33a1.27,1.27,0,0,0-1.14.74,6.42,6.42,0,0,0,0,4.56,1.25,1.25,0,0,0,2.28,0,6.42,6.42,0,0,0,0-4.56A1.27,1.27,0,0,0,399.43,335.39Zm27.9,3.44c0,8-11.12,14.5-24.83,14.5s-24.83-6.49-24.83-14.5,11.12-14.5,24.83-14.5S427.33,330.83,427.33,338.83Zm-31.78.56a2.11,2.11,0,0,0-.26-1.07,2.82,2.82,0,0,0-.7-0.81,13.74,13.74,0,0,0-1.2-.82l-0.71-.43a4.74,4.74,0,0,1-.92-0.72,1.43,1.43,0,0,1-.39-1,1.4,1.4,0,0,1,.19-0.73,1.29,1.29,0,0,1,.52-0.49,1.6,1.6,0,0,1,.76-0.18,1.69,1.69,0,0,1,1.06.33,2,2,0,0,1,.64.85,3.62,3.62,0,0,1,.27,1.14h0.28q0-1.75.06-2.45h-0.28a1.46,1.46,0,0,1-.09.4,0.18,0.18,0,0,1-.17.13,0.89,0.89,0,0,1-.41-0.17l-0.39-.23a1.91,1.91,0,0,0-.44-0.15,2.86,2.86,0,0,0-.64-0.06,2.71,2.71,0,0,0-1.13.23,1.89,1.89,0,0,0-.82.7,2,2,0,0,0-.31,1.15,2.14,2.14,0,0,0,.28,1.11,2.89,2.89,0,0,0,.71.81,11.36,11.36,0,0,0,1.15.77,10.12,10.12,0,0,1,1,.69,2.59,2.59,0,0,1,.61.67,1.55,1.55,0,0,1,.23.83,1.7,1.7,0,0,1-.22.9,1.35,1.35,0,0,1-.57.53,1.75,1.75,0,0,1-.76.17,1.79,1.79,0,0,1-1.59-.75,3.9,3.9,0,0,1-.6-2h-0.28q0,2.22,0,2.88h0.28a1.46,1.46,0,0,1,.09-0.4,0.18,0.18,0,0,1,.17-0.13,0.89,0.89,0,0,1,.41.17,3.15,3.15,0,0,0,.7.33,3.52,3.52,0,0,0,2.24-.14,2.11,2.11,0,0,0,.92-0.77A2.21,2.21,0,0,0,395.56,339.39Zm6.6-1a4.21,4.21,0,0,0-.35-1.84,2.38,2.38,0,0,0-1-1.08,3,3,0,0,0-2.81,0,2.38,2.38,0,0,0-1,1.08,5,5,0,0,0,0,3.68,2.37,2.37,0,0,0,1,1.07,3,3,0,0,0,2.81,0,2.37,2.37,0,0,0,1-1.07A4.19,4.19,0,0,0,402.15,338.42Zm7.55,2.83a1.52,1.52,0,0,1-.54-0.08,0.51,0.51,0,0,1-.29-0.26,1.22,1.22,0,0,1-.09-0.52v-3.21a3.88,3.88,0,0,0-.1-1,1.45,1.45,0,0,0-.32-0.61,1.68,1.68,0,0,0-1.27-.45,2.08,2.08,0,0,0-2,1.45v-1.41a4,4,0,0,1-1.25.16q-0.37,0-.74,0v0.25a0.87,0.87,0,0,1,.71.25,1.29,1.29,0,0,1,.2.81v3.76a1.22,1.22,0,0,1-.09.52,0.51,0.51,0,0,1-.29.26,1.52,1.52,0,0,1-.54.08v0.25l1.44,0,1.35,0v-0.25a1.17,1.17,0,0,1-.47-0.08,0.48,0.48,0,0,1-.25-0.26,1.38,1.38,0,0,1-.08-0.52v-2.67a2.83,2.83,0,0,1,.21-1.11,1.86,1.86,0,0,1,.59-0.79,1.42,1.42,0,0,1,.88-0.29,0.94,0.94,0,0,1,.62.18,0.86,0.86,0,0,1,.28.47,3.31,3.31,0,0,1,.07.73v3.47a1.38,1.38,0,0,1-.08.52,0.48,0.48,0,0,1-.25.26,1.15,1.15,0,0,1-.47.08v0.25l1.34,0,1.44,0v-0.25Zm6.18,0a1,1,0,0,0-.39-0.85,1.78,1.78,0,0,0-1-.26h-2.82a0.75,0.75,0,0,1-.44-0.1,0.35,0.35,0,0,1-.13-0.3,0.62,0.62,0,0,1,.26-0.47,4.35,4.35,0,0,1,.75-0.48,3.28,3.28,0,0,0,.88.11,3,3,0,0,0,1.15-.21,1.71,1.71,0,0,0,.79-0.63,2.11,2.11,0,0,0,0-2.16,1.74,1.74,0,0,0-.85-0.63,3,3,0,0,1,.12-0.5,1.42,1.42,0,0,1,.32-0.59,1.37,1.37,0,0,0,.2.57,0.51,0.51,0,0,0,.44.18,0.56,0.56,0,0,0,.57-0.57,0.63,0.63,0,0,0-.17-0.45,0.61,0.61,0,0,0-.47-0.18,1,1,0,0,0-.82.4,2.42,2.42,0,0,0-.42,1.07,3.18,3.18,0,0,0-.85-0.11,2.55,2.55,0,0,0-1.61.47,1.69,1.69,0,0,0-.61,1.42,1.87,1.87,0,0,0,.29,1.08,1.72,1.72,0,0,0,.82.63,3.62,3.62,0,0,0-1.16.74,1.14,1.14,0,0,0-.34.78,0.74,0.74,0,0,0,.37.72,1.77,1.77,0,0,0,.83.19h0a4.13,4.13,0,0,0-1.08.67,1.08,1.08,0,0,0-.43.79,0.73,0.73,0,0,0,.34.6,2.4,2.4,0,0,0,.89.38,5.31,5.31,0,0,0,1.18.13,4.16,4.16,0,0,0,1.85-.37,2.78,2.78,0,0,0,1.13-.94A2.07,2.07,0,0,0,415.88,341.29Z" transform="translate(-1.33 1.17)"/></svg>