<?xml version="1.0" encoding="utf-8"?>
<!-- Generator: Adobe Illustrator 21.0.2, SVG Export Plug-In . SVG Version: 6.00 Build 0)  -->
<svg version="1.1" id="Layer_1" xmlns="http://www.w3.org/2000/svg" xmlns:xlink="http://www.w3.org/1999/xlink" x="0px" y="0px"
	 viewBox="0 0 2500 2500" style="enable-background:new 0 0 2500 2500;" xml:space="preserve">
<style type="text/css">
	.st0{fill:#212121;}
</style>
<g>
	<path class="st0" d="M1048.4,1519.6c-105.7,91.6-184,187.7-234.9,288.3c127.8,99.5,271.9,149.2,432.4,149.2
		c83.7,0,166.8-15.8,249.3-47.5c-22.6-193.3-66.7-380.4-132.3-561.3C1259,1371,1154.1,1428.1,1048.4,1519.6z"/>
	<path class="st0" d="M974.7,1412.8c117.6-96.1,232.3-156.6,344.2-181.5c-17-39.6-33.3-75.2-49.2-106.8
		c-194.5,62.2-404.7,93.3-630.8,93.3c-44.1,0-76.9-0.6-98.4-1.7c0,4.5-0.3,10.2-0.8,17c-0.6,6.8-0.8,12.4-0.8,17
		c0,176.4,59.4,331.8,178.1,466.3C771.2,1610.1,857.1,1508.9,974.7,1412.8z"/>
	<path class="st0" d="M1208.7,1002.4c-85.9-152.6-180.3-279.8-283.2-381.6c-89.3,45.2-165.9,108-229.8,188.2
		c-63.9,80.3-108.8,169-134.8,266.2c24.9,2.3,61.6,3.4,110.2,3.4C859.9,1078.7,1039.1,1053.3,1208.7,1002.4z"/>
	<path class="st0" d="M1697.1,705.6c-131.1-108.5-281.5-162.8-451.1-162.8c-57.7,0-115.3,7.9-173,23.7
		c99.5,102.9,191.6,231.2,276.4,384.9C1503.2,887.1,1619.1,805.1,1697.1,705.6z"/>
	<path class="st0" d="M1510.5,1328c57.7,167.3,96.7,339.2,117,515.5c89.3-57.7,162.2-131.7,218.8-222.1
		c56.5-90.4,90.4-188.2,101.7-293.4c-82.5-5.7-157.7-8.5-225.5-8.5C1660.3,1319.5,1589.7,1322.4,1510.5,1328z"/>
	<path class="st0" d="M1410.5,1071.9c17,36.2,36.2,82,57.7,137.4c83.7-7.9,174.7-11.9,273-11.9c70.1,0,139.6,1.7,208.6,5.1
		c-9-153.8-64.4-290.5-166.2-410.4C1710.1,901.8,1585.7,995.1,1410.5,1071.9z"/>
	<path class="st0" d="M1246,5.5L1246,5.5C558.7,5.5,1.5,562.7,1.5,1250v0c0,687.3,557.2,1244.5,1244.5,1244.5h0
		c687.3,0,1244.5-557.2,1244.5-1244.5v0C2490.5,562.7,1933.3,5.5,1246,5.5z M1980.3,1675.6c-75.7,130-178.6,232.9-308.6,308.6
		c-130,75.7-271.9,113.6-425.6,113.6c-153.8,0-295.6-37.9-425.6-113.6c-130-75.7-232.9-178.6-308.6-308.6
		c-75.7-130-113.6-271.9-113.6-425.6S436,954.4,511.7,824.4c75.7-130,178.6-232.9,308.6-308.6c130-75.7,271.9-113.6,425.6-113.6
		c153.8,0,295.6,37.9,425.6,113.6c130,75.7,232.9,178.6,308.6,308.6c75.7,130,113.6,271.9,113.6,425.6S2056,1545.6,1980.3,1675.6z"
		/>
</g>
</svg>
