<?xml version="1.0" encoding="utf-8"?>
<!-- Generator: Adobe Illustrator 21.0.2, SVG Export Plug-In . SVG Version: 6.00 Build 0)  -->
<svg version="1.1" id="Layer_1" xmlns="http://www.w3.org/2000/svg" xmlns:xlink="http://www.w3.org/1999/xlink" x="0px" y="0px"
	 viewBox="0 0 612 792" enable-background="new 0 0 612 792" xml:space="preserve">
<path fill="#212121" d="M459,90H153C68.5,90,0,158.5,0,243v306c0,84.5,68.5,153,153,153h306c84.5,0,153-68.5,153-153V243
	C612,158.5,543.5,90,459,90z M388.3,396h-56.8c0,85.7,0,191.3,0,191.3H255c0,0,0-104.6,0-191.3h-38.3v-76.5h37.9v-34.6
	c0-31.3,14.9-80.2,80.5-80.2l59.1,0.2v65.5c0,0-35.9,0-42.9,0s-16.9,3.5-16.9,18.4v30.6h60.8L388.3,396z"/>
<g id="Layer_1_1_">
</g>
</svg>
