<?xml version="1.0" encoding="UTF-8"?>
<svg width="74px" height="74px" viewBox="0 0 74 74" version="1.1" xmlns="http://www.w3.org/2000/svg" xmlns:xlink="http://www.w3.org/1999/xlink">
    <!-- Generator: Sketch 61.2 (89653) - https://sketch.com -->
    <title>jarell_alvarez_Favicon</title>
    <desc>Created with Sketch.</desc>
    <g id="Page-1" stroke="none" stroke-width="1" fill="none" fill-rule="evenodd">
        <g id="Jarell-Portfolio---Desktop---Mockup" transform="translate(-300.000000, -45.000000)" fill="#9F947A" fill-rule="nonzero">
            <g id="Group" transform="translate(300.000000, 45.000000)">
                <g id="jarell_alvarez_Favicon" transform="translate(0.439086, 0.358604)">
                    <path d="M36.5,0 C16.3330654,0 0,16.3330654 0,36.5 C0,56.6473741 16.3330654,73 36.5,73 C56.6473741,73 73,56.6669346 73,36.5 C72.9804394,16.3330654 56.6473741,0 36.5,0 Z M31.727224,56.6473741 C23.7660772,56.6473741 17.3306538,50.1923901 17.3306538,42.2508039 L17.3306538,15.4332797 L31.727224,15.4332797 L31.727224,56.6473741 Z M58.5447481,56.6473741 L36.9890139,56.6473741 L36.9890139,42.8376206 L58.5643087,42.8376206 L58.5643087,56.6473741 L58.5447481,56.6473741 Z M36.9890139,37.5758307 L37.0476956,15.4137192 L58.5643087,37.5758307 L36.9890139,37.5758307 Z" id="Shape"></path>
                </g>
            </g>
        </g>
    </g>
</svg>
