<?xml version="1.0" encoding="utf-8"?>
<!-- Generator: Adobe Illustrator 21.0.2, SVG Export Plug-In . SVG Version: 6.00 Build 0)  -->
<svg version="1.1" id="Layer_1" xmlns="http://www.w3.org/2000/svg" xmlns:xlink="http://www.w3.org/1999/xlink" x="0px" y="0px"
	 viewBox="0 0 612 792" enable-background="new 0 0 612 792" xml:space="preserve">
<g>
	<path fill="#212121" d="M306,463.3c37.1,0,67.3-30.2,67.3-67.3c0-14.6-4.8-28.2-12.8-39.2c-12.3-17-32.1-28.1-54.6-28.1
		s-42.3,11.1-54.6,28.1c-8,11.1-12.8,24.6-12.8,39.2C238.7,433.1,268.9,463.3,306,463.3z"/>
	<path fill="#212121" d="M410.6,396c0,57.7-46.9,104.6-104.6,104.6c-57.7,0-104.6-46.9-104.6-104.6c0-13.9,2.8-27.1,7.7-39.2H152
		v156.6c0,20.2,16.4,36.7,36.7,36.7h234.7c20.2,0,36.7-16.4,36.7-36.7V356.8h-57.1C407.8,368.9,410.6,382.1,410.6,396z"/>
	<polygon fill="#212121" points="453,313.6 453,257.2 453,248.8 444.5,248.9 388.1,249 388.4,313.8 	"/>
	<path fill="#212121" d="M459,90H153C68.5,90,0,158.5,0,243v306c0,84.5,68.5,153,153,153h306c84.5,0,153-68.5,153-153V243
		C612,158.5,543.5,90,459,90z M497.3,356.8v156.6c0,40.8-33.2,73.9-73.9,73.9H188.7c-40.8,0-73.9-33.1-73.9-73.9V356.8v-78.1
		c0-40.8,33.2-73.9,73.9-73.9h234.7c40.8,0,73.9,33.2,73.9,73.9V356.8z"/>
</g>
<g id="Layer_1_1_">
</g>
</svg>
