<?xml version="1.0" encoding="utf-8"?>
<!-- Generator: Adobe Illustrator 21.0.2, SVG Export Plug-In . SVG Version: 6.00 Build 0)  -->
<svg version="1.1" id="Layer_1" xmlns="http://www.w3.org/2000/svg" xmlns:xlink="http://www.w3.org/1999/xlink" x="0px" y="0px"
	 viewBox="0 0 255 118" style="enable-background:new 0 0 255 118;" xml:space="preserve">
<g>
	<path d="M61.3,82.5H7.7l14.7-71.4h12.4L21.7,74.9H63L61.3,82.5z"/>
	<path d="M81.5,11.1h12.4L79.2,82.5H66.8L81.5,11.1z"/>
	<path d="M101.2,82.5H88.8l14.7-71.4h12.4l35.2,56.4l11.3-56.4h12.4l-14.7,71.4h-12.4l-34.9-55.8L101.2,82.5z"/>
	<path d="M210,40.9c16.1,11.1,23.2,25.9,23.2,37.7c0,1.5,0,2.5-0.3,3.9h-12.3c0.3-1.6,0.4-3.6,0.4-5.3c0-10.7-5.9-21.8-18.8-29.8
		l-15,11l-5.1,24h-12.4l14.7-71.4h12.4L189.4,46l44.9-34.9h14.1L210,40.9z"/>
</g>
<g>
	<path d="M70.4,100.7l0-3.9h0l-4.1,7.4h-0.6l-4.1-7.4h0c0,0,0,2.8,0,4v6.2h-0.8V95.7h0.9l2.8,5c1,1.7,1.4,2.6,1.4,2.6h0
		c0,0,0.5-0.9,1.4-2.7l2.8-4.9h0.9v11.2h-0.8V100.7z"/>
	<path d="M82.8,103.4l-1.5,3.5h-0.8l4.9-11.2h0.8l4.9,11.2h-0.8l-1.5-3.5H82.8z M87.1,99.6c-0.9-2.1-1.3-3.2-1.3-3.2h0
		c0,0-0.5,1.2-1.4,3.3l-1.2,2.9h5.3L87.1,99.6z"/>
	<path d="M109.6,106.9c0-1.6,0-2,0-2h0c-0.5,0.6-1.9,2.2-4.7,2.2c-3.4,0-5.9-2.5-5.9-5.8c0-3.4,2.5-5.8,5.8-5.8
		c1.9,0,4.2,0.8,5.3,3.3l-0.7,0.2c-0.6-1.2-2-2.8-4.5-2.8c-2.9,0-5.1,2.1-5.1,5.1c0,3,2.2,5.1,5.1,5.1c2.4,0,4.1-1.4,4.7-2.4v-1.8
		h-3.7v-0.7h4.4v5.4H109.6z"/>
	<path d="M121.5,103.4l-1.5,3.5h-0.8l4.9-11.2h0.8l4.9,11.2h-0.8l-1.5-3.5H121.5z M125.8,99.6c-0.9-2.1-1.3-3.2-1.3-3.2h0
		c0,0-0.5,1.2-1.4,3.3l-1.2,2.9h5.3L125.8,99.6z"/>
	<path d="M141.3,103.7c-1.9,2.3-2.2,2.5-2.2,2.5l0,0c0,0,0.5,0,1.3,0h6.9v0.7h-9.2v-0.7l6.3-7.4c1.6-1.9,2-2.3,2-2.4h0h-1.3h-6.8
		v-0.7h9.1v0.7L141.3,103.7z"/>
	<path d="M157,95.7h0.8v11.2H157V95.7z"/>
	<path d="M176.4,106.9L169,96.8h0c0,0,0,1.2,0,2.6v7.5h-0.8V95.7h0.8l7.3,10h0c0,0,0-1.2,0-2.5v-7.5h0.7v11.2H176.4z"/>
	<path d="M187.6,95.7h7.4v0.7h-6.6v4.3h5.3v0.7h-5.3v4.8h6.7v0.7h-7.5V95.7z"/>
</g>
</svg>
