<?xml version="1.0" encoding="utf-8"?>
<!-- Generator: Adobe Illustrator 16.0.0, SVG Export Plug-In . SVG Version: 6.00 Build 0)  -->
<!DOCTYPE svg PUBLIC "-//W3C//DTD SVG 1.1//EN" "http://www.w3.org/Graphics/SVG/1.1/DTD/svg11.dtd">
<svg version="1.1" id="Logos" xmlns="http://www.w3.org/2000/svg" xmlns:xlink="http://www.w3.org/1999/xlink" x="0px" y="0px"
	 width="510px" height="95.999px" viewBox="0 0 510 95.999" enable-background="new 0 0 510 95.999" xml:space="preserve">
<g>
	<g>
		<path d="M69.911,72.117c5.412-6.223,9.076-13.861,9.076-22.67c0-8.484-3.209-16.521-9.035-22.627
			c-5.446-6.002-13.509-9.607-21.528-9.607c-8.269,0-16.302,3.506-22.043,9.621c-5.706,5.979-8.854,14.016-8.854,22.613
			c0,8.418,3.141,16.445,8.844,22.605c4.31,4.65,8.014,6.908,11.999,6.725c2.379-0.01,3.945-1.498,5.102-1.998
			c5.321-2.625,8.83-1.064,11.376,0.209c1.923,1.145,3.624,1.75,4.791,1.75C61.934,78.738,65.929,76.697,69.911,72.117z
			 M65.14,49.447c0,4.877-1.859,9.668-5.101,13.143c-3.155,3.383-7.28,5.246-11.616,5.246c-4.618,0-8.751-1.814-11.954-5.246
			c-3.245-3.398-5.097-8.184-5.097-13.143c0-4.982,1.846-9.73,5.063-13.023c3.287-3.521,7.421-5.363,11.987-5.363
			c4.285,0,8.41,1.891,11.617,5.328C63.287,39.791,65.14,44.545,65.14,49.447z"/>
		<path fill="#57C9E8" d="M53.196,47.299c-2.13,0-3.859-1.729-3.859-3.861c0-0.367,0.067-0.715,0.163-1.051
			c-0.405-0.072-0.82-0.115-1.244-0.115c-3.986,0-7.219,3.23-7.219,7.217c0,3.988,3.232,7.219,7.219,7.219s7.218-3.23,7.218-7.219
			c0-0.934-0.183-1.82-0.506-2.639C54.435,47.127,53.838,47.299,53.196,47.299z"/>
	</g>
	<g>
		<path d="M170.805,17.436h-0.155c-2.223,0-4.178,0.996-5.513,2.818l-14.871,20.623l-14.825-20.559
			c-1.187-1.779-3.284-2.883-5.474-2.883h-0.25c-3.727,0-6.757,3.031-6.757,6.758v49.285c0,3.725,3.03,6.756,6.757,6.756
			c3.771,0,6.839-3.031,6.839-6.756V45.051l8.039,11.242c1.307,1.785,3.343,2.809,5.588,2.809h0.167c2.226,0,4.18-0.998,5.514-2.822
			l8.112-11.266v28.465c0,3.725,3.031,6.756,6.758,6.756c3.707,0,6.839-3.094,6.839-6.756V24.193
			C177.573,20.592,174.537,17.559,170.805,17.436z"/>
		<path d="M300.441,18.27c-3.68,0-6.673,2.994-6.673,6.676v27.732l-23.055-31.906c-1.222-1.725-3.242-2.754-5.406-2.754
			c-1.4,0-2.758,0.42-3.985,1.258c-1.805,1.322-2.847,3.512-2.722,5.67v48.533c0,3.725,3.031,6.756,6.756,6.756
			c3.617,0,6.673-3.094,6.673-6.756V45.51l22.745,31.559c0.204,0.34,0.449,0.598,0.652,0.801c1.274,1.482,3.142,2.365,5.015,2.365
			c3.727,0,6.757-3.031,6.757-6.756V24.945C307.198,21.326,304.104,18.27,300.441,18.27z"/>
		<path d="M356.498,44.295c-3.218-1.531-7.044-2.701-12.042-3.68l-0.205-0.039h-0.176c-4.078-0.773-7.502-1.969-9.413-3.293
			c-1.096-0.76-1.521-1.332-1.652-1.539c-0.146-0.232-0.256-0.467-0.256-1.193c0-1.207,0.773-2.395,2.3-3.525
			c2.073-1.537,5.014-2.416,8.067-2.416c4.423,0,8.017,2.16,12.252,4.98c1.062,0.711,2.295,1.086,3.562,1.086
			c2.212,0,4.23-1.117,5.342-2.9c2.003-2.879,1.236-6.891-1.769-8.98l-0.207-0.135c-4.241-2.746-10.65-6.896-19.181-6.896
			c-5.82,0-11.402,1.719-15.734,4.854c-4.806,3.551-7.561,8.629-7.561,13.934c0,2.877,0.777,5.643,2.253,8
			c1.906,3.033,4.825,5.496,8.674,7.32c3.053,1.445,6.642,2.535,11.294,3.428l0.201,0.039h0.172
			c4.487,0.854,8.292,2.152,10.446,3.562c0.866,0.576,1.455,1.154,1.852,1.818c0.336,0.561,0.443,0.939,0.443,1.561
			c0,1.518-0.91,2.955-2.708,4.271c-2.28,1.674-5.705,2.672-9.193,2.672l-0.181,0.002c-5.246,0-11.024-3.201-14.375-5.943
			c-1.158-0.949-2.624-1.471-4.13-1.471c-1.958,0-3.784,0.857-5.049,2.404c-2.159,2.793-1.705,6.873,1.039,9.115
			c5.034,3.977,13.059,8.73,22.706,8.822h0.02c6.242,0,12.185-1.84,16.717-5.17c5.138-3.699,8.084-9.057,8.084-14.703
			c0-2.906-0.829-5.834-2.331-8.244C363.82,48.918,360.797,46.389,356.498,44.295z"/>
		<path d="M491.197,69.531l-14.937-20.439l14.978-20.344c2.112-3.105,1.425-7.271-1.525-9.318c-1.193-0.893-2.58-1.365-4.015-1.365
			c-2.125,0-4.103,1.037-5.428,2.846l-12.292,16.832L455.64,20.949c-1.208-1.809-3.218-2.885-5.389-2.885
			c-1.441,0-2.864,0.488-4.015,1.375c-1.46,1.02-2.423,2.551-2.712,4.32c-0.285,1.738,0.113,3.51,1.166,5.055l14.931,20.277
			l-14.954,20.463c-1.036,1.461-1.444,3.324-1.122,5.109c0.314,1.742,1.271,3.244,2.698,4.236c1.144,0.873,2.506,1.334,3.948,1.334
			c2.039,0,3.998-1,5.42-2.807l12.367-16.904l12.34,16.967c1.373,1.744,3.363,2.744,5.458,2.744c1.337,0,2.691-0.453,3.889-1.293
			c1.43-0.973,2.389-2.465,2.701-4.199C492.692,72.939,492.272,71.049,491.197,69.531z"/>
		<path d="M222.778,45.768c-2.132,0-3.86-1.727-3.86-3.861c0-0.367,0.067-0.715,0.163-1.051c-0.405-0.07-0.819-0.115-1.244-0.115
			c-3.986,0-7.219,3.23-7.219,7.219s3.232,7.219,7.219,7.219c3.985,0,7.218-3.23,7.218-7.219c0-0.934-0.184-1.822-0.505-2.641
			C224.017,45.596,223.421,45.768,222.778,45.768z"/>
		<path d="M411.702,45.768c-2.13,0-3.859-1.727-3.859-3.861c0-0.367,0.067-0.715,0.163-1.051c-0.405-0.07-0.82-0.115-1.244-0.115
			c-3.986,0-7.219,3.23-7.219,7.219s3.232,7.219,7.219,7.219s7.218-3.23,7.218-7.219c0-0.934-0.183-1.822-0.506-2.641
			C412.941,45.596,412.345,45.768,411.702,45.768z"/>
		<path d="M187.105,48c0,8.484,3.208,16.521,9.034,22.627c5.45,6.002,13.512,9.607,21.531,9.607c8.269,0,16.303-3.506,22.042-9.621
			c5.706-5.979,8.855-14.016,8.855-22.613c0-8.943-3.166-16.996-8.912-22.674c-5.342-5.273-9.622-7.043-12.223-7.523
			c-4.826-0.895-7.418,0.584-8.91,1.021c-0.381,0.113-0.785,0.213-1.197,0.305c4.018,1.254,7.729,3.629,12.08,7.629
			c0,0-21.461-9.928-26.48-6.84c-0.667,0.406-4.114,2.527-6.784,5.453C190.575,31.705,187.105,39.504,187.105,48z M200.952,48
			c0-4.877,1.86-9.668,5.1-13.143c3.156-3.383,7.282-5.246,11.618-5.246c4.616,0,8.749,1.814,11.951,5.246
			c3.247,3.4,5.1,8.184,5.1,13.143c0,4.982-1.846,9.729-5.065,13.023c-3.287,3.521-7.421,5.363-11.985,5.363
			c-4.285,0-8.411-1.893-11.619-5.328C202.806,57.654,200.952,52.902,200.952,48z M202.925,19.918
			c-0.667,0.406-4.354,2.693-6.784,5.453c-5.566,6.334-9.036,14.133-9.036,22.629"/>
		<path d="M428.458,25.371c-2.67-2.926-6.116-5.047-6.783-5.453c-5.02-3.088-26.48,6.84-26.48,6.84c4.351-4,8.062-6.375,12.08-7.629
			c-0.412-0.092-0.816-0.191-1.197-0.305c-1.492-0.438-4.084-1.916-8.91-1.021c-2.601,0.48-6.881,2.25-12.223,7.523
			c-5.746,5.678-8.912,13.73-8.912,22.674c0,8.598,3.149,16.635,8.855,22.613c5.739,6.115,13.773,9.621,22.042,9.621
			c8.019,0,16.081-3.605,21.53-9.607c5.826-6.105,9.033-14.143,9.033-22.627C437.493,39.504,434.024,31.705,428.458,25.371z
			 M418.549,61.059c-3.208,3.436-7.334,5.328-11.619,5.328c-4.564,0-8.698-1.842-11.985-5.363c-3.22-3.295-5.065-8.041-5.065-13.023
			c0-4.959,1.853-9.742,5.1-13.143c3.202-3.432,7.335-5.246,11.951-5.246c4.336,0,8.462,1.863,11.618,5.246
			c3.24,3.475,5.1,8.266,5.1,13.143C423.647,52.902,421.794,57.654,418.549,61.059z M437.493,48c0-8.496-3.469-16.295-9.035-22.629
			c-2.43-2.76-6.116-5.047-6.783-5.453"/>
	</g>
</g>
</svg>
