<?xml version="1.0" encoding="utf-8"?>
<!-- Generator: Adobe Illustrator 16.0.0, SVG Export Plug-In . SVG Version: 6.00 Build 0)  -->
<!DOCTYPE svg PUBLIC "-//W3C//DTD SVG 1.1//EN" "http://www.w3.org/Graphics/SVG/1.1/DTD/svg11.dtd">
<svg version="1.1" xmlns="http://www.w3.org/2000/svg" xmlns:xlink="http://www.w3.org/1999/xlink" x="0px" y="0px" width="300px"
	 height="300px" viewBox="0 0 1080 1080" enable-background="new 0 0 1080 1080" xml:space="preserve">
<g id="BG__x26__Guides">
</g>
<g id="Logo">
	<g>
		<path d="M771.575,799.079c57.753-66.413,96.853-147.915,96.853-241.923c0-90.538-34.243-176.292-96.415-241.444
			C713.895,251.665,627.859,213.18,542.281,213.18c-88.234,0-173.957,37.422-235.222,102.668
			c-60.89,63.808-94.487,149.562-94.487,241.309c0,89.828,33.513,175.49,94.373,241.225c45.987,49.625,85.515,73.72,128.043,71.76
			c25.385-0.094,42.101-15.976,54.439-21.312c56.784-28.012,94.228-11.369,121.395,2.22c20.518,12.214,38.672,18.675,51.126,18.675
			C686.456,869.724,729.088,847.944,771.575,799.079z M720.669,557.156c0,52.052-19.841,103.178-54.429,140.256
			c-33.671,36.088-77.688,55.972-123.959,55.972c-49.28,0-93.382-19.352-127.563-55.972
			c-34.629-36.275-54.387-87.327-54.387-140.256c0-53.157,19.696-103.825,54.033-138.964
			c35.077-37.588,79.189-57.242,127.917-57.242c45.728,0,89.747,20.185,123.969,56.856
			C700.891,454.125,720.669,504.842,720.669,557.156z"/>
		<path fill="#57C9E8" d="M593.209,534.23c-22.728,0-41.184-18.434-41.184-41.204c0-3.918,0.72-7.628,1.74-11.213
			c-4.324-0.761-8.754-1.23-13.275-1.23c-42.539,0-77.032,34.472-77.032,77.021c0,42.559,34.493,77.032,77.032,77.032
			s77.021-34.474,77.021-77.032c0-9.963-1.948-19.435-5.398-28.167C606.434,532.396,600.066,534.23,593.209,534.23z"/>
	</g>
</g>
</svg>
