<?xml version="1.0" encoding="utf-8"?>
<!-- Generator: Adobe Illustrator 21.0.2, SVG Export Plug-In . SVG Version: 6.00 Build 0)  -->
<svg version="1.1" xmlns="http://www.w3.org/2000/svg" xmlns:xlink="http://www.w3.org/1999/xlink" x="0px" y="0px"
	 viewBox="0 0 410 260" style="enable-background:new 0 0 410 260;" xml:space="preserve">
<style type="text/css">
	.st0{fill:#FAFBFB;}
	.st1{fill:#192012;stroke:#010101;stroke-width:6.676049e-02;stroke-miterlimit:10;}
	.st2{fill:#1F2614;stroke:#010101;stroke-width:6.676049e-02;stroke-miterlimit:10;}
	.st3{fill:url(#egg_shape_4_);stroke:#010101;stroke-width:0.2709;stroke-miterlimit:10;}
	.st4{fill:#010101;}
	.st5{fill:#FFFFFF;}
	.st6{fill:#FFFFFF;stroke:#889799;stroke-width:0.4236;stroke-miterlimit:10;}
	.st7{fill:#323375;}
	.st8{fill:#846C2C;}
	.st9{fill:#63A70A;stroke:#4E9D2D;stroke-width:0.8403;stroke-miterlimit:10;}
	.st10{fill:#FFFFFF;stroke:#889799;stroke-width:0.5761;stroke-miterlimit:10;}
	.st11{fill:#192012;stroke:#010101;stroke-width:9.079427e-02;stroke-miterlimit:10;}
	.st12{fill:#4E4E4E;}
	.st13{fill:#AB4A5F;}
	.st14{fill:url(#egg_shape_5_);stroke:#010101;stroke-width:3.831783e-02;stroke-miterlimit:10;}
	.st15{display:none;}
	.st16{display:inline;}
	.st17{fill:#9BE7D8;}
	.st18{fill:#47A141;}
	.st19{fill:#63A70A;}
	.st20{fill:none;stroke:#4A7628;stroke-width:0.4243;stroke-miterlimit:10;}
	.st21{fill:#0E1E12;}
	.st22{fill:#63A70A;stroke:#4A7628;stroke-width:0.4243;stroke-miterlimit:10;}
	.st23{fill:#F8971D;}
	.st24{fill:#5D6135;}
	.st25{fill:#949A90;}
	.st26{fill:#6CC04A;stroke:#47A141;stroke-width:0.4312;stroke-miterlimit:10;}
	.st27{fill:#B34FC5;}
	.st28{fill:#FF7175;}
	.st29{fill:#6CC04A;stroke:#47A141;stroke-width:0.3067;stroke-miterlimit:10;}
	.st30{fill:#E7417A;}
	.st31{fill:#6CC04A;stroke:#47A141;stroke-width:0.452;stroke-miterlimit:10;}
	.st32{fill:#6CC04A;stroke:#47A141;stroke-width:0.5437;stroke-miterlimit:10;}
	.st33{fill:#FF4338;}
	.st34{fill:#FFFFFF;stroke:#010101;stroke-width:5.199488e-02;stroke-miterlimit:10;}
	.st35{fill:#FFFFFF;stroke:#010101;stroke-width:6.688130e-02;stroke-miterlimit:10;}
	.st36{fill:#FFFFFF;stroke:#010101;stroke-width:5.530008e-02;stroke-miterlimit:10;}
	.st37{fill:#63A70A;stroke:#4E9D2D;stroke-width:0.8439;stroke-miterlimit:10;}
	.st38{fill:#FFFFFF;stroke:#010101;stroke-width:0.2418;stroke-miterlimit:10;}
	.st39{fill:#FFFFFF;stroke:#010101;stroke-width:4.912344e-02;stroke-miterlimit:10;}
	.st40{fill:#FFFFFF;stroke:#010101;stroke-width:5.452800e-02;stroke-miterlimit:10;}
	.st41{fill:#FFFFFF;stroke:#010101;stroke-width:4.785465e-02;stroke-miterlimit:10;}
	.st42{fill:url(#egg5_1_);}
	.st43{fill:url(#hardegg5_1_);}
	.st44{fill:url(#hardegg4_1_);}
	.st45{fill:url(#hardegg3_1_);}
	.st46{fill:url(#hardegg2_1_);}
	.st47{fill:url(#hardegg1_1_);}
	.st48{fill:#FFFFFF;stroke:#010101;stroke-width:6.749211e-02;stroke-miterlimit:10;}
	.st49{fill:#C62D2D;}
	.st50{fill-rule:evenodd;clip-rule:evenodd;fill:#010101;}
</style>
<g id="Layer_2">
	<rect class="st0" width="410" height="259.8"/>
	<g>
		<path class="st1" d="M373.3,260H37.8V0.8h335.5V260z"/>
		<path class="st2" d="M373.3,260H37.8V0.8h335.5V260z"/>
		<linearGradient id="egg_shape_4_" gradientUnits="userSpaceOnUse" x1="119.1916" y1="145.834" x2="167.5335" y2="145.834">
			<stop  offset="5.618000e-03" style="stop-color:#FBCA2A"/>
			<stop  offset="0.2528" style="stop-color:#FDF9CE"/>
			<stop  offset="0.299" style="stop-color:#F7EDBD"/>
			<stop  offset="0.3903" style="stop-color:#EBD796"/>
			<stop  offset="0.4036" style="stop-color:#E9D490"/>
			<stop  offset="0.486" style="stop-color:#D7B666"/>
			<stop  offset="0.5955" style="stop-color:#C2922E"/>
			<stop  offset="0.8246" style="stop-color:#E5C977"/>
			<stop  offset="0.8708" style="stop-color:#EED688"/>
			<stop  offset="1" style="stop-color:#FDF9CE"/>
		</linearGradient>
		<path id="egg_shape_2_" class="st3" d="M112,151.3c0,18,10.8,25.6,24.1,25.6c13.3,0,24.1-7.6,24.1-25.6s-11.1-36.4-24.4-36.4
			S112,133.3,112,151.3z"/>
		<g>
			<path class="st4" d="M240.9,193.3V40.1h107.8v153.1H240.9z"/>
			<path class="st5" d="M357.3,212.7H232.6c-5.9,0-10.7-4.8-10.7-10.7V31.5c0-5.9,4.8-10.7,10.7-10.7h125.5c5.5,0,10,4.5,10,10
				v171.2C368.1,207.8,363.2,212.7,357.3,212.7z M241.3,193.3h107.4V40.1H241.3V193.3z"/>
		</g>
		<path id="onbut" class="st6" d="M289.5,204.6v-0.4c0-2.8,2.3-5.1,5.1-5.1h0.4c2.8,0,5.1,2.3,5.1,5.1v0.4c0,2.8-2.3,5.1-5.1,5.1
			h-0.4C291.7,209.7,289.5,207.4,289.5,204.6z"/>
		<path class="st7" d="M298.3,28.4c0.5,0,1,0.4,1,1s-0.4,1-1,1s-1-0.4-1-1S297.8,28.4,298.3,28.4z"/>
		<polygon class="st8" points="347.1,220 65,219.5 37.8,236.7 37.8,260 373.3,260 373.3,237 		"/>
		<path id="grasses" class="st9" d="M118,177.2c-0.4,0.1-1.8,0.5-1.9-4.5c0-5.9-9.3-10.9-7.8-10.9c1.6,0,10.4,4.9,10.5,10.8
			C118.7,177.3,118.6,177.1,118,177.2z M224.2,207.9c-0.1-5.9-5.6-22.3-6.2-22.3c-0.4,0.2,1.3,14.3,3.5,20.5
			c0.1,5.1,1.5,6.5,1.9,6.4C223.9,212.5,224.1,212.7,224.2,207.9z M157.8,167.4c-0.1-7.4,6.4-12.2,6.1-12.5c-1.2,0-8.2,5.3-8.2,12.7
			s1.2,5.8,1.6,5.7C157.6,173.1,157.9,174.9,157.8,167.4z M367.2,206.3c-0.1-9.5,6.4-12.2,6.1-12.5c-1.2,0-8.2,5.3-8.2,12.7
			s1.2,5.8,1.6,5.7C367,212.1,367.3,213.9,367.2,206.3z M121.8,170.3c0.1-1.7,1.4-4.1,0.1-4.1c-1.2,0-1.9,2.8-2.3,4.2
			c-2.1,7.1,1.2,5.8,1.6,5.7C121.3,176.1,121.4,176.2,121.8,170.3z M155.6,168.6c-0.5-1.4-1.7-3.4-2.3-3.4c-1.2,0,0.6,2.1,0.1,3.5
			c-2.1,7.1,1.2,5.8,1.6,5.7C155.4,174.4,155.3,176.2,155.6,168.6z M366.3,208.2c-0.5-1.4-1.7-3.4-2.3-3.4c-1.2,0,0.3,2.6-0.1,4.1
			c0.8,3.1,0.3,5.5,1.8,5.2C366,213.9,366.1,213.3,366.3,208.2z M226.5,209c-0.5-1.4-1.2-4.5-1.8-4.5c-1.2,0,0.6,2.1,0.1,3.5
			c-2.1,7.1,1.2,5.8,1.6,5.7C226.8,213.6,225.8,210.4,226.5,209z"/>
		<path id="het" class="st10" d="M207.5,254.2l-4.2-0.1c-2.8-0.1-5-2.4-5-5.2l0.1-4.2c0.1-2.8,2.4-5,5.2-5l4.2,0.1
			c2.8,0.1,5,2.4,5,5.2l-0.1,4.2C212.6,252,210.3,254.2,207.5,254.2z"/>
		<path id="aroow" class="st11" d="M201.4,245c-0.5-1,0.2-2.1,1.3-2.1l2.9,0.1l2.9,0.1c1.1,0,1.7,1.2,1.1,2.2l-1.5,2.4l-1.5,2.4
			c-0.6,0.9-1.9,0.9-2.4-0.1l-1.4-2.5L201.4,245z"/>
		<path id="toptext" class="st5" d="M242.2,42v-1.5h0.2V42H242.2z M242.8,42v-1.5h0.6c0.1,0,0.2,0,0.2,0c0.1,0,0.1,0,0.2,0.1
			c0.1,0,0.1,0.1,0.1,0.1c0,0.1,0,0.1,0,0.2c0,0.1,0,0.2-0.1,0.3c-0.1,0.1-0.2,0.1-0.4,0.1H243V42H242.8z M243,41.2h0.4
			c0.1,0,0.2,0,0.3-0.1c0.1,0,0.1-0.1,0.1-0.2c0-0.1,0-0.1,0-0.2c0,0-0.1-0.1-0.1-0.1c0,0-0.1,0-0.2,0H243V41.2z M244.9,41.9
			c-0.1,0.1-0.1,0.1-0.2,0.1c-0.1,0-0.1,0-0.2,0c-0.1,0-0.2,0-0.3-0.1c-0.1-0.1-0.1-0.1-0.1-0.2c0-0.1,0-0.1,0-0.1
			c0,0,0.1-0.1,0.1-0.1c0,0,0.1,0,0.1-0.1c0,0,0.1,0,0.2,0c0.2,0,0.3,0,0.3-0.1c0,0,0,0,0,0c0-0.1,0-0.1-0.1-0.2
			c0,0-0.1-0.1-0.2-0.1c-0.1,0-0.2,0-0.2,0c0,0-0.1,0.1-0.1,0.2l-0.2,0c0-0.1,0-0.1,0.1-0.2c0,0,0.1-0.1,0.2-0.1c0.1,0,0.2,0,0.2,0
			c0.1,0,0.2,0,0.2,0c0.1,0,0.1,0,0.1,0.1c0,0,0,0.1,0.1,0.1c0,0,0,0.1,0,0.2v0.2c0,0.2,0,0.3,0,0.3c0,0,0,0.1,0,0.1h-0.2
			C244.9,42,244.9,41.9,244.9,41.9z M244.9,41.5c-0.1,0-0.2,0.1-0.3,0.1c-0.1,0-0.1,0-0.2,0c0,0-0.1,0-0.1,0.1c0,0,0,0.1,0,0.1
			c0,0,0,0.1,0.1,0.1c0,0,0.1,0,0.2,0c0.1,0,0.1,0,0.2,0c0.1,0,0.1-0.1,0.1-0.1C244.9,41.7,244.9,41.6,244.9,41.5L244.9,41.5z
			 M246.1,42v-0.1c-0.1,0.1-0.2,0.2-0.3,0.2c-0.1,0-0.2,0-0.2-0.1c-0.1,0-0.1-0.1-0.2-0.2c0-0.1-0.1-0.2-0.1-0.3
			c0-0.1,0-0.2,0.1-0.3c0-0.1,0.1-0.2,0.2-0.2c0.1,0,0.2-0.1,0.2-0.1c0.1,0,0.1,0,0.2,0c0.1,0,0.1,0.1,0.1,0.1v-0.5h0.2V42H246.1z
			 M245.5,41.5c0,0.1,0,0.2,0.1,0.3c0.1,0.1,0.1,0.1,0.2,0.1c0.1,0,0.2,0,0.2-0.1c0.1-0.1,0.1-0.2,0.1-0.3c0-0.2,0-0.3-0.1-0.3
			s-0.1-0.1-0.2-0.1c-0.1,0-0.2,0-0.2,0.1C245.5,41.2,245.5,41.3,245.5,41.5z M247.1,41.8c0,0.2,0.1,0.3,0.3,0.3s0.3-0.1,0.3-0.3
			c0-0.2-0.1-0.3-0.3-0.3S247.1,41.6,247.1,41.8z M247.3,41.3c0.3,0,0.7,0.2,0.7,0.2s-0.3-0.3-0.7-0.3s-0.6,0.3-0.6,0.3
			C246.7,41.5,247,41.3,247.3,41.3z M247.3,40.9c0.3,0,1,0.3,1,0.2s-0.5-0.5-0.9-0.5c-0.3,0-1,0.4-1,0.5
			C246.4,41.2,247,40.9,247.3,40.9z M336.3,42.3h-0.2v-1.2c0,0-0.1,0.1-0.2,0.1c-0.1,0-0.1,0.1-0.2,0.1v-0.2c0.1,0,0.2-0.1,0.3-0.2
			c0.1-0.1,0.1-0.1,0.2-0.2h0.1V42.3z M336.8,41.5c0-0.2,0-0.3,0.1-0.4c0-0.1,0.1-0.2,0.2-0.3c0.1-0.1,0.2-0.1,0.3-0.1
			c0.1,0,0.2,0,0.2,0c0.1,0,0.1,0.1,0.2,0.1c0,0.1,0.1,0.1,0.1,0.2c0,0.1,0,0.2,0,0.4c0,0.2,0,0.3-0.1,0.4c0,0.1-0.1,0.2-0.2,0.3
			c-0.1,0.1-0.2,0.1-0.3,0.1c-0.1,0-0.3-0.1-0.3-0.2C336.8,42,336.8,41.8,336.8,41.5z M337,41.5c0,0.2,0,0.4,0.1,0.5
			c0.1,0.1,0.1,0.1,0.2,0.1c0.1,0,0.2,0,0.2-0.1s0.1-0.2,0.1-0.5c0-0.2,0-0.4-0.1-0.5s-0.1-0.1-0.2-0.1c-0.1,0-0.2,0-0.2,0.1
			C337,41.1,337,41.3,337,41.5z M338,41.5c0-0.2,0-0.3,0.1-0.4c0-0.1,0.1-0.2,0.2-0.3c0.1-0.1,0.2-0.1,0.3-0.1c0.1,0,0.2,0,0.2,0
			c0.1,0,0.1,0.1,0.2,0.1c0,0.1,0.1,0.1,0.1,0.2c0,0.1,0,0.2,0,0.4c0,0.2,0,0.3-0.1,0.4c0,0.1-0.1,0.2-0.2,0.3
			c-0.1,0.1-0.2,0.1-0.3,0.1c-0.1,0-0.3-0.1-0.3-0.2C338,42,338,41.8,338,41.5z M338.2,41.5c0,0.2,0,0.4,0.1,0.5
			c0.1,0.1,0.1,0.1,0.2,0.1c0.1,0,0.2,0,0.2-0.1s0.1-0.2,0.1-0.5c0-0.2,0-0.4-0.1-0.5s-0.1-0.1-0.2-0.1c-0.1,0-0.2,0-0.2,0.1
			C338.2,41.1,338.2,41.3,338.2,41.5z M339.2,41.1c0-0.1,0-0.2,0.1-0.3c0.1-0.1,0.1-0.1,0.2-0.1c0.1,0,0.2,0,0.2,0.1
			c0.1,0.1,0.1,0.2,0.1,0.3c0,0.1,0,0.2-0.1,0.3c-0.1,0.1-0.1,0.1-0.2,0.1c-0.1,0-0.2,0-0.2-0.1C339.2,41.3,339.2,41.2,339.2,41.1z
			 M339.5,40.8c0,0-0.1,0-0.1,0.1s0,0.1,0,0.2c0,0.1,0,0.2,0,0.2c0,0,0.1,0.1,0.1,0.1c0,0,0.1,0,0.1-0.1c0,0,0-0.1,0-0.2
			c0-0.1,0-0.2,0-0.2C339.6,40.9,339.6,40.8,339.5,40.8z M339.5,42.3l0.8-1.6h0.2l-0.8,1.6H339.5z M340.2,41.9c0-0.1,0-0.2,0.1-0.3
			c0.1-0.1,0.1-0.1,0.2-0.1c0.1,0,0.2,0,0.2,0.1c0.1,0.1,0.1,0.2,0.1,0.3c0,0.1,0,0.2-0.1,0.3c-0.1,0.1-0.1,0.1-0.2,0.1
			c-0.1,0-0.2,0-0.2-0.1C340.2,42.1,340.2,42,340.2,41.9z M340.5,41.6c0,0-0.1,0-0.1,0.1s0,0.1,0,0.2c0,0.1,0,0.2,0,0.2
			c0,0,0.1,0.1,0.1,0.1c0,0,0.1,0,0.1-0.1c0,0,0-0.1,0-0.2c0-0.1,0-0.2,0-0.2C340.6,41.7,340.5,41.6,340.5,41.6z M345.8,41.5
			c0-0.2,0.2-0.3,0.4-0.3h0v-0.4h-4v1.4h4v-0.5h0C346,41.8,345.8,41.6,345.8,41.5z M346.6,41.2h-0.3v0.5h0.3c0.2,0,0.2-0.1,0.2-0.3
			C346.8,41.4,346.8,41.2,346.6,41.2z M294.8,42.3h-0.2v-1.2c0,0-0.1,0.1-0.2,0.1c-0.1,0-0.1,0.1-0.2,0.1v-0.2
			c0.1,0,0.2-0.1,0.3-0.2c0.1-0.1,0.1-0.1,0.2-0.2h0.1V42.3z M295.8,42.3h-0.2v-1.2c0,0-0.1,0.1-0.2,0.1c-0.1,0-0.1,0.1-0.2,0.1
			v-0.2c0.1,0,0.2-0.1,0.3-0.2c0.1-0.1,0.1-0.1,0.2-0.2h0.1V42.3z M296.4,41.4v-0.2h0.2v0.2H296.4z M296.4,42.3v-0.2h0.2v0.2H296.4z
			 M296.9,41.9l0.2,0c0,0.1,0,0.2,0.1,0.2c0.1,0,0.1,0.1,0.2,0.1c0.1,0,0.2,0,0.2-0.1s0.1-0.2,0.1-0.3c0-0.1,0-0.2-0.1-0.3
			c-0.1-0.1-0.1-0.1-0.2-0.1c-0.1,0-0.1,0-0.2,0c0,0-0.1,0.1-0.1,0.1l-0.2,0l0.1-0.8h0.8V41h-0.6l-0.1,0.4c0.1-0.1,0.2-0.1,0.3-0.1
			c0.1,0,0.2,0,0.3,0.1s0.1,0.2,0.1,0.4c0,0.1,0,0.3-0.1,0.4c-0.1,0.1-0.2,0.2-0.4,0.2c-0.1,0-0.3,0-0.3-0.1S296.9,42,296.9,41.9z
			 M298.1,41.9l0.2,0c0,0.1,0,0.1,0.1,0.2c0,0,0.1,0.1,0.2,0.1c0.1,0,0.1,0,0.2,0c0,0,0.1-0.1,0.1-0.1c0,0,0.1-0.1,0.1-0.2
			c0-0.1,0-0.2,0-0.2c0,0,0,0,0,0c0,0.1-0.1,0.1-0.2,0.1c-0.1,0-0.1,0.1-0.2,0.1c-0.1,0-0.2,0-0.3-0.1c-0.1-0.1-0.1-0.2-0.1-0.4
			c0-0.2,0-0.3,0.1-0.4c0.1-0.1,0.2-0.1,0.3-0.1c0.1,0,0.2,0,0.3,0.1c0.1,0.1,0.1,0.1,0.2,0.2c0,0.1,0.1,0.2,0.1,0.4
			c0,0.2,0,0.3-0.1,0.5c0,0.1-0.1,0.2-0.2,0.3c-0.1,0.1-0.2,0.1-0.3,0.1c-0.1,0-0.2,0-0.3-0.1C298.1,42.1,298.1,42.1,298.1,41.9z
			 M298.8,41.3c0-0.1,0-0.2-0.1-0.3c-0.1-0.1-0.1-0.1-0.2-0.1c-0.1,0-0.2,0-0.2,0.1c-0.1,0.1-0.1,0.2-0.1,0.3c0,0.1,0,0.2,0.1,0.2
			c0.1,0.1,0.1,0.1,0.2,0.1c0.1,0,0.2,0,0.2-0.1C298.8,41.5,298.8,41.4,298.8,41.3z M299.9,42.3v-1.5h0.6c0.1,0,0.2,0,0.2,0
			c0.1,0,0.1,0,0.2,0.1c0.1,0,0.1,0.1,0.1,0.1c0,0.1,0,0.1,0,0.2c0,0.1,0,0.2-0.1,0.3c-0.1,0.1-0.2,0.1-0.4,0.1h-0.4v0.6H299.9z
			 M300.1,41.5h0.4c0.1,0,0.2,0,0.3-0.1c0.1,0,0.1-0.1,0.1-0.2c0-0.1,0-0.1,0-0.2c0,0-0.1-0.1-0.1-0.1c0,0-0.1,0-0.2,0h-0.4V41.5z
			 M301.3,42.3v-1.5h0.3l0.4,1.1c0,0.1,0.1,0.2,0.1,0.2c0-0.1,0-0.1,0.1-0.2l0.4-1.1h0.3v1.5h-0.2V41l-0.4,1.3h-0.2l-0.4-1.3v1.3
			H301.3z"/>
		<path id="rekt" class="st12" d="M241.3,176.6h107.3v16.7H241.3V176.6z"/>
		<path id="app2" class="st13" d="M264.1,64.5h-3.2c-2.1,0-3.8-1.7-3.8-3.8v-3.2c0-2.1,1.7-3.8,3.8-3.8h3.2c2.1,0,3.8,1.7,3.8,3.8
			v3.2C267.9,62.8,266.2,64.5,264.1,64.5z"/>
		<path id="eggmakertext" class="st5" d="M256.7,67.4v-1.8h1.3v0.2H257v0.6h1v0.2h-1v0.6h1.1v0.2H256.7z M258.3,67.5l0.2,0
			c0,0.1,0,0.1,0.1,0.1c0.1,0,0.1,0.1,0.2,0.1c0.1,0,0.2,0,0.2-0.1s0.1-0.1,0.1-0.2c0,0,0-0.1,0-0.3c-0.1,0.1-0.2,0.2-0.4,0.2
			c-0.2,0-0.3-0.1-0.4-0.2c-0.1-0.1-0.1-0.3-0.1-0.5c0-0.1,0-0.2,0.1-0.3c0-0.1,0.1-0.2,0.2-0.2c0.1-0.1,0.2-0.1,0.3-0.1
			c0.2,0,0.3,0.1,0.4,0.2V66h0.2v1.1c0,0.2,0,0.4-0.1,0.4s-0.1,0.2-0.2,0.2c-0.1,0-0.2,0.1-0.3,0.1c-0.2,0-0.3,0-0.4-0.1
			C258.4,67.7,258.3,67.6,258.3,67.5z M258.5,66.7c0,0.2,0,0.3,0.1,0.4c0.1,0.1,0.2,0.1,0.3,0.1c0.1,0,0.2,0,0.3-0.1
			s0.1-0.2,0.1-0.4c0-0.2,0-0.3-0.1-0.4c-0.1-0.1-0.2-0.1-0.3-0.1c-0.1,0-0.2,0-0.3,0.1S258.5,66.5,258.5,66.7z M259.7,67.5l0.2,0
			c0,0.1,0,0.1,0.1,0.1c0.1,0,0.1,0.1,0.2,0.1c0.1,0,0.2,0,0.2-0.1c0.1,0,0.1-0.1,0.1-0.2c0,0,0-0.1,0-0.3c-0.1,0.1-0.2,0.2-0.4,0.2
			c-0.2,0-0.3-0.1-0.4-0.2c-0.1-0.1-0.1-0.3-0.1-0.5c0-0.1,0-0.2,0.1-0.3c0-0.1,0.1-0.2,0.2-0.2c0.1-0.1,0.2-0.1,0.3-0.1
			c0.2,0,0.3,0.1,0.4,0.2V66h0.2v1.1c0,0.2,0,0.4-0.1,0.4s-0.1,0.2-0.2,0.2c-0.1,0-0.2,0.1-0.3,0.1c-0.2,0-0.3,0-0.4-0.1
			S259.7,67.6,259.7,67.5z M259.9,66.7c0,0.2,0,0.3,0.1,0.4c0.1,0.1,0.2,0.1,0.3,0.1c0.1,0,0.2,0,0.3-0.1s0.1-0.2,0.1-0.4
			c0-0.2,0-0.3-0.1-0.4s-0.2-0.1-0.3-0.1c-0.1,0-0.2,0-0.3,0.1S259.9,66.5,259.9,66.7z M261.9,67.4v-1.8h0.4l0.4,1.3
			c0,0.1,0.1,0.2,0.1,0.3c0-0.1,0.1-0.2,0.1-0.3l0.4-1.3h0.3v1.8h-0.2v-1.5l-0.5,1.5h-0.2l-0.5-1.5v1.5H261.9z M264.9,67.2
			c-0.1,0.1-0.2,0.1-0.2,0.1c-0.1,0-0.2,0-0.2,0c-0.1,0-0.3,0-0.3-0.1s-0.1-0.2-0.1-0.3c0-0.1,0-0.1,0-0.2c0-0.1,0.1-0.1,0.1-0.1
			c0,0,0.1-0.1,0.2-0.1c0,0,0.1,0,0.2,0c0.2,0,0.3,0,0.4-0.1c0,0,0-0.1,0-0.1c0-0.1,0-0.2-0.1-0.2c-0.1-0.1-0.1-0.1-0.3-0.1
			c-0.1,0-0.2,0-0.2,0.1c-0.1,0-0.1,0.1-0.1,0.2l-0.2,0c0-0.1,0.1-0.2,0.1-0.2c0-0.1,0.1-0.1,0.2-0.1c0.1,0,0.2,0,0.3,0
			c0.1,0,0.2,0,0.3,0c0.1,0,0.1,0.1,0.2,0.1c0,0,0.1,0.1,0.1,0.2c0,0,0,0.1,0,0.2v0.3c0,0.2,0,0.3,0,0.4c0,0.1,0,0.1,0.1,0.2h-0.2
			C264.9,67.3,264.9,67.3,264.9,67.2z M264.9,66.7c-0.1,0-0.2,0.1-0.4,0.1c-0.1,0-0.2,0-0.2,0s-0.1,0-0.1,0.1s0,0.1,0,0.1
			c0,0.1,0,0.1,0.1,0.1c0,0,0.1,0.1,0.2,0.1c0.1,0,0.2,0,0.2-0.1c0.1,0,0.1-0.1,0.1-0.2C264.9,67,264.9,66.9,264.9,66.7L264.9,66.7z
			 M265.4,67.4v-1.8h0.2v1l0.5-0.5h0.3l-0.5,0.5l0.6,0.8h-0.3l-0.4-0.7l-0.2,0.2v0.5H265.4z M267.6,66.9l0.2,0
			c0,0.1-0.1,0.2-0.2,0.3s-0.2,0.1-0.4,0.1c-0.2,0-0.3-0.1-0.5-0.2c-0.1-0.1-0.2-0.3-0.2-0.5c0-0.2,0.1-0.4,0.2-0.5s0.3-0.2,0.4-0.2
			c0.2,0,0.3,0.1,0.4,0.2c0.1,0.1,0.2,0.3,0.2,0.5c0,0,0,0,0,0.1h-1c0,0.1,0,0.3,0.1,0.3c0.1,0.1,0.2,0.1,0.3,0.1
			c0.1,0,0.2,0,0.2-0.1C267.5,67.1,267.6,67,267.6,66.9z M266.9,66.6h0.7c0-0.1,0-0.2-0.1-0.2c-0.1-0.1-0.2-0.1-0.3-0.1
			c-0.1,0-0.2,0-0.3,0.1C266.9,66.4,266.9,66.5,266.9,66.6z M268.1,67.4V66h0.2v0.2c0.1-0.1,0.1-0.2,0.1-0.2c0,0,0.1,0,0.1,0
			c0.1,0,0.2,0,0.2,0.1l-0.1,0.2c-0.1,0-0.1,0-0.2,0c0,0-0.1,0-0.1,0c0,0-0.1,0.1-0.1,0.1c0,0.1,0,0.2,0,0.3v0.7H268.1z"/>
		<linearGradient id="egg_shape_5_" gradientUnits="userSpaceOnUse" x1="260.2302" y1="58.8437" x2="267.0669" y2="58.8437">
			<stop  offset="5.618000e-03" style="stop-color:#FBCA2A"/>
			<stop  offset="0.2528" style="stop-color:#FDF9CE"/>
			<stop  offset="0.299" style="stop-color:#F7EDBD"/>
			<stop  offset="0.3903" style="stop-color:#EBD796"/>
			<stop  offset="0.4036" style="stop-color:#E9D490"/>
			<stop  offset="0.486" style="stop-color:#D7B666"/>
			<stop  offset="0.5955" style="stop-color:#C2922E"/>
			<stop  offset="0.8246" style="stop-color:#E5C977"/>
			<stop  offset="0.8708" style="stop-color:#EED688"/>
			<stop  offset="1" style="stop-color:#FDF9CE"/>
		</linearGradient>
		<path id="egg_shape_3_" class="st14" d="M259.2,59.6c0,2.5,1.5,3.6,3.4,3.6s3.4-1.1,3.4-3.6s-1.6-5.2-3.4-5.2
			C260.7,54.5,259.2,57.1,259.2,59.6z"/>
	</g>
</g>
<g id="Layer_1" class="st15">
	<g class="st16">
		<g>
			<path class="st17" d="M37.2,0.2h336.1v77.9H37.2V0.2z"/>
			<path id="grass_3_" class="st18" d="M37.2,149.7h336.1v110.2H37.2V149.7z"/>
			<path id="hedges" class="st19" d="M37.2,149.6V67.8c0-9,7.4-16.4,16.4-16.4h30.8c9,0,16.4,7.4,16.4,16.4v81.8
				c0,0.7-1,1.2-1.6,1.2H38.4C37.7,150.8,37.2,150.3,37.2,149.6z M100.5,149.6V78.4c0-9,7.4-16.4,16.4-16.4h30.8
				c9,0,16.4,7.4,16.4,16.4v71.2c0,0.7-1,1.2-1.6,1.2h-60.8C101.1,150.8,100.5,150.3,100.5,149.6z M163.9,149.6V67.8
				c0-9,7.4-16.4,16.4-16.4h30.8c9,0,16.4,7.4,16.4,16.4v81.8c0,0.7-1,1.2-1.6,1.2h-60.8C164.4,150.8,163.9,150.3,163.9,149.6z
				 M227.2,149.6V78.4c0-9,7.4-16.4,16.4-16.4h30.8c9,0,16.4,7.4,16.4,16.4v71.2c0,0.7-1,1.2-1.6,1.2h-60.8
				C227.8,150.8,227.2,150.3,227.2,149.6z M290.6,149.6V64.5c0-9,7.4-16.4,16.4-16.4h49.8c9,0,16.4,7.4,16.4,16.4v85.1
				c0,0.7-0.5,1.2-1.2,1.2h-80.2C291.1,150.8,290.6,150.3,290.6,149.6z"/>
			<path id="leaveshedge" class="st20" d="M189.7,83.9c0.7-1.3,2-2.2,3.5-2.2c2.2,0,4,1.8,4,4 M191.5,87.3c0-2.2-1.8-4-4-4
				s-4,1.8-4,4 M203.7,86.9c0-2.6-2.1-4.7-4.7-4.7c-1.1,0-2.1,0.4-2.9,1 M76.6,100.7c0-2.2,1.8-4,4-4s4,1.8,4,4 M77.2,98.6
				c-0.5-0.2-0.7-0.2-1.3-0.2c-2.2,0-4.1,1.4-4.1,3.6 M94.2,102.4c0-3.9-3.2-7.1-7.1-7.1c-1.8,0-3.4,0.7-4.6,1.7 M73.9,106.1
				c0-2.8-2.3-5.1-5.1-5.1s-5.1,2.3-5.1,5.1 M250.9,134.8c0.7-1.2,2-1.9,3.5-1.9c2.2,0,4,1.8,4,4 M253.7,138.6c0-2.2-1.8-4-4-4
				c-2.1,0-3.8,1.6-4,3.7 M267.8,138.6c0-3.9-3.2-7.1-7.1-7.1c-1.8,0-3.4,0.7-4.7,1.8 M247.6,142.3c0-2.8-2.3-5.1-5.1-5.1
				c-2.8,0-5.1,2.3-5.1,5.1 M143.9,134.6c0.5-0.9,1.4-1.5,2.5-1.5c0.9,0,1.7,0.4,2.2,1.1 M147.5,137.4c0-1.6-1.3-2.8-2.8-2.8
				s-2.8,1.3-2.8,2.8 M157.5,135.2c-0.5-2.1-2.4-3.6-4.7-3.6c-2.7,0-4.8,2.2-4.8,4.8 M164.2,138.9c0-2.4-2-4.4-4.4-4.4
				s-4.4,2-4.4,4.4 M349.6,110.5c0-1.6,1.3-3,3-3s3,1.3,3,3 M361.2,113.2c0-2.1-1.7-3.7-3.7-3.7c-0.7,0-1.4,0.2-2,0.6 M369.7,112.7
				c0-2.8-2.3-5.1-5.1-5.1c-2,0-3.8,1.2-4.6,2.9 M238.4,106.7c0.8-1.7,2.6-2.9,4.6-2.9c2.3,0,4.3,1.6,4.9,3.7 M257.8,105.6
				c-1.1-1.1-2.6-1.8-4.3-1.8c-3.4,0-6.1,2.7-6.1,6.1 M259.5,109.9 M241.1,109.2c0-1.4-1.1-2.5-2.5-2.5s-2.5,1.1-2.5,2.5
				 M262.5,105.4c-0.5-0.6-1.4-1-2.2-1c-1.6,0-3,1.3-3,3 M271,108.2c0-2.6-2.1-4.7-4.7-4.7c-2.6,0-4.7,2.1-4.7,4.7 M299.1,80.1
				c0.8-1.7,2.6-2.9,4.6-2.9c2.3,0,4.3,1.6,4.9,3.7 M318.4,79c-1.1-1.1-2.6-1.8-4.3-1.8c-3.4,0-6.1,2.7-6.1,6.1 M320.2,83.3
				 M301.8,82.6c0-1.4-1.1-2.5-2.5-2.5c-1.4,0-2.5,1.1-2.5,2.5 M323.2,78.8c-0.5-0.6-1.4-1-2.2-1c-1.6,0-3,1.3-3,3 M331.7,81.6
				c0-2.6-2.1-4.7-4.7-4.7c-2.6,0-4.7,2.1-4.7,4.7"/>
			<path id="hidden" class="st21" d="M345,150.7c-2.5,1.3,4.8,1.1,10.3,1.1c4.2,0,7.9,0.2,9.6,0.1c0.4,0,0.7-0.5,0.5-0.9
				c-1.6-2.8-5.6-10.6-8.7-8.6C354,144.4,347.3,149.5,345,150.7z"/>
			<path id="bottombush" class="st22" d="M370.5,146.4c0,2.6-2.1,4.8-4.8,4.8s-4.8-2.1-4.8-4.8c0-0.7,0.2-1.4,0.5-2.1 M365.7,141.7
				c-0.2,0-0.4,0-0.5,0 M356.5,140c0,2.5,2,4.5,4.5,4.5s4.5-2,4.5-4.5 M349.2,140.6c0,2.2,1.8,4,4,4c1.7,0,3.2-1.1,3.8-2.6
				 M349.9,144.3c0,1.5,1.2,2.7,2.7,2.7c1.5,0,2.7-1.2,2.7-2.7 M342.8,145.7c0,2,1.6,3.6,3.6,3.6c2,0,3.6-1.6,3.6-3.6 M341.3,147.6
				c0,2.3,1.9,4.1,4.1,4.1s4.1-1.9,4.1-4.1"/>
			<path class="st23" d="M58.3,10.5c7.3,0,13.3,6,13.3,13.3s-6,13.3-13.3,13.3S45,31.1,45,23.8S50.9,10.5,58.3,10.5z"/>
			<path class="st24" d="M100.4,166.4c0,8.7-21.9,15.7-48.9,15.7c-5,0-9.8-0.2-14.3-0.7v-30c4.5-0.4,9.3-0.7,14.3-0.7
				C78.5,150.7,100.4,157.7,100.4,166.4z"/>
			<path id="rocks" class="st25" d="M84,183.5l7.8,0.7c2.8,0,5.1-2.3,5.1-5.1v-0.6c0-2.5-1.6-4.4-3.9-4.9c-0.5-0.1-1-0.1-1.5,0
				l-5.8,1.2c-2.8,0-5.4,0.9-5.4,3.7v0.6C80.3,181.9,81.2,183.5,84,183.5z M96.6,178.2l7.8,0.7c2.8,0,5.1-2.3,5.1-5.1v-0.6
				c0-2.5,0.1-3-2.2-3.5c-0.5-0.1-2.7-1.5-3.2-1.4l-5.8,1.2c-2.8,0-5.4,0.9-5.4,3.7v0.6C92.9,176.6,93.8,178.2,96.6,178.2z
				 M102.7,172.1l7.8,0.7c2.8,0,5.1-2.3,5.1-5.1v-0.6c0-2.5,0.1-3-2.2-3.5c-0.5-0.1-3.5-1.2-4-1.1l-5,0.8c-2.8,0-5.4,0.9-5.4,3.7
				v0.6C99,170.5,99.9,172.1,102.7,172.1z M100.4,167.6l7.8,0.7c2.8,0,5.1-2.3,5.1-5.1v-0.6c0-2.5,0.1-3-2.2-3.5
				c-0.5-0.1-3.5-1.2-4-1.1l-5,0.8c-2.8,0-5.4,0.9-5.4,3.7v0.6C96.7,166,97.6,167.6,100.4,167.6z M94.3,161.3l7.8,0.7
				c2.8,0,5.1-2.3,5.1-5.1v-0.6c0-2.5,0.1-3-2.2-3.5c-0.5-0.1-3.5-1.2-4-1.1l-5,0.8c-2.8,0-5.4,0.9-5.4,3.7v0.6
				C90.6,159.7,91.5,161.3,94.3,161.3z M84.1,158.3l7.8,0.7c2.8,0,5.1-2.3,5.1-5.1v-0.6c0-2.5,0.1-3-2.2-3.5c-0.5-0.1-3.5-1.2-4-1.1
				l-7.5,0.8c-2.8,0-2.9,0.9-2.9,3.7v0.6C80.5,156.7,81.3,158.3,84.1,158.3z M69.6,154.8l7.8,0.7c2.8,0,5.1-2.3,5.1-5.1v-0.6
				c0-2.5,0.1-3-2.2-3.5c-0.5-0.1-3.5-1.2-4-1.1l-7.5,0.8c-2.8,0-2.9,0.9-2.9,3.7v0.6C66,153.2,66.8,154.8,69.6,154.8z M54.2,152.2
				l7.8,0.7c2.8,0,5.1-2.3,5.1-5.1v-0.6c0-2.5,0.1-3-2.2-3.5c-0.5-0.1-3.5-1.2-4-1.1l-7.5,0.8c-2.8,0-2.9,0.9-2.9,3.7v0.6
				C50.5,150.6,51.4,152.2,54.2,152.2z M40.9,153.4l7.8,0.7c2.8,0,5.1-2.3,5.1-5.1v-0.6c0-2.5,0.1-3-2.2-3.5c-0.5-0.1-3.5-1.2-4-1.1
				l-7.5,0.8c-2.8,0-2.9,0.9-2.9,3.7v0.6C37.2,151.8,38.1,153.4,40.9,153.4z M73.9,187.1l7.8,0.7c2.8,0,5.1-2.3,5.1-5.1v-0.6
				c0-2.5-1.6-4.4-3.9-4.9c-0.5-0.1-1-0.1-1.5,0l-5.8,1.2c-2.8,0-5.4,0.9-5.4,3.7v0.6C70.2,185.5,71.1,187.1,73.9,187.1z M58.9,189
				l7.8,0.7c2.8,0,5.1-2.3,5.1-5.1V184c0-2.5-1.6-4.4-3.9-4.9c-0.5-0.1-1-0.1-1.5,0l-5.8,1.2c-2.8,0-5.4,0.9-5.4,3.7v0.6
				C55.2,187.4,56.1,189,58.9,189z M46.8,191.2l7.8,0.7c2.8,0,5.1-2.3,5.1-5.1v-0.6c0-2.5-1.6-4.4-3.9-4.9c-0.5-0.1-1-0.1-1.5,0
				l-5.8,1.2c-2.8,0-5.4,0.9-5.4,3.7v0.6C43.1,189.6,44,191.2,46.8,191.2z M40.9,188.3l7.8,0.7c2.8,0,5.1-2.3,5.1-5.1v-0.6
				c0-2.5-1.6-4.4-3.9-4.9c-0.5-0.1-1-0.1-1.5,0l-5.8,1.2c-2.8,0-5.4,0.9-5.4,3.7v0.6C37.2,186.8,38.1,188.3,40.9,188.3z"/>
			<path id="stem1" class="st26" d="M62.5,137.4h2v29.2h-2V137.4z"/>
			<path id="pet1" class="st27" d="M61.1,133.8l-0.9-1.6c-0.3-0.5-0.1-1.2,0.4-1.5l0,0c0.5-0.3,1.2-0.1,1.5,0.4l0.9,1.6
				c0.3,0.5,0.1,1.2-0.4,1.5h0C62.1,134.6,61.4,134.4,61.1,133.8z M61.8,135.8L61.8,135.8c0-0.6-0.5-1.1-1.1-1.1l-1.9,0
				c-0.6,0-1.1,0.5-1.1,1.1h0c0,0.6,0.5,1.1,1.1,1.1l1.9,0C61.3,136.9,61.8,136.4,61.8,135.8z M62.7,137.2L62.7,137.2
				c-0.5-0.3-1.2-0.1-1.5,0.4l-1,1.6c-0.3,0.5-0.1,1.2,0.4,1.5h0c0.5,0.3,1.2,0.1,1.5-0.4l1-1.6C63.4,138.2,63.2,137.5,62.7,137.2z
				 M64.4,137.1L64.4,137.1c-0.5,0.3-0.7,1-0.4,1.5l0.9,1.6c0.3,0.5,1,0.7,1.5,0.4l0,0c0.5-0.3,0.7-1,0.4-1.5l-0.9-1.6
				C65.6,137,64.9,136.8,64.4,137.1z M65.2,135.6L65.2,135.6c0,0.6,0.5,1.1,1.1,1.1l1.9,0c0.6,0,1.1-0.5,1.1-1.1l0,0
				c0-0.6-0.5-1.1-1.1-1.1l-1.9,0C65.7,134.5,65.2,135,65.2,135.6z M64.3,134.2L64.3,134.2c0.5,0.3,1.2,0.1,1.5-0.4l1-1.6
				c0.3-0.5,0.1-1.2-0.4-1.5l0,0c-0.5-0.3-1.2-0.1-1.5,0.4l-1,1.6C63.6,133.2,63.8,133.9,64.3,134.2z"/>
			<path id="corolla1" class="st28" d="M62.4,133.8c1.2-0.6,2.6-0.2,3.3,0.9s0.2,2.6-0.9,3.3c-1.2,0.6-2.6,0.2-3.3-0.9
				C60.8,135.9,61.2,134.5,62.4,133.8z"/>
			<path id="pet2" class="st29" d="M49.2,148.4h1.4v20.9h-1.4V148.4z"/>
			<path id="pet3" class="st5" d="M48.2,146.1l-0.6-1.2c-0.2-0.4-0.1-0.8,0.3-1.1l0,0c0.4-0.2,0.8-0.1,1.1,0.3l0.6,1.2
				c0.2,0.4,0.1,0.8-0.3,1.1h0C48.9,146.6,48.4,146.5,48.2,146.1z M48.7,147.5L48.7,147.5c0-0.4-0.3-0.8-0.8-0.8l-1.3,0
				c-0.4,0-0.8,0.3-0.8,0.8h0c0,0.4,0.3,0.8,0.8,0.8l1.3,0C48.3,148.2,48.7,147.9,48.7,147.5z M49.4,148.5L49.4,148.5
				c-0.4-0.2-0.8-0.1-1.1,0.3l-0.7,1.2c-0.2,0.4-0.1,0.8,0.3,1.1l0,0c0.4,0.2,0.8,0.1,1.1-0.3l0.7-1.2
				C49.8,149.2,49.7,148.7,49.4,148.5z M50.6,148.4L50.6,148.4c-0.4,0.2-0.5,0.7-0.3,1.1l0.6,1.2c0.2,0.4,0.7,0.5,1.1,0.3h0
				c0.4-0.2,0.5-0.7,0.3-1.1l-0.6-1.2C51.4,148.4,50.9,148.2,50.6,148.4z M51.1,147.4L51.1,147.4c0,0.4,0.3,0.8,0.8,0.8l1.3,0
				c0.4,0,0.8-0.3,0.8-0.8l0,0c0-0.4-0.3-0.8-0.8-0.8l-1.3,0C51.5,146.6,51.1,146.9,51.1,147.4z M50.5,146.3L50.5,146.3
				c0.4,0.2,0.8,0.1,1.1-0.3l0.7-1.2c0.2-0.4,0.1-0.8-0.3-1.1h0c-0.4-0.2-0.8-0.1-1.1,0.3l-0.7,1.2C50,145.7,50.1,146.1,50.5,146.3z
				"/>
			<path id="corolla2" class="st30" d="M49.1,146.1c0.8-0.5,1.9-0.2,2.3,0.7c0.5,0.8,0.2,1.8-0.7,2.3c-0.8,0.5-1.9,0.2-2.3-0.7
				C48,147.6,48.3,146.5,49.1,146.1z"/>
			<path id="pet2_1_" class="st31" d="M50.6,139h2.1v30.8h-2.1V139z"/>
			<path id="pet3_2_" class="st5" d="M49.3,135.9l-1.1-2c-0.3-0.5-0.1-1.2,0.4-1.6h0c0.5-0.3,1.2-0.1,1.6,0.4l1.1,2
				c0.2,0.4,0.1,0.8-0.3,1.1l-0.6,0.4C50,136.4,49.5,136.3,49.3,135.9z M49.9,137.6L49.9,137.6c0-0.6-0.5-1.1-1.1-1.2l-2,0
				c-0.6,0-1.1,0.5-1.2,1.1l0,0c0,0.6,0.5,1.1,1.1,1.2l2,0C49.3,138.8,49.9,138.2,49.9,137.6z M50.8,139.1L50.8,139.1
				c-0.5-0.3-1.2-0.1-1.6,0.4l-1,1.7c-0.3,0.5-0.2,1.2,0.4,1.6h0c0.5,0.3,1.2,0.1,1.6-0.4l1-1.7C51.5,140.1,51.4,139.4,50.8,139.1z
				 M52.9,138.8l-0.6,0.4c-0.4,0.2-0.5,0.7-0.3,1.1l1.1,2c0.3,0.5,1,0.8,1.6,0.4h0c0.5-0.3,0.8-1,0.4-1.6l-1.1-2
				C53.8,138.8,53.3,138.6,52.9,138.8z M53.4,137.5L53.4,137.5c0,0.6,0.5,1.1,1.1,1.2l2,0c0.6,0,1.1-0.5,1.2-1.1l0,0
				c0-0.6-0.5-1.1-1.1-1.2l-2,0C53.9,136.3,53.4,136.8,53.4,137.5z M52.5,136L52.5,136c0.5,0.3,1.2,0.1,1.6-0.4l1-1.7
				c0.3-0.5,0.2-1.2-0.4-1.6l0,0c-0.5-0.3-1.2-0.1-1.6,0.4l-1,1.7C51.8,135,51.9,135.7,52.5,136z"/>
			<path id="corolla3" class="st30" d="M50.5,135.6c1.2-0.7,2.7-0.2,3.4,1s0.2,2.7-1,3.4c-1.2,0.7-2.7,0.2-3.4-1
				C48.8,137.8,49.3,136.3,50.5,135.6z"/>
			<path id="stem3" class="st32" d="M69.8,135.3h2.5v36.2h-2.5V135.3z"/>
			<path id="pet3_1_" class="st5" d="M68.3,130.2l-1.5-2.8c-0.4-0.7-0.1-1.5,0.6-1.9l0,0c0.7-0.4,1.5-0.1,1.9,0.6l1.5,2.8
				c0.2,0.3,0.1,0.7-0.2,0.8l-1.4,0.8C68.9,130.6,68.5,130.5,68.3,130.2z M68.9,132L68.9,132c0-0.8-0.6-1.4-1.4-1.4l-2.5,0
				c-0.8,0-1.4,0.6-1.4,1.4l0,0c0,0.8,0.6,1.4,1.4,1.4l2.5,0C68.2,133.4,68.8,132.8,68.9,132z M70,133.8L70,133.8
				c-0.7-0.4-1.5-0.2-1.9,0.5l-1.3,2.1c-0.4,0.7-0.2,1.5,0.5,1.9h0c0.7,0.4,1.5,0.2,1.9-0.5l1.3-2.1C70.9,135.1,70.7,134.2,70,133.8
				z M72.9,133.3l-1.4,0.8c-0.3,0.2-0.4,0.5-0.2,0.8l1.5,2.8c0.4,0.7,1.2,0.9,1.9,0.6h0c0.7-0.4,0.9-1.2,0.6-1.9l-1.5-2.8
				C73.6,133.3,73.2,133.2,72.9,133.3z M73.2,131.8L73.2,131.8c0,0.8,0.6,1.4,1.4,1.4l2.5,0c0.8,0,1.4-0.6,1.4-1.4l0,0
				c0-0.8-0.6-1.4-1.4-1.4l-2.5,0C73.9,130.4,73.2,131,73.2,131.8z M72,130L72,130c0.7,0.4,1.5,0.2,1.9-0.5l1.3-2.1
				c0.4-0.7,0.2-1.5-0.5-1.9v0c-0.7-0.4-1.5-0.2-1.9,0.5l-1.3,2.1C71.2,128.7,71.4,129.6,72,130z"/>
			<path id="flow3_1_" class="st30" d="M69.6,129.5c1.5-0.8,3.4-0.3,4.2,1.2c0.8,1.5,0.3,3.3-1.2,4.2s-3.4,0.3-4.2-1.2
				S68.1,130.3,69.6,129.5z"/>
			<polygon id="roof" class="st28" points="362.1,200 329.1,171.9 296.1,200 353.4,200 			"/>
			<polygon id="dogh" class="st33" points="352.8,197.2 338.3,185.2 329.1,177.3 319.1,185.7 305.8,197.2 303.2,197.2 303.2,250.3 
				355.2,250.3 355.2,197.2 			"/>
			<path id="dhole" class="st4" d="M319.4,225.6c0,5.6,4.6,10.2,10.2,10.2c5.6,0,10.2-4.6,10.2-10.2s-4.6-10.2-10.2-10.2
				C323.9,215.4,319.4,220,319.4,225.6z M319.4,250.4h20.3v-25.6h-20.3V250.4z"/>
			<rect id="sign" x="307.8" y="201.6" class="st5" width="43.5" height="11.8"/>
			<path id="egg_shape" class="st34" d="M200.6,217.5c0,3.4,2.1,4.9,4.6,4.9c2.6,0,4.6-1.5,4.6-4.9c0-3.4-2.1-7-4.7-7
				S200.6,214.1,200.6,217.5z"/>
			<path id="zigzag" class="st34" d="M209.1,214.8h-7.7c0,0-0.4,0.8-0.7,2.7l1.6-1.5l1.7,1.5l1.7-1.4l1.3,1.4l1.3-1.3l1.6,1.8
				C209.8,217.8,209.9,216.6,209.1,214.8z"/>
			<path id="circles" class="st34" d="M203,213.2c0.3,0,0.5,0.2,0.5,0.5c0,0.3-0.2,0.5-0.5,0.5s-0.5-0.2-0.5-0.5
				C202.6,213.4,202.8,213.2,203,213.2z M204.9,213.8c0,0.2,0.2,0.5,0.5,0.5s0.5-0.2,0.5-0.5s-0.2-0.5-0.5-0.5
				S204.9,213.5,204.9,213.8z M207.1,213.8c0,0.3,0.2,0.5,0.5,0.5c0.3,0,0.5-0.2,0.5-0.5s-0.2-0.5-0.5-0.5
				C207.3,213.3,207.1,213.5,207.1,213.8z"/>
			<path id="bottom_line" class="st34" d="M209.1,220.5c-0.3,0-1.4,0-4,0s-3.3,0-3.8,0c0-0.1-0.5-0.9-0.4-0.9
				c0.7,0.1,2.1-0.4,4.3-0.4c2.2,0,3.8,0.4,4.4,0.4C209.6,219.6,209.2,220.5,209.1,220.5z"/>
			<path id="egg_shape2" class="st35" d="M264,240.1c0,4.4,2.7,6.3,6,6.3s6-1.9,6-6.3c0-4.4-2.7-9-6-9
				C266.6,231.1,264,235.7,264,240.1z"/>
			<path id="zigzag2" class="st35" d="M275.5,237l-1.6-1.5l-1.5,1.5l-1.7-1.5l-2.1,1.5l-2.3-1.5l-1.8,1.6c0,0-0.2,1-0.3,1.9l2.1-2
				l2.2,1.9l2.2-1.8l1.6,1.8l1.6-1.7l2.1,2.3C275.8,239.4,275.8,237.9,275.5,237z"/>
			<path id="circles2" class="st35" d="M267.2,239.3c0.3,0,0.6,0.3,0.6,0.6c0,0.3-0.3,0.6-0.6,0.6c-0.3,0-0.6-0.3-0.6-0.6
				C266.6,239.6,266.9,239.3,267.2,239.3z M269.6,240c0,0.3,0.3,0.6,0.6,0.6s0.6-0.3,0.6-0.6c0-0.3-0.3-0.6-0.6-0.6
				S269.6,239.7,269.6,240z M272.5,240c0,0.3,0.3,0.6,0.6,0.6c0.3,0,0.6-0.3,0.6-0.6c0-0.3-0.3-0.6-0.6-0.6
				C272.7,239.4,272.5,239.7,272.5,240z"/>
			<path id="bottom_line2" class="st35" d="M275.4,242.8c-0.3,0-2.3,0-5.6,0c-3.2,0-4.8,0-5.4,0c0-0.1-0.4-1.1-0.3-1.1
				c0.7,0.1,2.5,0.2,4.5-0.3c0.9-0.2,1.8-0.2,2.6,0c2.2,0.4,3.8,0.2,4.4,0.2C275.8,241.7,275.4,242.8,275.4,242.8z"/>
			<path id="bottom_line2_1_" class="st35" d="M274.8,235.1c-0.3,0-1.8-0.1-5-0.1c-3.2,0-4,0-4.6,0c0-0.1,0.9-1.5,0.9-1.5
				c0.9,0.1,1-0.3,3.7-0.3c2.9,0,3.5,0.4,4.2,0.4C274,233.7,274.8,235.1,274.8,235.1z"/>
			<path id="egg_shape2_1_" class="st36" d="M41.9,165.4c0,3.7,2.2,5.2,4.9,5.2c2.7,0,4.9-1.6,4.9-5.2s-2.3-7.4-5-7.4
				S41.9,161.7,41.9,165.4z"/>
			<path id="zigzag2_1_" class="st36" d="M51.4,162.8l-1.3-1.3l-1.3,1.3l-1.4-1.3l-1.8,1.3l-1.9-1.3l-1.5,1.3c0,0-0.2,0.8-0.3,1.6
				l1.8-1.6l1.8,1.5l1.8-1.5l1.3,1.5l1.3-1.4l1.7,1.9C51.7,164.8,51.7,163.5,51.4,162.8z"/>
			<path id="circles2_1_" class="st36" d="M44.6,164.7c0.3,0,0.5,0.2,0.5,0.5s-0.2,0.5-0.5,0.5s-0.5-0.2-0.5-0.5
				S44.3,164.7,44.6,164.7z M46.5,165.3c0,0.3,0.2,0.5,0.5,0.5c0.3,0,0.5-0.2,0.5-0.5c0-0.3-0.2-0.5-0.5-0.5
				C46.7,164.9,46.5,165.1,46.5,165.3z M48.9,165.3c0,0.3,0.2,0.5,0.5,0.5s0.5-0.2,0.5-0.5c0-0.3-0.2-0.5-0.5-0.5
				S48.9,165,48.9,165.3z"/>
			<path id="bottom_line2_3_" class="st36" d="M51.4,167.7c-0.3,0-1.9,0-4.6,0s-4,0-4.5,0c0-0.1-0.3-0.9-0.2-0.9
				c0.6,0.1,2.1,0.2,3.7-0.2c0.7-0.2,1.5-0.2,2.2,0c1.8,0.4,3.2,0.1,3.7,0.2C51.7,166.7,51.4,167.7,51.4,167.7z"/>
			<path id="bottom_line2_2_" class="st36" d="M50.8,161.3c-0.3,0-1.5-0.1-4.2-0.1s-3.3,0-3.8,0c0-0.1,0.7-1.2,0.8-1.3
				c0.7,0.1,0.8-0.2,3.1-0.2c2.4,0,2.9,0.3,3.5,0.3C50.2,160,50.8,161.3,50.8,161.3z"/>
			<path id="grass_1_" class="st37" d="M272.6,248c0-15.4-18.2-38-19.3-37c-0.4,0.4,14.1,19.8,14.1,35.2 M274.6,247.5
				c0-6.7-6.1-35.5-7.2-35.5c-1,0,3.4,28.8,3.4,35.5 M276.1,239.4c0-4.1,12.3-17.2,11.6-17.2c-0.7,0-14.1,13.1-14.1,17.2
				s0.6,7.4,1.3,7.4C275.5,246.8,276.1,243.5,276.1,239.4z M204.8,222.7c0-16.9-15.5-48.3-16.6-47.2c-0.5,0.5,12.7,28.7,12.7,45.7
				 M207,222.1c0-7.4,6.3-49.3,5.2-49.3s-9.4,42-9.4,49.3 M208.6,213.2c0-4.5,15.1-15.3,14.4-15.3c-0.8,0-17.1,10.8-17.1,15.3
				s0.6,8.2,1.4,8.2C208,221.4,208.6,217.7,208.6,213.2z M155.1,255.6c0-17-7.4-34.8-8.5-33.6c-0.5,0.5,4.6,15.1,4.6,32.1
				 M157.4,255c0-7.4,3.7-39.1,2.6-39.1c-1.2,0-6.8,31.7-6.8,39.1 M159,246.1c0-4.5,18.8-31.4,18.1-31.4s-20.9,26.9-20.9,31.4
				s0.6,8.2,1.4,8.2C158.4,254.2,159,250.6,159,246.1z M155.7,189.9c0-14.3-5.2-32.6-5.6-32.7c0.4,0,2.3,17.2,2.3,31.4 M156.4,189
				c0-6.2,3.7-24.1,2.7-24.1c-1,0-5.2,18.3-5.2,24.5 M158.9,181.9c0-3.8,11.4-16,10.8-16s-13.1,12.2-13.1,16c0,3.8,0.5,6.9,1.2,6.9
				S158.9,185.7,158.9,181.9z"/>
			<path id="egg_shape2_2_" class="st38" d="M43.6,231.3c0,16,9.6,22.9,21.5,22.9s21.5-6.8,21.5-22.9s-9.9-32.5-21.8-32.5
				S43.6,215.2,43.6,231.3z"/>
			<path id="zigzag2_2_" class="st38" d="M85.1,220.1l-5.7-5.6l-5.6,5.6l-6.3-5.6l-7.7,5.6l-8.2-5.6l-6.4,5.6c0,0-0.8,3.5-1.2,6.9
				l7.7-7.2l7.8,6.8l7.8-6.4l5.9,6.4l5.9-6.2l7.4,8.3C86.4,228.7,86.2,223.2,85.1,220.1z"/>
			<path id="circles2_2_" class="st38" d="M54.9,245.5c1.2,0,2.3,0.9,2.3,2.2c0,1.2-0.9,2.3-2.2,2.3c-1.2,0-2.3-0.9-2.3-2.2
				S53.7,245.5,54.9,245.5z M63.5,247.8c0,1.2,1,2.1,2.2,2c1.2,0,2.1-1,2-2.2c0-1.2-1-2.1-2.2-2C64.4,245.7,63.5,246.7,63.5,247.8z
				 M74,247.4c0,1.2,1.1,2.2,2.3,2.2c1.2,0,2.2-1.1,2.2-2.3c0-1.2-1.1-2.2-2.3-2.2S73.9,246.1,74,247.4z"/>
			<path id="bottom_line2_5_" class="st38" d="M84.9,241.2c-1.2,0-8.4,0.2-20.1,0.2s-17.4-0.1-19.6-0.1c-0.2-0.3-1.3-4-1.1-4.1
				c2.7,0.3,9,0.8,16.4-0.9c3.1-0.7,6.4-0.7,9.5-0.1c7.8,1.5,13.8,0.7,16.1,0.8C86.3,237,85,241.2,84.9,241.2z"/>
			<path id="bottom_line2_4_" class="st38" d="M82.5,213.3c-1.2,0-6.5-0.2-18.2-0.2s-14.5-0.1-16.7-0.1c-0.2-0.3,3.1-5.4,3.3-5.6
				c3.2,0.3,3.6-1,13.4-1c10.4,0,12.5,1.4,15.2,1.5C79.7,208,82.6,213.3,82.5,213.3z"/>
		</g>
		<path id="egg_shape_1_" class="st34" d="M127.6,239.5c0,3.4,2.1,4.9,4.6,4.9s4.6-1.5,4.6-4.9c0-3.4-2.1-7-4.7-7
			C129.6,232.5,127.6,236,127.6,239.5z"/>
		<path id="zigzag_1_" class="st34" d="M136.1,236.7h-7.7c0,0-0.4,0.8-0.7,2.7l1.6-1.5l1.7,1.5l1.7-1.4l1.3,1.4l1.3-1.3l1.6,1.8
			C136.8,239.8,136.9,238.5,136.1,236.7z"/>
		<path id="circles_1_" class="st34" d="M130.1,235.1c0.3,0,0.5,0.2,0.5,0.5c0,0.3-0.2,0.5-0.5,0.5c-0.3,0-0.5-0.2-0.5-0.5
			C129.6,235.4,129.8,235.1,130.1,235.1z M131.9,235.7c0,0.2,0.2,0.5,0.5,0.5c0.2,0,0.5-0.2,0.5-0.5s-0.2-0.5-0.5-0.5
			C132.1,235.3,131.9,235.5,131.9,235.7z M134.1,235.7c0,0.3,0.2,0.5,0.5,0.5s0.5-0.2,0.5-0.5c0-0.3-0.2-0.5-0.5-0.5
			S134.1,235.4,134.1,235.7z"/>
		<path class="st8" d="M143.6,239.8c0-13.3-8.7-24-19.4-24s-19.4,10.8-19.4,24h2.1c0-12.1,7.7-21.9,17.2-21.9s17.2,9.8,17.2,21.9
			H143.6z"/>
		<path id="egg_shape2_4_" class="st39" d="M113.8,238.4c0,3.3,2,4.6,4.4,4.6s4.4-1.4,4.4-4.6s-2-6.6-4.4-6.6
			S113.8,235.1,113.8,238.4z"/>
		<path id="zigzag2_4_" class="st39" d="M122.2,236.1l-1.2-1.1l-1.1,1.1l-1.3-1.1l-1.6,1.1l-1.7-1.1l-1.3,1.1c0,0-0.2,0.7-0.3,1.4
			l1.6-1.5l1.6,1.4l1.6-1.3l1.2,1.3l1.2-1.3l1.5,1.7C122.5,237.8,122.5,236.7,122.2,236.1z"/>
		<path id="circles2_4_" class="st39" d="M116.2,237.8c0.3,0,0.5,0.2,0.5,0.5c0,0.3-0.2,0.5-0.5,0.5c-0.3,0-0.5-0.2-0.5-0.5
			C115.7,238,115.9,237.8,116.2,237.8z M117.9,238.3c0,0.2,0.2,0.4,0.4,0.4c0.2,0,0.4-0.2,0.4-0.4c0-0.2-0.2-0.4-0.4-0.4
			C118.1,237.9,117.9,238.1,117.9,238.3z M120,238.3c0,0.3,0.2,0.5,0.5,0.5c0.3,0,0.5-0.2,0.5-0.5s-0.2-0.5-0.5-0.5
			C120.2,237.9,120,238.1,120,238.3z"/>
		<path id="bottom_line2_8_" class="st39" d="M121.7,234.7c-0.2,0-1.3-0.1-3.7-0.1c-2.4,0-2.9,0-3.4,0c0-0.1,0.6-1.1,0.7-1.1
			c0.7,0.1,0.7-0.2,2.7-0.2c2.1,0,2.5,0.3,3.1,0.3C121.1,233.6,121.7,234.7,121.7,234.7z"/>
		<path id="egg_shape2_5_" class="st40" d="M120.6,240c0,3.6,2.2,5.2,4.9,5.2s4.9-1.5,4.9-5.2s-2.2-7.3-4.9-7.3
			C122.7,232.6,120.6,236.4,120.6,240z"/>
		<path id="zigzag2_5_" class="st40" d="M129.9,237.5l-1.3-1.3l-1.3,1.3l-1.4-1.3l-1.7,1.3l-1.8-1.3l-1.4,1.3c0,0-0.2,0.8-0.3,1.6
			l1.7-1.6l1.8,1.5l1.8-1.4l1.3,1.4l1.3-1.4l1.7,1.9C130.2,239.4,130.2,238.2,129.9,237.5z"/>
		<path id="bottom_line2_10_" class="st40" d="M129.3,235.9c-0.3,0-1.5-0.1-4.1-0.1s-3.3,0-3.8,0c0-0.1,0.7-1.2,0.7-1.3
			c0.7,0.1,0.8-0.2,3-0.2c2.4,0,2.8,0.3,3.4,0.3C128.7,234.7,129.4,235.9,129.3,235.9z"/>
		<path id="egg_shape2_3_" class="st41" d="M105.6,238.2c0.6,3.1,2.7,4.1,5,3.6c2.3-0.4,3.9-2.1,3.3-5.2c-0.6-3.1-3.1-6-5.4-5.5
			C106.2,231.5,105,235.1,105.6,238.2z"/>
		<path id="zigzag2_3_" class="st41" d="M113.2,234.5l-1.3-0.9l-0.9,1.3l-1.4-0.9l-1.3,1.4l-1.8-0.8l-1,1.3c0,0,0,0.7,0,1.4l1.2-1.7
			l1.8,1l1.3-1.5l1.4,1l0.9-1.4l1.7,1.3C113.8,236.1,113.6,235,113.2,234.5z"/>
		<path id="bottom_line2_6_" class="st41" d="M112.5,233.3c-0.2,0-1.3,0.2-3.5,0.6c-2.3,0.4-2.8,0.5-3.3,0.6c0-0.1,0.4-1.2,0.4-1.2
			c0.6-0.1,0.7-0.3,2.6-0.7c2-0.4,2.5-0.2,3-0.3C111.8,232.3,112.5,233.3,112.5,233.3z"/>
		
			<linearGradient id="egg5_1_" gradientUnits="userSpaceOnUse" x1="181.9697" y1="285.0604" x2="190.9698" y2="285.0604" gradientTransform="matrix(0.9983 5.828371e-02 -5.828371e-02 0.9983 -29.3711 -57.8438)">
			<stop  offset="5.618000e-03" style="stop-color:#FBCA2A"/>
			<stop  offset="0.2528" style="stop-color:#FDF9CE"/>
			<stop  offset="0.299" style="stop-color:#F7EDBD"/>
			<stop  offset="0.3903" style="stop-color:#EBD796"/>
			<stop  offset="0.4036" style="stop-color:#E9D490"/>
			<stop  offset="0.486" style="stop-color:#D7B666"/>
			<stop  offset="0.5955" style="stop-color:#C2922E"/>
			<stop  offset="0.8246" style="stop-color:#E5C977"/>
			<stop  offset="0.8708" style="stop-color:#EED688"/>
			<stop  offset="1" style="stop-color:#FDF9CE"/>
		</linearGradient>
		<path id="egg5" class="st42" d="M134.3,238.3c-0.2,3.3,1.7,4.9,4.2,5c2.5,0.1,4.6-1.2,4.8-4.5s-1.7-6.9-4.1-7
			S134.5,234.9,134.3,238.3z"/>
		
			<linearGradient id="hardegg5_1_" gradientUnits="userSpaceOnUse" x1="180.2459" y1="285.8694" x2="189.2459" y2="285.8694" gradientTransform="matrix(0.9983 5.828371e-02 -5.828371e-02 0.9983 -29.3711 -57.8438)">
			<stop  offset="5.618000e-03" style="stop-color:#FBCA2A"/>
			<stop  offset="0.2528" style="stop-color:#FDF9CE"/>
			<stop  offset="0.299" style="stop-color:#F7EDBD"/>
			<stop  offset="0.3903" style="stop-color:#EBD796"/>
			<stop  offset="0.4036" style="stop-color:#E9D490"/>
			<stop  offset="0.486" style="stop-color:#D7B666"/>
			<stop  offset="0.5955" style="stop-color:#C2922E"/>
			<stop  offset="0.8246" style="stop-color:#E5C977"/>
			<stop  offset="0.8708" style="stop-color:#EED688"/>
			<stop  offset="1" style="stop-color:#FDF9CE"/>
		</linearGradient>
		<path id="hardegg5" class="st43" d="M132.5,239c-0.2,3.3,1.7,4.9,4.2,5c2.5,0.1,4.6-1.2,4.8-4.5s-1.7-6.9-4.1-7
			C134.9,232.3,132.7,235.6,132.5,239z"/>
		
			<linearGradient id="hardegg4_1_" gradientUnits="userSpaceOnUse" x1="174.1494" y1="286.6649" x2="183.1494" y2="286.6649" gradientTransform="matrix(0.9983 5.828371e-02 -5.828371e-02 0.9983 -29.3711 -57.8438)">
			<stop  offset="5.618000e-03" style="stop-color:#FBCA2A"/>
			<stop  offset="0.2528" style="stop-color:#FDF9CE"/>
			<stop  offset="0.299" style="stop-color:#F7EDBD"/>
			<stop  offset="0.3903" style="stop-color:#EBD796"/>
			<stop  offset="0.4036" style="stop-color:#E9D490"/>
			<stop  offset="0.486" style="stop-color:#D7B666"/>
			<stop  offset="0.5955" style="stop-color:#C2922E"/>
			<stop  offset="0.8246" style="stop-color:#E5C977"/>
			<stop  offset="0.8708" style="stop-color:#EED688"/>
			<stop  offset="1" style="stop-color:#FDF9CE"/>
		</linearGradient>
		<path id="hardegg4" class="st44" d="M126.4,239.4c-0.2,3.3,1.7,4.9,4.2,5c2.5,0.1,4.6-1.2,4.8-4.5c0.2-3.3-1.7-6.9-4.1-7
			C128.7,232.8,126.6,236.1,126.4,239.4z"/>
		
			<linearGradient id="hardegg3_1_" gradientUnits="userSpaceOnUse" x1="191.0763" y1="304.4599" x2="200.0763" y2="304.4599" gradientTransform="matrix(0.9957 -9.313387e-02 9.313387e-02 0.9957 -96.1229 -45.674)">
			<stop  offset="5.618000e-03" style="stop-color:#FBCA2A"/>
			<stop  offset="0.2528" style="stop-color:#FDF9CE"/>
			<stop  offset="0.299" style="stop-color:#F7EDBD"/>
			<stop  offset="0.3903" style="stop-color:#EBD796"/>
			<stop  offset="0.4036" style="stop-color:#E9D490"/>
			<stop  offset="0.486" style="stop-color:#D7B666"/>
			<stop  offset="0.5955" style="stop-color:#C2922E"/>
			<stop  offset="0.8246" style="stop-color:#E5C977"/>
			<stop  offset="0.8708" style="stop-color:#EED688"/>
			<stop  offset="1" style="stop-color:#FDF9CE"/>
		</linearGradient>
		<path id="hardegg3" class="st45" d="M121.2,240.8c0.3,3.3,2.4,4.6,4.9,4.3c2.5-0.2,4.3-1.8,4-5.2c-0.3-3.3-2.7-6.6-5.2-6.3
			C122.6,233.9,120.9,237.5,121.2,240.8z"/>
		
			<linearGradient id="hardegg2_1_" gradientUnits="userSpaceOnUse" x1="174.2265" y1="293.9108" x2="183.2266" y2="293.9108" gradientTransform="matrix(0.9998 -1.813010e-02 1.813010e-02 0.9998 -63.4263 -52.0505)">
			<stop  offset="5.618000e-03" style="stop-color:#FBCA2A"/>
			<stop  offset="0.2528" style="stop-color:#FDF9CE"/>
			<stop  offset="0.299" style="stop-color:#F7EDBD"/>
			<stop  offset="0.3903" style="stop-color:#EBD796"/>
			<stop  offset="0.4036" style="stop-color:#E9D490"/>
			<stop  offset="0.486" style="stop-color:#D7B666"/>
			<stop  offset="0.5955" style="stop-color:#C2922E"/>
			<stop  offset="0.8246" style="stop-color:#E5C977"/>
			<stop  offset="0.8708" style="stop-color:#EED688"/>
			<stop  offset="1" style="stop-color:#FDF9CE"/>
		</linearGradient>
		<path id="hardegg2" class="st46" d="M114.8,239.7c0.1,3.3,2.1,4.7,4.6,4.7c2.5,0,4.5-1.5,4.4-4.8c-0.1-3.3-2.2-6.7-4.7-6.7
			C116.6,232.9,114.7,236.3,114.8,239.7z"/>
		
			<linearGradient id="hardegg1_1_" gradientUnits="userSpaceOnUse" x1="140.9059" y1="274.3607" x2="149.9059" y2="274.3607" gradientTransform="matrix(0.9895 0.1448 -0.1448 0.9895 8.1502 -54.2918)">
			<stop  offset="5.618000e-03" style="stop-color:#FBCA2A"/>
			<stop  offset="0.2528" style="stop-color:#FDF9CE"/>
			<stop  offset="0.299" style="stop-color:#F7EDBD"/>
			<stop  offset="0.3903" style="stop-color:#EBD796"/>
			<stop  offset="0.4036" style="stop-color:#E9D490"/>
			<stop  offset="0.486" style="stop-color:#D7B666"/>
			<stop  offset="0.5955" style="stop-color:#C2922E"/>
			<stop  offset="0.8246" style="stop-color:#E5C977"/>
			<stop  offset="0.8708" style="stop-color:#EED688"/>
			<stop  offset="1" style="stop-color:#FDF9CE"/>
		</linearGradient>
		<path id="hardegg1" class="st47" d="M106.4,238.4c-0.5,3.3,1.3,5,3.8,5.4c2.5,0.4,4.6-0.8,5.1-4.1s-1.1-7-3.5-7.4
			C109.3,231.9,106.9,235.1,106.4,238.4z"/>
		<path id="mooneggbask" class="st36" d="M110.8,240.4c0,3.7,2.2,5.2,4.9,5.2s4.9-1.6,4.9-5.2s-2.3-7.4-5-7.4
			C113,232.9,110.8,236.7,110.8,240.4z"/>
		<path id="moonbask" class="st48" d="M115.9,241.5c-1.1-1.2-1-3,0.1-4.1c0.3-0.2,0.5-0.4,0.8-0.6c-0.7,0-1.4,0.2-1.9,0.8
			c-1.1,1.1-1.2,2.8-0.1,4c0.7,0.8,1.8,1,2.8,0.8C117,242.3,116.4,242,115.9,241.5z"/>
		<path class="st8" d="M105.1,235.9c0,0-4.7,20.9,18.9,20.9s19.3-20.3,19.3-20.3C130.2,240.4,117.2,240.6,105.1,235.9z"/>
		<path id="mid_cloud" class="st5" d="M181,32c0,3.5,4.5,6.4,10,6.4s10-2.8,10-6.4s-4.5-6.4-10-6.4S181,28.5,181,32z M172.8,21.1
			c-6.2,0-11.3,5.1-11.3,11.3s5.1,11.3,11.3,11.3c6.2,0,11.3-5.1,11.3-11.3S179.1,21.1,172.8,21.1z M184.6,41c3.2,0,5.7-1.7,5.7-3.8
			c0-2.1-2.6-3.8-5.7-3.8c-3.2,0-5.7,1.7-5.7,3.8C178.9,39.3,181.5,41,184.6,41z M147.8,33.8c0,2.8,4.1,5.1,9.1,5.1s9.1-2.3,9.1-5.1
			c0-2.8-4.1-5.1-9.1-5.1S147.8,31,147.8,33.8z M158.7,28.9c0,1.8,2.2,3.2,5,3.2s5-1.4,5-3.2s-2.2-3.2-5-3.2S158.7,27.2,158.7,28.9z
			"/>
		<path id="leftcloud" class="st5" d="M116.5,37.8c0.5,2.5,3.9,3.8,7.4,3s6-3.4,5.4-5.9c-0.5-2.5-3.9-3.8-7.4-3
			C118.4,32.7,115.9,35.3,116.5,37.8z M122.5,31.6c0,2.2,3.4,4,7.6,4c4.2,0,7.6-1.8,7.6-4s-3.4-4-7.6-4
			C125.9,27.5,122.5,29.3,122.5,31.6z M131.8,39.4c4.8,0,8.7-1.3,8.7-2.9s-3.9-2.9-8.7-2.9c-4.8,0-8.7,1.3-8.7,2.9
			S127,39.4,131.8,39.4z M105.5,34.8c0,1.2,3.5,2.2,7.9,2.2s7.9-1,7.9-2.2s-3.5-2.2-7.9-2.2S105.5,33.6,105.5,34.8z"/>
		<path id="buttonn" class="st49" d="M172.6,249.8L172.6,249.8c0-2.8,2.3-5.1,5.1-5.1h12.8c2.8,0,5.1,2.3,5.1,5.1v0
			c0,2.8-2.3,5.1-5.1,5.1h-12.8C174.9,254.9,172.6,252.6,172.6,249.8z"/>
		<path id="resettext" class="st50" d="M180.7,251.3L180.7,251.3c-0.2,0-0.2,0.1-0.2,0.1c0,0-0.1,0.1-0.2,0.1c-0.1,0-0.1,0-0.1,0
			c0,0-0.1-0.1-0.1-0.2c0-0.1-0.1-0.2-0.1-0.3l-0.1-0.6c0-0.2-0.1-0.3-0.2-0.4c-0.1-0.1-0.1-0.2-0.3-0.2c-0.1-0.1-0.2-0.1-0.4-0.1
			l-0.1,0c0.3,0,0.5-0.1,0.7-0.2c0.2-0.1,0.3-0.3,0.4-0.4c0.1-0.2,0.1-0.3,0.1-0.5c0-0.2-0.1-0.4-0.2-0.5s-0.3-0.3-0.5-0.4
			c-0.2-0.1-0.5-0.1-0.8-0.1c-0.1,0-0.2,0-0.4,0c-0.2,0-0.4,0-0.5,0c-0.3,0-0.6,0-0.7,0v0.1c0.1,0,0.2,0,0.3,0
			c0.1,0,0.1,0.1,0.1,0.1c0,0.1,0,0.2,0,0.3v2.9c0,0.1,0,0.3,0,0.3c0,0.1-0.1,0.1-0.1,0.1c-0.1,0-0.2,0-0.3,0v0.1c0.2,0,0.4,0,0.7,0
			c0.3,0,0.6,0,0.7,0v-0.1c-0.1,0-0.2,0-0.3,0c-0.1,0-0.1-0.1-0.1-0.1c0-0.1,0-0.2,0-0.3v-1.3h0.6c0.1,0,0.3,0,0.3,0.1
			c0.1,0.1,0.1,0.2,0.2,0.3c0,0.1,0.1,0.3,0.1,0.5l0.1,0.6c0.1,0.2,0.1,0.4,0.2,0.5c0.1,0.1,0.2,0.1,0.4,0.1c0.1,0,0.3,0,0.4-0.1
			C180.6,251.5,180.6,251.4,180.7,251.3z M179.1,249.3c0.1-0.1,0.3-0.2,0.3-0.3c0.1-0.1,0.1-0.3,0.1-0.5c0-0.3-0.1-0.6-0.2-0.7
			c-0.2-0.2-0.4-0.2-0.7-0.2c-0.1,0-0.2,0-0.3,0c-0.1,0-0.1,0.1-0.1,0.1c0,0.1,0,0.2,0,0.3v1.4h0.4
			C178.8,249.5,179,249.4,179.1,249.3z M183.4,250.9l-0.1,0c-0.2,0.4-0.5,0.6-0.9,0.6c-0.2,0-0.3-0.1-0.4-0.2
			c-0.1-0.1-0.2-0.3-0.3-0.4c-0.1-0.2-0.1-0.4-0.1-0.7c0-0.1,0-0.3,0-0.4h1.8c0-0.4-0.1-0.8-0.3-1c-0.2-0.2-0.5-0.3-0.8-0.3
			c-0.3,0-0.5,0.1-0.7,0.2c-0.2,0.1-0.4,0.3-0.5,0.6c-0.1,0.2-0.2,0.5-0.2,0.9c0,0.3,0.1,0.6,0.2,0.8c0.1,0.2,0.3,0.4,0.5,0.5
			c0.2,0.1,0.4,0.2,0.7,0.2c0.2,0,0.4,0,0.5-0.1c0.1-0.1,0.3-0.2,0.4-0.3C183.3,251.1,183.3,251,183.4,250.9z M182.7,249.1
			c0-0.2-0.1-0.3-0.2-0.4c-0.1-0.1-0.2-0.1-0.3-0.1c-0.1,0-0.2,0-0.3,0.1c-0.1,0.1-0.2,0.2-0.3,0.4c-0.1,0.2-0.1,0.4-0.1,0.6h1.3
			C182.8,249.4,182.8,249.3,182.7,249.1z M184.1,250.4H184c0,0.6,0,0.9,0,1.2h0.1c0-0.1,0.1-0.2,0.1-0.2c0,0,0,0,0.1,0
			c0.1,0.1,0.2,0.1,0.2,0.2c0.1,0.1,0.3,0.1,0.5,0.1c0.2,0,0.3,0,0.5-0.1c0.2-0.1,0.3-0.2,0.4-0.3c0.1-0.1,0.1-0.3,0.1-0.4
			c0-0.2,0-0.3-0.1-0.4c-0.1-0.1-0.2-0.2-0.3-0.3c-0.1-0.1-0.3-0.2-0.4-0.3c-0.1,0-0.1-0.1-0.3-0.2c-0.1-0.1-0.2-0.2-0.3-0.3
			c-0.1-0.1-0.1-0.2-0.1-0.3c0-0.1,0-0.3,0.1-0.3c0.1-0.1,0.2-0.1,0.3-0.1c0.2,0,0.4,0.1,0.5,0.3s0.2,0.4,0.2,0.6h0.1
			c0-0.5,0-0.8,0-1h-0.1c0,0.2-0.1,0.3-0.1,0.3c0,0-0.1,0-0.1,0c-0.1-0.1-0.2-0.1-0.3-0.1c-0.1,0-0.2-0.1-0.4-0.1
			c-0.2,0-0.3,0-0.4,0.1s-0.2,0.1-0.3,0.3c-0.1,0.1-0.1,0.3-0.1,0.4c0,0.2,0,0.3,0.1,0.4c0.1,0.1,0.2,0.2,0.3,0.3
			c0.1,0.1,0.2,0.2,0.4,0.3c0.2,0.1,0.3,0.2,0.4,0.3c0.1,0.1,0.2,0.1,0.2,0.2c0.1,0.1,0.1,0.2,0.1,0.3c0,0.1,0,0.2-0.1,0.3
			c-0.1,0.1-0.1,0.1-0.2,0.2c-0.1,0-0.2,0.1-0.2,0.1c-0.2,0-0.3,0-0.4-0.1c-0.1-0.1-0.2-0.2-0.2-0.4
			C184.2,250.9,184.1,250.7,184.1,250.4z M188.9,250.9l-0.1,0c-0.2,0.4-0.5,0.6-0.9,0.6c-0.2,0-0.3-0.1-0.4-0.2
			c-0.1-0.1-0.2-0.3-0.3-0.4c-0.1-0.2-0.1-0.4-0.1-0.7c0-0.1,0-0.3,0-0.4h1.8c0-0.4-0.1-0.8-0.3-1c-0.2-0.2-0.5-0.3-0.8-0.3
			c-0.3,0-0.5,0.1-0.7,0.2c-0.2,0.1-0.4,0.3-0.5,0.6c-0.1,0.2-0.2,0.5-0.2,0.9c0,0.3,0.1,0.6,0.2,0.8c0.1,0.2,0.3,0.4,0.5,0.5
			c0.2,0.1,0.4,0.2,0.7,0.2c0.2,0,0.4,0,0.5-0.1c0.1-0.1,0.3-0.2,0.4-0.3C188.8,251.1,188.9,251,188.9,250.9z M188.3,249.1
			c0-0.2-0.1-0.3-0.2-0.4c-0.1-0.1-0.2-0.1-0.3-0.1c-0.1,0-0.2,0-0.3,0.1c-0.1,0.1-0.2,0.2-0.3,0.4c-0.1,0.2-0.1,0.4-0.1,0.6h1.3
			C188.4,249.4,188.3,249.3,188.3,249.1z M190.3,248.5v-1c-0.1,0-0.3,0.1-0.5,0.1v0.9h-0.6v0.1h0.6v2c0,0.2,0,0.4,0.1,0.5
			c0,0.1,0.1,0.2,0.2,0.3c0.1,0.1,0.1,0.1,0.2,0.1c0.1,0,0.2,0,0.3,0c0.4,0,0.7-0.3,0.8-0.8l-0.1,0c-0.1,0.2-0.1,0.4-0.2,0.5
			c-0.1,0.1-0.2,0.1-0.3,0.1c-0.1,0-0.2,0-0.3-0.1c-0.1-0.1-0.1-0.2-0.1-0.4v-2.3h0.9v-0.1H190.3z"/>
		<path id="moonegg" class="st36" d="M66.4,167.9c0,3.7,2.2,5.2,4.9,5.2s4.9-1.6,4.9-5.2c0-3.7-2.3-7.4-5-7.4
			C68.5,160.5,66.4,164.2,66.4,167.9z"/>
		<path id="mooninegg" class="st48" d="M71.5,169.1c-1.1-1.2-1-3,0.1-4.1c0.3-0.2,0.5-0.4,0.8-0.6c-0.7,0-1.4,0.2-1.9,0.8
			c-1.1,1.1-1.2,2.8-0.1,4c0.7,0.8,1.8,1,2.8,0.8C72.5,169.9,71.9,169.6,71.5,169.1z"/>
	</g>
</g>
</svg>
