<svg id="Layer_1" data-name="Layer 1" xmlns="http://www.w3.org/2000/svg" viewBox="0 0 167 40"><defs><style>.cls-1,.cls-2{fill:#231f20;}.cls-1{fill-rule:evenodd;}</style></defs><title>socialmediaicons</title><path class="cls-1" d="M152.4,0c3.7.2,4.9,1.5,6.9,3.1,2.5-.1,4.5-1.4,6.3-2.3a7.9,7.9,0,0,1-4.1,5.3h0A22,22,0,0,0,167,4.7h0a17.9,17.9,0,0,1-4.9,5c.2,15-8,24.1-18.7,28.3-7.9,3.1-19.9,1.3-25.1-3,6,.3,11.7-.9,14.6-4.1-4.9-.3-7.8-3.2-9.2-7,1.3.1,3.4.3,4.3-.2-4.6-.8-7.6-4.7-7.9-9.8h.1a12.3,12.3,0,0,0,4.3,1.2v-.2c-3.1-1.4-6.4-9.6-2.8-13.1h.1c2.7,5.6,12.5,9.4,20.3,10.4l.2-.2c-1.5-4.9,1.9-9.1,4.6-10.8l.7-.4A9.5,9.5,0,0,1,152.4,0Z" transform="translate(0 0.4)"/><circle class="cls-2" cx="78.3" cy="20.7" r="7"/><path class="cls-1" d="M93.3.2H63.9A5.8,5.8,0,0,0,58.1,6V33.7a5.8,5.8,0,0,0,5.8,5.8H93.3a5.8,5.8,0,0,0,5.8-5.8V6A5.8,5.8,0,0,0,93.3.2ZM78.3,31A10.7,10.7,0,1,1,89,20.3,10.8,10.8,0,0,1,78.3,31Z" transform="translate(0 0.4)"/><path class="cls-1" d="M0-.4v40H21.3V23.1H17.8V17.3h3.5C21.2,6.6,22.9,6.1,33.4,6.2v6h-3a2.4,2.4,0,0,0-2.3,2.2,10.2,10.2,0,0,0,.1,3h5.2c0,.9-.3,5.3-.7,5.6H28.2V39.6H40V-.4Z" transform="translate(0 0.4)"/></svg>