<?xml version="1.0" encoding="UTF-8" standalone="no"?>
<svg viewBox="0 0 167 40" xmlns="http://www.w3.org/2000/svg" data-name="Layer 1">
<defs>
<style>.cls-1,.cls-2{fill:#231f20;}.cls-1{fill-rule:evenodd;}</style>
</defs>
<title>socialmediaicons</title>
<path transform="translate(0 .4)" class="cls-1" d="m152 0c3.7 0.2 4.9 1.5 6.9 3.1 2.5-0.1 4.5-1.4 6.3-2.3a7.9 7.9 0 0 1 -4.1 5.3 22 22 0 0 0 6 -1.4 17.9 17.9 0 0 1 -4.9 5c0.2 15-8 24.1-18.7 28.3-7.9 3.1-19.9 1.3-25.1-3 6 0.3 11.7-0.9 14.6-4.1-4.9-0.3-7.8-3.2-9.2-7 1.3 0.1 3.4 0.3 4.3-0.2-4.6-0.8-7.6-4.7-7.9-9.8h0.1a12.3 12.3 0 0 0 4.3 1.2v-0.2c-3.1-1.4-6.4-9.6-2.8-13.1h0.1c2.7 5.6 12.5 9.4 20.3 10.4l0.2-0.2c-1.5-4.9 1.9-9.1 4.6-10.8l0.7-0.4a9.5 9.5 0 0 1 5 -0.8z"/>
<circle cy="20.7" cx="78.3" r="7" class="cls-2"/>
<path transform="translate(0 .4)" class="cls-1" d="m93.3 0.2h-29.4a5.8 5.8 0 0 0 -5.8 5.8v27.7a5.8 5.8 0 0 0 5.8 5.8h29.4a5.8 5.8 0 0 0 5.8 -5.8v-27.7a5.8 5.8 0 0 0 -5.8 -5.8zm-15 30.8a10.7 10.7 0 1 1 10.7 -10.7 10.8 10.8 0 0 1 -10.7 10.7z"/>
<path transform="translate(0 .4)" class="cls-1" d="m0-0.4v40h21.3v-16.5h-3.5v-5.8h3.5c-0.1-10.7 1.6-11.2 12.1-11.1v6h-3a2.4 2.4 0 0 0 -2.3 2.2 10.2 10.2 0 0 0 0.1 3h5.2c0 0.9-0.3 5.3-0.7 5.6h-4.5v16.6h11.8v-40z"/>
</svg>
